{
.appVersion = "1192";
DisplayStrings = (
conjunction
);
customParameters = (
{
name = fsType;
value = (
);
},
{
name = licenseURL;
value = "http://scripts.sil.org/OFL";
},
{
name = license;
value = "This Font Software is licensed under the SIL Open Font License, Version 1.1. This license is available with a FAQ at: http://scripts.sil.org/OFL";
},
{
name = trademark;
value = "Public Sans is based on Libre Franklin, which is a trademark of Impallari Type.";
},
{
name = description;
value = "Libre Franklin is a reinterpretation and expansion of the 1912 Morris Fuller Benton’s classic.";
},
{
name = vendorID;
value = IMPA;
},
{
name = note;
value = "Based on Libre Franklin";
},
{
name = vsuffix;
value = "";
},
{
name = Axes;
value = (
{
Name = Weight;
Tag = wght;
}
);
}
);
date = "2018-10-05 14:55:24 +0000";
designer = "Pablo Impallari, Rodrigo Fuenzalida (Modified by Dan O. Williams)";
designerURL = "https://designsystem.digital.gov";
familyName = "Public Sans";
featurePrefixes = (
{
automatic = 1;
code = "languagesystem DFLT dflt;\012languagesystem latn dflt;\012languagesystem latn CAT;\012languagesystem latn ROM;\012languagesystem latn MOL;\012languagesystem latn KAZ;\012languagesystem latn TAT;\012languagesystem latn TRK;\012languagesystem latn CRT;\012languagesystem latn AZE;\012";
name = Languagesystems;
}
);
features = (
{
automatic = 1;
code = "feature locl;\012feature subs;\012feature sinf;\012feature sups;\012feature numr;\012feature dnom;\012feature frac;\012feature ordn;\012feature lnum;\012feature pnum;\012feature tnum;\012feature onum;\012feature salt;\012feature ss01;\012";
name = aalt;
},
{
automatic = 1;

glyphs = (
{
glyphname = A;
lastChange = "2019-04-16 18:49:16 +0000";
layers = (
{
anchors = (
{
name = bottom;
position = "{732, 0}";
},
{
name = ogonek;
position = "{1396, 10}";
},
{
name = top;
position = "{732, 1446}";
}
);
background = {
anchors = (
{
name = ogonek;
position = "{1460, 18}";
},
{
name = top;
position = "{758, 1484}";
}
);
paths = (
{
closed = 1;
nodes = (
"358 0 LINE SMOOTH",
"386 0 OFFCURVE",
"400 14 OFFCURVE",
"406 30 CURVE SMOOTH",
"488 266 LINE SMOOTH",
"492 280 OFFCURVE",
"502 288 OFFCURVE",
"518 288 CURVE SMOOTH",
"942 288 LINE SMOOTH",
"962 288 OFFCURVE",
"966 278 OFFCURVE",
"972 264 CURVE SMOOTH",
"1050 34 LINE SMOOTH",
"1058 8 OFFCURVE",
"1074 0 OFFCURVE",
"1094 0 CURVE SMOOTH",
"1486 0 LINE SMOOTH",
"1516 0 OFFCURVE",
"1524 40 OFFCURVE",
"1514 68 CURVE SMOOTH",
"1034 1430 LINE SMOOTH",
"1022 1462 OFFCURVE",
"996 1484 OFFCURVE",
"962 1484 CURVE SMOOTH",
"568 1484 LINE SMOOTH",
"532 1484 OFFCURVE",
"520 1470 OFFCURVE",
"508 1438 CURVE SMOOTH",
"24 74 LINE SMOOTH",
"8 30 OFFCURVE",
"24 0 OFFCURVE",
"54 0 CURVE SMOOTH"
);
},
{
closed = 1;
nodes = (
"590 628 OFFCURVE",
"584 644 OFFCURVE",
"594 670 CURVE SMOOTH",
"716 1010 LINE SMOOTH",
"720 1024 OFFCURVE",
"734 1024 OFFCURVE",
"740 1010 CURVE SMOOTH",
"860 668 LINE SMOOTH",
"868 642 OFFCURVE",
"864 628 OFFCURVE",
"842 628 CURVE SMOOTH",
"614 628 LINE SMOOTH"
);
}
);
};
layerId = "258ED206-D907-4350-8EBA-CBDDA1C16BF7";
paths = (
{
closed = 1;
nodes = (
"408 0 LINE",
"506 280 LINE",
"962 280 LINE",
"1058 0 LINE",
"1442 0 LINE",
"930 1446 LINE",
"532 1446 LINE",
"20 0 LINE"
);
},
{
closed = 1;
nodes = (
"732 1074 LINE",
"874 612 LINE",
"588 612 LINE"
);
}
);
width = 1462;
},
{
anchors = (
{
name = bottom;
position = "{694, 0}";
},
{
name = ogonek;
position = "{1274, 24}";
},
{
name = top;
position = "{694, 1446}";
}
);
background = {
anchors = (
{
name = ogonek;
position = "{1292, 22}";
},
{
name = top;
position = "{714, 1484}";
}
);
paths = (
{
closed = 1;
nodes = (
"184 0 LINE SMOOTH",
"196 0 OFFCURVE",
"204 4 OFFCURVE",
"206 14 CURVE SMOOTH",
"372 462 LINE SMOOTH",
"376 472 OFFCURVE",
"380 476 OFFCURVE",
"392 476 CURVE SMOOTH",
"1036 476 LINE SMOOTH",
"1048 476 OFFCURVE",
"1052 472 OFFCURVE",
"1056 462 CURVE SMOOTH",
"1218 16 LINE SMOOTH",
"1222 4 OFFCURVE",
"1230 0 OFFCURVE",
"1244 0 CURVE SMOOTH",
"1292 0 LINE SMOOTH",
"1306 0 OFFCURVE",
"1312 8 OFFCURVE",
"1308 20 CURVE SMOOTH",
"784 1464 LINE SMOOTH",
"780 1478 OFFCURVE",
"768 1484 OFFCURVE",
"748 1484 CURVE SMOOTH",
"682 1484 LINE SMOOTH",
"664 1484 OFFCURVE",
"656 1478 OFFCURVE",
"650 1462 CURVE SMOOTH",
"120 18 LINE SMOOTH",
"116 6 OFFCURVE",
"122 0 OFFCURVE",
"134 0 CURVE SMOOTH"
);
},
{
closed = 1;
nodes = (
"408 556 OFFCURVE",
"404 558 OFFCURVE",
"410 572 CURVE SMOOTH",
"700 1354 LINE SMOOTH",
"710 1382 OFFCURVE",
"720 1382 OFFCURVE",
"730 1356 CURVE SMOOTH",
"1016 576 LINE SMOOTH",
"1020 564 OFFCURVE",
"1018 556 OFFCURVE",
"1002 556 CURVE SMOOTH",
"420 556 LINE SMOOTH"
);
}
);
};
guideLines = (
{
angle = 69.4967;
position = "{108, 110}";
},
{
angle = 110.0797;
position = "{482, 110}";
}
);
layerId = "91AB5BCA-6A50-42DA-B2F7-8181BF189245";
paths = (
{
closed = 1;
nodes = (
"194 0 LINE",
"364 456 LINE",
"1026 456 LINE",
"1192 0 LINE",
"1278 0 LINE",
"750 1446 LINE",
"640 1446 LINE",
"110 0 LINE"
);
},
{
closed = 1;
nodes = (
"696 1362 LINE",
"996 542 LINE",
"392 542 LINE"
);
}
);
width = 1388;
}
);
leftKerningGroup = A;
rightKerningGroup = A;
unicode = 0041;
},
{
glyphname = Aringacute;
lastChange = "2019-04-16 18:56:14 +0000";
layers = (
{
background = {
paths = (
{
closed = 1;
nodes = (
"428 6 LINE",
"528 294 LINE",
"996 294 LINE",
"1094 6 LINE",
"1570 6 LINE",
"1046 1490 LINE",
"556 1490 LINE",
"30 6 LINE"
);
},
{
closed = 1;
nodes = (
"760 1048 LINE",
"906 634 LINE",
"612 634 LINE"
);
},
{
closed = 1;
nodes = (
"922 1386 OFFCURVE",
"1020 1468 OFFCURVE",
"1020 1592 CURVE SMOOTH",
"1020 1712 OFFCURVE",
"922 1798 OFFCURVE",
"800 1798 CURVE SMOOTH",
"680 1798 OFFCURVE",
"580 1714 OFFCURVE",
"580 1596 CURVE SMOOTH",
"580 1470 OFFCURVE",
"678 1386 OFFCURVE",
"800 1386 CURVE SMOOTH"
);
},
{
closed = 1;
nodes = (
"746 1492 OFFCURVE",
"700 1538 OFFCURVE",
"700 1590 CURVE SMOOTH",
"700 1644 OFFCURVE",
"746 1684 OFFCURVE",
"798 1684 CURVE SMOOTH",
"852 1684 OFFCURVE",
"894 1644 OFFCURVE",
"894 1590 CURVE SMOOTH",
"894 1538 OFFCURVE",
"852 1492 OFFCURVE",
"798 1492 CURVE SMOOTH"
);
},
{
closed = 1;
nodes = (
"886 1750 LINE",
"936 1870 LINE SMOOTH",
"948 1898 OFFCURVE",
"940 1928 OFFCURVE",
"908 1928 CURVE SMOOTH",
"818 1928 LINE SMOOTH",
"780 1928 OFFCURVE",
"754 1916 OFFCURVE",
"742 1866 CURVE SMOOTH",
"714 1750 LINE"
);
}
);
};
components = (
{
name = A;
},
{
name = _ringacute;
transform = "{1, 0, 0, 1, -2, 0}";
}
);
layerId = "258ED206-D907-4350-8EBA-CBDDA1C16BF7";
width = 1462;
},
{
background = {
paths = (
{
closed = 1;
nodes = (
"876 1714 OFFCURVE",
"788 1800 OFFCURVE",
"676 1800 CURVE SMOOTH",
"566 1800 OFFCURVE",
"476 1714 OFFCURVE",
"476 1608 CURVE SMOOTH",
"476 1492 OFFCURVE",
"564 1404 OFFCURVE",
"676 1404 CURVE SMOOTH",
"788 1404 OFFCURVE",
"876 1490 OFFCURVE",
"876 1604 CURVE SMOOTH"
);
},
{
closed = 1;
nodes = (
"790 1540 OFFCURVE",
"740 1484 OFFCURVE",
"674 1484 CURVE SMOOTH",
"612 1484 OFFCURVE",
"556 1540 OFFCURVE",
"556 1602 CURVE SMOOTH",
"556 1672 OFFCURVE",
"612 1720 OFFCURVE",
"674 1720 CURVE SMOOTH",
"740 1720 OFFCURVE",
"790 1672 OFFCURVE",
"790 1602 CURVE SMOOTH"
);
},
{
closed = 1;
nodes = (
"628 1484 OFFCURVE",
"620 1478 OFFCURVE",
"614 1462 CURVE SMOOTH",
"120 18 LINE",
"116 8 OFFCURVE",
"122 0 OFFCURVE",
"134 0 CURVE SMOOTH",
"178 0 LINE SMOOTH",
"190 0 OFFCURVE",
"196 4 OFFCURVE",
"200 14 CURVE",
"354 462 LINE SMOOTH",
"358 472 OFFCURVE",
"362 476 OFFCURVE",
"374 476 CURVE SMOOTH",
"966 476 LINE SMOOTH",
"978 476 OFFCURVE",
"982 472 OFFCURVE",
"986 462 CURVE SMOOTH",
"1138 16 LINE SMOOTH",
"1142 4 OFFCURVE",
"1148 0 OFFCURVE",
"1162 0 CURVE SMOOTH",
"1216 0 LINE SMOOTH",
"1230 0 OFFCURVE",
"1236 8 OFFCURVE",
"1232 20 CURVE SMOOTH",
"746 1464 LINE",
"742 1478 OFFCURVE",
"730 1484 OFFCURVE",
"710 1484 CURVE SMOOTH",
"646 1484 LINE SMOOTH"
);
},
{
closed = 1;
nodes = (
"954 564 OFFCURVE",
"952 556 OFFCURVE",
"936 556 CURVE SMOOTH",
"398 556 LINE SMOOTH",
"386 556 OFFCURVE",
"384 558 OFFCURVE",
"390 572 CURVE SMOOTH",
"656 1354 LINE SMOOTH",
"666 1382 OFFCURVE",
"678 1382 OFFCURVE",
"686 1356 CURVE SMOOTH",
"950 576 LINE SMOOTH"
);
},
{
closed = 1;
nodes = (
"696 1928 OFFCURVE",
"686 1920 OFFCURVE",
"682 1902 CURVE SMOOTH",
"646 1750 LINE",
"722 1750 LINE",
"784 1896 LINE SMOOTH",
"792 1916 OFFCURVE",
"786 1928 OFFCURVE",
"764 1928 CURVE SMOOTH",
"718 1928 LINE SMOOTH"
);
}
);
};
components = (
{
name = A;
},
{
name = _ringacute;
transform = "{1, 0, 0, 1, -2, 0}";
}
);
layerId = "91AB5BCA-6A50-42DA-B2F7-8181BF189245";
width = 1388;
}
);
leftKerningGroup = A;
leftMetricsKey = A;
rightKerningGroup = A;
rightMetricsKey = A;
unicode = 01FA;
},
{
glyphname = AE;
lastChange = "2019-04-16 18:49:16 +0000";
layers = (
{
anchors = (
{
name = top;
position = "{1382, 1446}";
}
);
background = {
anchors = (
{
name = top;
position = "{1396, 1484}";
}
);
paths = (
{
closed = 1;
nodes = (
"1448 328 LINE SMOOTH",
"1430 328 OFFCURVE",
"1424 334 OFFCURVE",
"1424 356 CURVE SMOOTH",
"1424 556 LINE SMOOTH",
"1424 572 OFFCURVE",
"1436 584 OFFCURVE",
"1456 584 CURVE SMOOTH",
"1826 584 LINE SMOOTH",
"1852 584 OFFCURVE",
"1862 600 OFFCURVE",
"1862 618 CURVE SMOOTH",
"1862 866 LINE SMOOTH",
"1862 892 OFFCURVE",
"1848 906 OFFCURVE",
"1820 906 CURVE SMOOTH",
"1460 906 LINE SMOOTH",
"1440 906 OFFCURVE",
"1424 920 OFFCURVE",
"1424 948 CURVE SMOOTH",
"1424 1118 LINE SMOOTH",
"1424 1144 OFFCURVE",
"1440 1156 OFFCURVE",
"1470 1156 CURVE SMOOTH",
"2070 1156 LINE SMOOTH",
"2106 1156 OFFCURVE",
"2122 1178 OFFCURVE",
"2122 1210 CURVE SMOOTH",
"2124 1442 LINE SMOOTH",
"2124 1468 OFFCURVE",
"2112 1484 OFFCURVE",
"2088 1484 CURVE SMOOTH",
"790 1484 LINE SMOOTH",
"756 1484 OFFCURVE",
"740 1470 OFFCURVE",
"724 1438 CURVE SMOOTH",
"16 74 LINE SMOOTH",
"-8 30 OFFCURVE",
"4 0 OFFCURVE",
"34 0 CURVE SMOOTH",
"338 0 LINE SMOOTH",
"366 0 OFFCURVE",
"382 14 OFFCURVE",
"390 30 CURVE SMOOTH",
"508 266 LINE",
"514 280 OFFCURVE",
"526 288 OFFCURVE",
"542 288 CURVE SMOOTH",
"944 288 LINE SMOOTH",
"964 288 OFFCURVE",
"970 278 OFFCURVE",
"970 260 CURVE SMOOTH",
"970 50 LINE SMOOTH",
"970 16 OFFCURVE",
"984 0 OFFCURVE",
"1024 0 CURVE SMOOTH",
"2094 0 LINE SMOOTH",
"2128 0 OFFCURVE",
"2142 20 OFFCURVE",
"2142 44 CURVE SMOOTH",
"2142 290 LINE SMOOTH",
"2142 318 OFFCURVE",
"2126 328 OFFCURVE",
"2098 328 CURVE SMOOTH"
);
},
{
closed = 1;
nodes = (
"698 628 LINE SMOOTH",
"674 628 OFFCURVE",
"670 644 OFFCURVE",
"686 670 CURVE",
"890 1074 LINE SMOOTH",
"922 1134 OFFCURVE",
"970 1130 OFFCURVE",
"970 1070 CURVE SMOOTH",
"970 668 LINE SMOOTH",
"970 642 OFFCURVE",
"956 628 OFFCURVE",
"932 628 CURVE SMOOTH"
);
}
);
};
layerId = "258ED206-D907-4350-8EBA-CBDDA1C16BF7";
paths = (
{
closed = 1;
nodes = (
"1410 320 LINE",
"1410 570 LINE",
"1836 570 LINE",
"1836 884 LINE",
"1410 884 LINE",
"1410 1128 LINE",
"2090 1128 LINE",
"2092 1446 LINE",
"750 1446 LINE",
"0 0 LINE",
"388 0 LINE",
"526 280 LINE",
"966 280 LINE",
"966 0 LINE",
"2110 0 LINE",
"2110 320 LINE"
);
},
{
closed = 1;
nodes = (
"668 612 LINE",
"966 1202 LINE",
"966 612 LINE"
);
}
);
width = 2220;
},
{
anchors = (
{
name = top;
position = "{1234, 1446}";
}
);
background = {
anchors = (
{
name = top;
position = "{1270, 1484}";
}
);
paths = (
{
closed = 1;
nodes = (
"1008 80 LINE SMOOTH",
"994 80 OFFCURVE",
"990 82 OFFCURVE",
"990 98 CURVE SMOOTH",
"990 692 LINE SMOOTH",
"990 708 OFFCURVE",
"994 710 OFFCURVE",
"1008 710 CURVE SMOOTH",
"1544 710 LINE SMOOTH",
"1556 710 OFFCURVE",
"1560 712 OFFCURVE",
"1560 724 CURVE SMOOTH",
"1560 776 LINE SMOOTH",
"1560 786 OFFCURVE",
"1556 790 OFFCURVE",
"1546 790 CURVE SMOOTH",
"1008 790 LINE SMOOTH",
"994 790 OFFCURVE",
"990 792 OFFCURVE",
"990 804 CURVE SMOOTH",
"990 1386 LINE SMOOTH",
"990 1402 OFFCURVE",
"994 1404 OFFCURVE",
"1008 1404 CURVE SMOOTH",
"1684 1404 LINE SMOOTH",
"1696 1404 OFFCURVE",
"1700 1406 OFFCURVE",
"1700 1418 CURVE SMOOTH",
"1700 1470 LINE SMOOTH",
"1700 1480 OFFCURVE",
"1696 1484 OFFCURVE",
"1686 1484 CURVE SMOOTH",
"876 1484 LINE SMOOTH",
"858 1484 OFFCURVE",
"848 1478 OFFCURVE",
"840 1462 CURVE",
"14 18 LINE SMOOTH",
"8 8 OFFCURVE",
"12 0 OFFCURVE",
"24 0 CURVE SMOOTH",
"74 0 LINE SMOOTH",
"86 0 OFFCURVE",
"92 4 OFFCURVE",
"98 14 CURVE SMOOTH",
"356 462 LINE SMOOTH",
"362 472 OFFCURVE",
"368 476 OFFCURVE",
"380 476 CURVE SMOOTH",
"888 476 LINE SMOOTH",
"894 476 OFFCURVE",
"898 472 OFFCURVE",
"898 466 CURVE SMOOTH",
"898 20 LINE SMOOTH",
"898 4 OFFCURVE",
"902 0 OFFCURVE",
"916 0 CURVE SMOOTH",
"1716 0 LINE SMOOTH",
"1726 0 OFFCURVE",
"1730 4 OFFCURVE",
"1730 14 CURVE SMOOTH",
"1730 66 LINE SMOOTH",
"1730 78 OFFCURVE",
"1726 80 OFFCURVE",
"1714 80 CURVE SMOOTH"
);
},
{
closed = 1;
nodes = (
"418 556 LINE SMOOTH",
"406 556 OFFCURVE",
"404 558 OFFCURVE",
"412 572 CURVE SMOOTH",
"868 1354 LINE SMOOTH",
"884 1382 OFFCURVE",
"896 1382 OFFCURVE",
"898 1356 CURVE",
"898 574 LINE SMOOTH",
"898 564 OFFCURVE",
"894 556 OFFCURVE",
"882 556 CURVE SMOOTH"
);
}
);
};
layerId = "91AB5BCA-6A50-42DA-B2F7-8181BF189245";
paths = (
{
closed = 1;
nodes = (
"960 78 LINE",
"960 692 LINE",
"1516 692 LINE",
"1516 770 LINE",
"960 770 LINE",
"960 1368 LINE",
"1654 1368 LINE",
"1654 1446 LINE",
"826 1446 LINE",
"0 0 LINE",
"84 0 LINE",
"350 464 LINE",
"872 464 LINE",
"872 0 LINE",
"1682 0 LINE",
"1682 78 LINE"
);
},
{
closed = 1;
nodes = (
"388 542 LINE",
"872 1370 LINE",
"872 542 LINE"
);
}
);
width = 1822;
}
);
leftKerningGroup = AE;
rightKerningGroup = E;
rightMetricsKey = E;
unicode = 00C6;
},
{
glyphname = B;
lastChange = "2019-04-16 18:49:16 +0000";
layers = (
{
background = {
paths = (
{
closed = 1;
nodes = (
"786 0 LINE SMOOTH",
"1218 0 OFFCURVE",
"1424 130 OFFCURVE",
"1424 404 CURVE SMOOTH",
"1424 574 OFFCURVE",
"1346 676 OFFCURVE",
"1126 758 CURVE SMOOTH",
"1120 760 OFFCURVE",
"1120 770 OFFCURVE",
"1126 772 CURVE SMOOTH",
"1326 864 OFFCURVE",
"1388 954 OFFCURVE",
"1388 1092 CURVE SMOOTH",
"1388 1350 OFFCURVE",
"1168 1484 OFFCURVE",
"754 1484 CURVE SMOOTH",
"158 1484 LINE SMOOTH",
"128 1484 OFFCURVE",
"108 1462 OFFCURVE",
"108 1432 CURVE SMOOTH",
"108 44 LINE SMOOTH",
"108 20 OFFCURVE",
"126 0 OFFCURVE",
"154 0 CURVE SMOOTH"
);
},
{
closed = 1;
nodes = (
"570 300 OFFCURVE",
"562 314 OFFCURVE",
"562 344 CURVE SMOOTH",
"562 554 LINE SMOOTH",
"562 584 OFFCURVE",
"574 596 OFFCURVE",
"608 596 CURVE SMOOTH",
"786 596 LINE SMOOTH",
"886 596 OFFCURVE",
"952 536 OFFCURVE",
"952 454 CURVE SMOOTH",
"952 376 OFFCURVE",
"892 300 OFFCURVE",
"776 300 CURVE SMOOTH",
"596 300 LINE SMOOTH"
);
},
{
closed = 1;
nodes = (
"570 904 OFFCURVE",
"562 918 OFFCURVE",
"562 948 CURVE SMOOTH",
"562 1144 LINE SMOOTH",
"562 1174 OFFCURVE",
"574 1184 OFFCURVE",
"608 1184 CURVE SMOOTH",
"772 1184 LINE SMOOTH",
"866 1184 OFFCURVE",
"940 1128 OFFCURVE",
"940 1040 CURVE SMOOTH",
"940 962 OFFCURVE",
"880 904 OFFCURVE",
"786 904 CURVE SMOOTH",
"596 904 LINE SMOOTH"
);
}
);
};
layerId = "258ED206-D907-4350-8EBA-CBDDA1C16BF7";
paths = (
{
closed = 1;
nodes = (
"750 0 LINE SMOOTH",
"1170 0 OFFCURVE",
"1332 124 OFFCURVE",
"1332 394 CURVE",
"1332 502 OFFCURVE",
"1318 668 OFFCURVE",
"1064 744 CURVE",
"1242 832 OFFCURVE",
"1298 930 OFFCURVE",
"1298 1064 CURVE SMOOTH",
"1298 1310 OFFCURVE",
"1122 1446 OFFCURVE",
"718 1446 CURVE SMOOTH",
"140 1446 LINE",
"140 0 LINE"
);
},
{
closed = 1;
nodes = (
"530 582 LINE",
"774 582 LINE",
"872 582 OFFCURVE",
"936 522 OFFCURVE",
"936 442 CURVE SMOOTH",
"936 366 OFFCURVE",
"878 292 OFFCURVE",
"764 292 CURVE",
"530 292 LINE"
);
},
{
closed = 1;
nodes = (
"530 1154 LINE",
"760 1154 LINE SMOOTH",
"852 1154 OFFCURVE",
"924 1100 OFFCURVE",
"924 1014 CURVE SMOOTH",
"924 938 OFFCURVE",
"866 882 OFFCURVE",
"774 882 CURVE SMOOTH",
"530 882 LINE"
);
}
);
width = 1412;
},
{
background = {
paths = (
{
closed = 1;
nodes = (
"644 0 LINE SMOOTH",
"994 0 OFFCURVE",
"1200 130 OFFCURVE",
"1200 394 CURVE SMOOTH",
"1200 594 OFFCURVE",
"1082 712 OFFCURVE",
"902 746 CURVE SMOOTH",
"890 748 OFFCURVE",
"890 760 OFFCURVE",
"902 764 CURVE SMOOTH",
"1078 818 OFFCURVE",
"1164 934 OFFCURVE",
"1164 1102 CURVE SMOOTH",
"1164 1350 OFFCURVE",
"970 1484 OFFCURVE",
"638 1484 CURVE SMOOTH",
"228 1484 LINE SMOOTH",
"214 1484 OFFCURVE",
"210 1480 OFFCURVE",
"210 1464 CURVE SMOOTH",
"210 16 LINE SMOOTH",
"210 6 OFFCURVE",
"216 0 OFFCURVE",
"226 0 CURVE SMOOTH"
);
},
{
closed = 1;
nodes = (
"306 80 OFFCURVE",
"302 86 OFFCURVE",
"302 100 CURVE SMOOTH",
"302 692 LINE SMOOTH",
"302 706 OFFCURVE",
"308 710 OFFCURVE",
"324 710 CURVE SMOOTH",
"662 710 LINE SMOOTH",
"912 710 OFFCURVE",
"1104 622 OFFCURVE",
"1104 382 CURVE SMOOTH",
"1104 164 OFFCURVE",
"950 80 OFFCURVE",
"634 80 CURVE SMOOTH",
"316 80 LINE SMOOTH"
);
},
{
closed = 1;
nodes = (
"306 790 OFFCURVE",
"302 796 OFFCURVE",
"302 810 CURVE SMOOTH",
"302 1388 LINE SMOOTH",
"302 1400 OFFCURVE",
"308 1404 OFFCURVE",
"320 1404 CURVE SMOOTH",
"630 1404 LINE SMOOTH",
"900 1404 OFFCURVE",
"1068 1308 OFFCURVE",
"1068 1092 CURVE SMOOTH",
"1068 848 OFFCURVE",
"848 790 OFFCURVE",
"662 790 CURVE SMOOTH",
"316 790 LINE SMOOTH"
);
}
);
};
layerId = "91AB5BCA-6A50-42DA-B2F7-8181BF189245";
paths = (
{
closed = 1;
nodes = (
"622 0 LINE",
"964 0 OFFCURVE",
"1164 128 OFFCURVE",
"1164 386 CURVE",
"1164 578 OFFCURVE",
"1056 698 OFFCURVE",
"842 734 CURVE",
"1050 794 OFFCURVE",
"1128 908 OFFCURVE",
"1128 1072 CURVE SMOOTH",
"1128 1314 OFFCURVE",
"940 1446 OFFCURVE",
"616 1446 CURVE SMOOTH",
"210 1446 LINE",
"210 0 LINE"
);
},
{
closed = 1;
nodes = (
"288 690 LINE",
"640 690 LINE SMOOTH",
"884 690 OFFCURVE",
"1086 608 OFFCURVE",
"1086 374 CURVE SMOOTH",
"1086 162 OFFCURVE",
"920 82 OFFCURVE",
"612 82 CURVE",
"288 82 LINE"
);
},
{
closed = 1;
nodes = (
"288 1366 LINE",
"608 1366 LINE SMOOTH",
"872 1366 OFFCURVE",
"1050 1274 OFFCURVE",
"1050 1062 CURVE SMOOTH",
"1050 824 OFFCURVE",
"820 772 OFFCURVE",
"640 772 CURVE SMOOTH",
"288 772 LINE"
);
}
);
width = 1294;
}
);
leftKerningGroup = N;
leftMetricsKey = N;
rightKerningGroup = B;
unicode = 0042;
},
{
glyphname = C;
lastChange = "2019-04-16 18:49:16 +0000";
layers = (
{
anchors = (
{
name = bottom;
position = "{782, 0}";
},
{
name = top;
position = "{782, 1446}";
}
);
background = {
anchors = (
{
name = bottom;
position = "{776, 0}";
},
{
name = top;
position = "{780, 1484}";
}
);
paths = (
{
closed = 1;
nodes = (
"346 1504 OFFCURVE",
"70 1212 OFFCURVE",
"70 762 CURVE SMOOTH",
"70 310 OFFCURVE",
"346 -20 OFFCURVE",
"776 -20 CURVE SMOOTH",
"1238 -20 OFFCURVE",
"1410 334 OFFCURVE",
"1430 442 CURVE SMOOTH",
"1438 494 OFFCURVE",
"1416 504 OFFCURVE",
"1402 508 CURVE SMOOTH",
"1152 558 LINE SMOOTH",
"1120 564 OFFCURVE",
"1102 558 OFFCURVE",
"1096 542 CURVE SMOOTH",
"1026 366 OFFCURVE",
"924 308 OFFCURVE",
"790 308 CURVE SMOOTH",
"628 308 OFFCURVE",
"546 424 OFFCURVE",
"546 754 CURVE SMOOTH",
"546 1080 OFFCURVE",
"642 1196 OFFCURVE",
"792 1196 CURVE SMOOTH",
"928 1196 OFFCURVE",
"982 1088 OFFCURVE",
"1006 950 CURVE",
"1386 974 LINE",
"1416 978 OFFCURVE",
"1424 988 OFFCURVE",
"1412 1044 CURVE SMOOTH",
"1360 1310 OFFCURVE",
"1118 1504 OFFCURVE",
"780 1504 CURVE SMOOTH"
);
}
);
};
guideLines = (
{
angle = -183.559;
position = "{501, 299}";
}
);
layerId = "258ED206-D907-4350-8EBA-CBDDA1C16BF7";
paths = (
{
closed = 1;
nodes = (
"360 1466 OFFCURVE",
"90 1182 OFFCURVE",
"90 742 CURVE SMOOTH",
"90 302 OFFCURVE",
"364 -20 OFFCURVE",
"782 -20 CURVE SMOOTH",
"1244 -20 OFFCURVE",
"1370 240 OFFCURVE",
"1410 540 CURVE",
"1004 540 LINE",
"982 406 OFFCURVE",
"902 292 OFFCURVE",
"768 292 CURVE SMOOTH",
"622 292 OFFCURVE",
"516 414 OFFCURVE",
"516 736 CURVE SMOOTH",
"516 1054 OFFCURVE",
"622 1154 OFFCURVE",
"768 1154 CURVE SMOOTH",
"902 1154 OFFCURVE",
"982 1070 OFFCURVE",
"1004 936 CURVE",
"1410 936 LINE",
"1378 1248 OFFCURVE",
"1126 1466 OFFCURVE",
"782 1466 CURVE SMOOTH"
);
}
);
width = 1490;
},
{
anchors = (
{
name = bottom;
position = "{720, 0}";
},
{
name = top;
position = "{706, 1446}";
}
);
background = {
anchors = (
{
name = bottom;
position = "{752, 0}";
},
{
name = top;
position = "{740, 1484}";
}
);
guideLines = (
{
angle = 90;
position = "{631, 369}";
}
);
paths = (
{
closed = 1;
nodes = (
"366 1504 OFFCURVE",
"146 1220 OFFCURVE",
"146 736 CURVE SMOOTH",
"146 254 OFFCURVE",
"366 -20 OFFCURVE",
"752 -20 CURVE SMOOTH",
"994 -20 OFFCURVE",
"1194 122 OFFCURVE",
"1264 342 CURVE SMOOTH",
"1266 350 OFFCURVE",
"1264 354 OFFCURVE",
"1260 356 CURVE SMOOTH",
"1192 376 LINE SMOOTH",
"1186 378 OFFCURVE",
"1182 376 OFFCURVE",
"1180 372 CURVE SMOOTH",
"1100 162 OFFCURVE",
"968 64 OFFCURVE",
"760 64 CURVE SMOOTH",
"414 64 OFFCURVE",
"242 306 OFFCURVE",
"242 736 CURVE SMOOTH",
"242 1182 OFFCURVE",
"418 1420 OFFCURVE",
"744 1420 CURVE SMOOTH",
"946 1420 OFFCURVE",
"1106 1294 OFFCURVE",
"1152 1104 CURVE SMOOTH",
"1154 1092 OFFCURVE",
"1158 1088 OFFCURVE",
"1166 1090 CURVE SMOOTH",
"1238 1098 LINE SMOOTH",
"1248 1098 OFFCURVE",
"1250 1102 OFFCURVE",
"1248 1112 CURVE SMOOTH",
"1224 1318 OFFCURVE",
"984 1504 OFFCURVE",
"740 1504 CURVE SMOOTH"
);
}
);
};
guideLines = (
{
angle = 90;
position = "{632, 342}";
}
);
layerId = "91AB5BCA-6A50-42DA-B2F7-8181BF189245";
paths = (
{
closed = 1;
nodes = (
"340 1466 OFFCURVE",
"140 1190 OFFCURVE",
"140 718 CURVE SMOOTH",
"140 248 OFFCURVE",
"344 -20 OFFCURVE",
"720 -20 CURVE SMOOTH",
"958 -20 OFFCURVE",
"1188 138 OFFCURVE",
"1210 346 CURVE",
"1126 368 LINE",
"1080 174 OFFCURVE",
"922 62 OFFCURVE",
"724 62 CURVE SMOOTH",
"386 62 OFFCURVE",
"228 298 OFFCURVE",
"228 718 CURVE SMOOTH",
"228 1152 OFFCURVE",
"390 1384 OFFCURVE",
"708 1384 CURVE SMOOTH",
"956 1384 OFFCURVE",
"1094 1246 OFFCURVE",
"1132 1058 CURVE",
"1218 1072 LINE",
"1194 1280 OFFCURVE",
"1000 1466 OFFCURVE",
"704 1466 CURVE SMOOTH"
);
}
);
width = 1348;
}
);
leftKerningGroup = O;
leftMetricsKey = O;
rightKerningGroup = C;
unicode = 0043;
},
{
glyphname = D;
lastChange = "2019-04-16 18:49:16 +0000";
layers = (
{
anchors = (
{
name = bottom;
position = "{710, 0}";
},
{
name = center;
position = "{748, 724}";
},
{
name = top;
position = "{748, 1446}";
}
);
background = {
anchors = (
{
name = center;
position = "{744, 742}";
},
{
name = top;
position = "{744, 1484}";
}
);
paths = (
{
closed = 1;
nodes = (
"68 0 LINE",
"652 0 LINE SMOOTH",
"1178 0 OFFCURVE",
"1444 314 OFFCURVE",
"1444 746 CURVE SMOOTH",
"1444 1168 OFFCURVE",
"1190 1462 OFFCURVE",
"654 1482 CURVE SMOOTH",
"526 1486 OFFCURVE",
"110 1484 OFFCURVE",
"68 1484 CURVE"
);
},
{
closed = 1;
nodes = (
"562 1170 LINE SMOOTH",
"866 1170 OFFCURVE",
"968 1026 OFFCURVE",
"968 752 CURVE SMOOTH",
"968 430 OFFCURVE",
"816 314 OFFCURVE",
"564 314 CURVE SMOOTH",
"522 314 LINE",
"522 1170 LINE"
);
}
);
};
layerId = "258ED206-D907-4350-8EBA-CBDDA1C16BF7";
paths = (
{
closed = 1;
nodes = (
"140 0 LINE",
"658 0 LINE SMOOTH",
"1170 0 OFFCURVE",
"1408 306 OFFCURVE",
"1408 728 CURVE SMOOTH",
"1408 1138 OFFCURVE",
"1182 1426 OFFCURVE",
"660 1444 CURVE SMOOTH",
"534 1448 OFFCURVE",
"182 1446 OFFCURVE",
"140 1446 CURVE"
);
},
{
closed = 1;
nodes = (
"670 1140 LINE SMOOTH",
"868 1140 OFFCURVE",
"1002 1000 OFFCURVE",
"1002 734 CURVE SMOOTH",
"1002 420 OFFCURVE",
"818 306 OFFCURVE",
"670 306 CURVE SMOOTH",
"530 306 LINE",
"530 1140 LINE"
);
}
);
width = 1488;
},
{
anchors = (
{
name = bottom;
position = "{704, 0}";
},
{
name = center;
position = "{652, 724}";
},
{
name = top;
position = "{640, 1446}";
}
);
background = {
anchors = (
{
name = center;
position = "{670, 742}";
},
{
name = top;
position = "{658, 1484}";
}
);
paths = (
{
closed = 1;
nodes = (
"214 0 LINE",
"436 0 LINE SMOOTH",
"980 0 OFFCURVE",
"1238 230 OFFCURVE",
"1238 752 CURVE SMOOTH",
"1238 1248 OFFCURVE",
"1014 1478 OFFCURVE",
"464 1482 CURVE SMOOTH",
"340 1482 OFFCURVE",
"218 1484 OFFCURVE",
"214 1484 CURVE"
);
},
{
closed = 1;
nodes = (
"310 1402 OFFCURVE",
"406 1402 OFFCURVE",
"442 1402 CURVE SMOOTH",
"930 1392 OFFCURVE",
"1142 1256 OFFCURVE",
"1142 744 CURVE SMOOTH",
"1142 260 OFFCURVE",
"944 80 OFFCURVE",
"428 80 CURVE SMOOTH",
"306 80 LINE",
"306 1402 LINE"
);
}
);
};
layerId = "91AB5BCA-6A50-42DA-B2F7-8181BF189245";
paths = (
{
closed = 1;
nodes = (
"210 0 LINE",
"422 0 LINE SMOOTH",
"954 0 OFFCURVE",
"1204 224 OFFCURVE",
"1204 734 CURVE SMOOTH",
"1204 1216 OFFCURVE",
"986 1442 OFFCURVE",
"450 1444 CURVE SMOOTH",
"330 1444 OFFCURVE",
"214 1446 OFFCURVE",
"210 1446 CURVE"
);
},
{
closed = 1;
nodes = (
"428 1364 LINE SMOOTH",
"870 1364 OFFCURVE",
"1120 1224 OFFCURVE",
"1120 726 CURVE SMOOTH",
"1120 254 OFFCURVE",
"884 82 OFFCURVE",
"416 82 CURVE SMOOTH",
"296 82 LINE",
"296 1364 LINE"
);
}
);
width = 1334;
}
);
leftKerningGroup = N;
leftMetricsKey = N;
rightKerningGroup = O;
unicode = 0044;
},
{
glyphname = Eth;
lastChange = "2019-04-16 18:49:16 +0000";
layers = (
{
background = {
components = (
{
name = D;
transform = "{1, 0, 0, 1, 43, 0}";
}
);
paths = (
{
closed = 1;
nodes = (
"866 830 OFFCURVE",
"852 846 OFFCURVE",
"830 846 CURVE SMOOTH",
"108 846 LINE SMOOTH",
"84 846 OFFCURVE",
"70 830 OFFCURVE",
"70 802 CURVE SMOOTH",
"70 620 LINE SMOOTH",
"70 586 OFFCURVE",
"82 572 OFFCURVE",
"122 572 CURVE SMOOTH",
"802 572 LINE SMOOTH",
"846 572 OFFCURVE",
"866 586 OFFCURVE",
"866 626 CURVE SMOOTH",
"866 808 LINE SMOOTH"
);
}
);
};
components = (
{
name = D;
transform = "{1, 0, 0, 1, 86, 0}";
}
);
layerId = "258ED206-D907-4350-8EBA-CBDDA1C16BF7";
paths = (
{
closed = 1;
nodes = (
"70 846 LINE",
"70 572 LINE",
"866 572 LINE",
"866 846 LINE"
);
}
);
width = 1574;
},
{
background = {
components = (
{
name = D;
transform = "{1, 0, 0, 1, -2, 0}";
}
);
paths = (
{
closed = 1;
nodes = (
"668 764 OFFCURVE",
"664 770 OFFCURVE",
"656 770 CURVE SMOOTH",
"84 770 LINE SMOOTH",
"74 770 OFFCURVE",
"70 764 OFFCURVE",
"70 752 CURVE SMOOTH",
"70 708 LINE SMOOTH",
"70 694 OFFCURVE",
"74 688 OFFCURVE",
"90 688 CURVE SMOOTH",
"644 688 LINE SMOOTH",
"662 688 OFFCURVE",
"668 694 OFFCURVE",
"668 710 CURVE SMOOTH",
"668 754 LINE SMOOTH"
);
}
);
};
components = (
{
name = D;
transform = "{1, 0, 0, 1, -4, 0}";
}
);
layerId = "91AB5BCA-6A50-42DA-B2F7-8181BF189245";
paths = (
{
closed = 1;
nodes = (
"70 770 LINE",
"70 688 LINE",
"668 688 LINE",
"668 770 LINE"
);
}
);
width = 1330;
}
);
leftKerningGroup = N;
rightKerningGroup = O;
rightMetricsKey = D;
unicode = 00D0;
},
{
glyphname = E;
lastChange = "2019-04-16 18:49:16 +0000";
layers = (
{
anchors = (
{
name = bottom;
position = "{674, 0}";
},
{
name = ogonek;
position = "{1208, 20}";
},
{
name = top;
position = "{674, 1446}";
}
);
background = {
anchors = (
{
name = bottom;
position = "{668, 0}";
},
{
name = ogonek;
position = "{1216, 20}";
},
{
name = top;
position = "{668, 1484}";
}
);
paths = (
{
closed = 1;
nodes = (
"100 50 LINE SMOOTH",
"100 16 OFFCURVE",
"114 0 OFFCURVE",
"154 0 CURVE SMOOTH",
"1224 0 LINE SMOOTH",
"1258 0 OFFCURVE",
"1272 20 OFFCURVE",
"1272 44 CURVE SMOOTH",
"1272 290 LINE SMOOTH",
"1272 318 OFFCURVE",
"1256 328 OFFCURVE",
"1228 328 CURVE SMOOTH",
"578 328 LINE SMOOTH",
"560 328 OFFCURVE",
"554 334 OFFCURVE",
"554 356 CURVE SMOOTH",
"554 556 LINE SMOOTH",
"554 572 OFFCURVE",
"566 584 OFFCURVE",
"586 584 CURVE SMOOTH",
"956 584 LINE SMOOTH",
"982 584 OFFCURVE",
"992 600 OFFCURVE",
"992 618 CURVE SMOOTH",
"992 866 LINE SMOOTH",
"992 892 OFFCURVE",
"978 906 OFFCURVE",
"950 906 CURVE SMOOTH",
"590 906 LINE SMOOTH",
"570 906 OFFCURVE",
"554 920 OFFCURVE",
"554 948 CURVE SMOOTH",
"554 1118 LINE SMOOTH",
"554 1144 OFFCURVE",
"570 1156 OFFCURVE",
"600 1156 CURVE SMOOTH",
"1200 1156 LINE SMOOTH",
"1236 1156 OFFCURVE",
"1252 1178 OFFCURVE",
"1252 1210 CURVE SMOOTH",
"1254 1442 LINE SMOOTH",
"1254 1468 OFFCURVE",
"1242 1484 OFFCURVE",
"1218 1484 CURVE SMOOTH",
"138 1484 LINE SMOOTH",
"114 1484 OFFCURVE",
"100 1468 OFFCURVE",
"100 1438 CURVE SMOOTH"
);
}
);
};
layerId = "258ED206-D907-4350-8EBA-CBDDA1C16BF7";
paths = (
{
closed = 1;
nodes = (
"1210 0 LINE",
"1210 324 LINE",
"530 324 LINE",
"530 570 LINE",
"1096 570 LINE",
"1096 884 LINE",
"532 884 LINE",
"532 1124 LINE",
"1206 1124 LINE",
"1208 1446 LINE",
"140 1446 LINE",
"140 0 LINE"
);
}
);
width = 1320;
},
{
anchors = (
{
name = bottom;
position = "{684, 0}";
},
{
name = ogonek;
position = "{1058, 20}";
},
{
name = top;
position = "{630, 1446}";
}
);
background = {
anchors = (
{
name = bottom;
position = "{710, 0}";
},
{
name = ogonek;
position = "{1080, 20}";
},
{
name = top;
position = "{672, 1484}";
}
);
paths = (
{
closed = 1;
nodes = (
"210 20 LINE SMOOTH",
"210 4 OFFCURVE",
"214 0 OFFCURVE",
"228 0 CURVE SMOOTH",
"1088 0 LINE SMOOTH",
"1098 0 OFFCURVE",
"1102 4 OFFCURVE",
"1102 14 CURVE SMOOTH",
"1102 66 LINE SMOOTH",
"1102 78 OFFCURVE",
"1098 80 OFFCURVE",
"1086 80 CURVE SMOOTH",
"320 80 LINE SMOOTH",
"306 80 OFFCURVE",
"302 82 OFFCURVE",
"302 98 CURVE SMOOTH",
"302 692 LINE SMOOTH",
"302 708 OFFCURVE",
"306 710 OFFCURVE",
"320 710 CURVE SMOOTH",
"896 710 LINE SMOOTH",
"908 710 OFFCURVE",
"912 712 OFFCURVE",
"912 724 CURVE SMOOTH",
"912 776 LINE SMOOTH",
"912 786 OFFCURVE",
"908 790 OFFCURVE",
"898 790 CURVE SMOOTH",
"320 790 LINE SMOOTH",
"306 790 OFFCURVE",
"302 792 OFFCURVE",
"302 804 CURVE SMOOTH",
"302 1386 LINE SMOOTH",
"302 1402 OFFCURVE",
"306 1404 OFFCURVE",
"320 1404 CURVE SMOOTH",
"1056 1404 LINE SMOOTH",
"1068 1404 OFFCURVE",
"1072 1406 OFFCURVE",
"1072 1418 CURVE SMOOTH",
"1072 1470 LINE SMOOTH",
"1072 1480 OFFCURVE",
"1068 1484 OFFCURVE",
"1058 1484 CURVE SMOOTH",
"228 1484 LINE SMOOTH",
"214 1484 OFFCURVE",
"210 1480 OFFCURVE",
"210 1464 CURVE SMOOTH"
);
}
);
};
layerId = "91AB5BCA-6A50-42DA-B2F7-8181BF189245";
paths = (
{
closed = 1;
nodes = (
"1068 0 LINE",
"1068 82 LINE",
"288 84 LINE",
"288 690 LINE",
"988 690 LINE",
"988 772 LINE",
"288 772 LINE",
"288 1366 LINE",
"1040 1366 LINE",
"1040 1446 LINE",
"210 1446 LINE",
"210 0 LINE"
);
}
);
width = 1208;
}
);
leftKerningGroup = N;
leftMetricsKey = N;
rightKerningGroup = E;
unicode = 0045;
},
{
glyphname = F;
lastChange = "2019-04-16 18:49:16 +0000";
layers = (
{
background = {
paths = (
{
closed = 1;
nodes = (
"68 50 LINE SMOOTH",
"68 16 OFFCURVE",
"80 0 OFFCURVE",
"122 0 CURVE",
"456 0 LINE SMOOTH",
"502 0 OFFCURVE",
"522 16 OFFCURVE",
"522 58 CURVE SMOOTH",
"522 542 LINE SMOOTH",
"522 560 OFFCURVE",
"534 572 OFFCURVE",
"554 572 CURVE SMOOTH",
"928 572 LINE SMOOTH",
"956 572 OFFCURVE",
"964 586 OFFCURVE",
"964 606 CURVE SMOOTH",
"964 850 LINE SMOOTH",
"964 876 OFFCURVE",
"952 890 OFFCURVE",
"924 890 CURVE SMOOTH",
"558 890 LINE SMOOTH",
"536 890 OFFCURVE",
"522 902 OFFCURVE",
"522 930 CURVE SMOOTH",
"522 1118 LINE SMOOTH",
"522 1144 OFFCURVE",
"536 1156 OFFCURVE",
"568 1156 CURVE SMOOTH",
"1156 1156 LINE SMOOTH",
"1192 1156 OFFCURVE",
"1206 1178 OFFCURVE",
"1206 1210 CURVE SMOOTH",
"1208 1442 LINE SMOOTH",
"1208 1468 OFFCURVE",
"1196 1484 OFFCURVE",
"1172 1484 CURVE SMOOTH",
"106 1484 LINE SMOOTH",
"84 1484 OFFCURVE",
"68 1468 OFFCURVE",
"68 1438 CURVE SMOOTH"
);
}
);
};
layerId = "258ED206-D907-4350-8EBA-CBDDA1C16BF7";
paths = (
{
closed = 1;
nodes = (
"140 0 LINE",
"530 0 LINE",
"530 558 LINE",
"1088 558 LINE",
"1088 868 LINE",
"530 868 LINE",
"530 1128 LINE",
"1198 1128 LINE",
"1200 1446 LINE",
"140 1446 LINE"
);
}
);
width = 1260;
},
{
background = {
paths = (
{
closed = 1;
nodes = (
"218 20 LINE SMOOTH",
"218 4 OFFCURVE",
"222 0 OFFCURVE",
"236 0 CURVE SMOOTH",
"296 0 LINE SMOOTH",
"306 0 OFFCURVE",
"310 4 OFFCURVE",
"310 14 CURVE SMOOTH",
"310 666 LINE SMOOTH",
"310 682 OFFCURVE",
"314 684 OFFCURVE",
"328 684 CURVE SMOOTH",
"924 684 LINE SMOOTH",
"936 684 OFFCURVE",
"940 686 OFFCURVE",
"940 698 CURVE SMOOTH",
"940 750 LINE SMOOTH",
"940 760 OFFCURVE",
"936 764 OFFCURVE",
"926 764 CURVE SMOOTH",
"328 764 LINE SMOOTH",
"314 764 OFFCURVE",
"310 766 OFFCURVE",
"310 778 CURVE SMOOTH",
"310 1386 LINE SMOOTH",
"310 1402 OFFCURVE",
"314 1404 OFFCURVE",
"328 1404 CURVE SMOOTH",
"1044 1404 LINE SMOOTH",
"1056 1404 OFFCURVE",
"1060 1406 OFFCURVE",
"1060 1418 CURVE SMOOTH",
"1060 1470 LINE SMOOTH",
"1060 1480 OFFCURVE",
"1056 1484 OFFCURVE",
"1046 1484 CURVE SMOOTH",
"236 1484 LINE SMOOTH",
"222 1484 OFFCURVE",
"218 1480 OFFCURVE",
"218 1464 CURVE SMOOTH"
);
}
);
};
layerId = "91AB5BCA-6A50-42DA-B2F7-8181BF189245";
paths = (
{
closed = 1;
nodes = (
"210 0 LINE",
"296 0 LINE",
"296 692 LINE",
"976 692 LINE",
"976 774 LINE",
"296 774 LINE",
"296 1366 LINE",
"1028 1366 LINE",
"1028 1446 LINE",
"210 1446 LINE"
);
}
);
width = 1118;
}
);
leftKerningGroup = N;
leftMetricsKey = N;
rightKerningGroup = E;
unicode = 0046;
},
{
glyphname = G;
lastChange = "2019-04-16 18:49:16 +0000";
layers = (
{
anchors = (
{
name = bottom;
position = "{778, 0}";
},
{
name = top;
position = "{786, 1446}";
}
);
background = {
anchors = (
{
name = bottom;
position = "{774, 0}";
},
{
name = top;
position = "{774, 1484}";
}
);
paths = (
{
closed = 1;
nodes = (
"1006 -20 OFFCURVE",
"1108 80 OFFCURVE",
"1180 150 CURVE SMOOTH",
"1190 162 OFFCURVE",
"1196 162 OFFCURVE",
"1202 154 CURVE SMOOTH",
"1282 38 LINE SMOOTH",
"1302 10 OFFCURVE",
"1322 0 OFFCURVE",
"1346 0 CURVE SMOOTH",
"1422 0 LINE SMOOTH",
"1442 0 OFFCURVE",
"1456 16 OFFCURVE",
"1456 34 CURVE SMOOTH",
"1456 688 LINE SMOOTH",
"1456 724 OFFCURVE",
"1430 750 OFFCURVE",
"1380 750 CURVE SMOOTH",
"820 754 LINE SMOOTH",
"790 754 OFFCURVE",
"778 740 OFFCURVE",
"778 720 CURVE SMOOTH",
"778 528 LINE SMOOTH",
"778 494 OFFCURVE",
"790 484 OFFCURVE",
"818 484 CURVE SMOOTH",
"1006 484 LINE SMOOTH",
"1026 484 OFFCURVE",
"1032 472 OFFCURVE",
"1024 450 CURVE",
"1018 432 LINE",
"982 340 OFFCURVE",
"914 292 OFFCURVE",
"802 292 CURVE SMOOTH",
"650 292 OFFCURVE",
"546 386 OFFCURVE",
"546 748 CURVE SMOOTH",
"546 1088 OFFCURVE",
"638 1194 OFFCURVE",
"786 1194 CURVE SMOOTH",
"930 1194 OFFCURVE",
"1000 1094 OFFCURVE",
"1020 984 CURVE SMOOTH",
"1026 958 OFFCURVE",
"1028 944 OFFCURVE",
"1060 944 CURVE SMOOTH",
"1402 996 LINE SMOOTH",
"1434 1000 OFFCURVE",
"1442 1010 OFFCURVE",
"1430 1066 CURVE SMOOTH",
"1382 1280 OFFCURVE",
"1156 1504 OFFCURVE",
"796 1504 CURVE SMOOTH",
"368 1504 OFFCURVE",
"70 1198 OFFCURVE",
"70 736 CURVE SMOOTH",
"70 290 OFFCURVE",
"348 -20 OFFCURVE",
"770 -20 CURVE SMOOTH"
);
}
);
};
layerId = "258ED206-D907-4350-8EBA-CBDDA1C16BF7";
paths = (
{
closed = 1;
nodes = (
"1012 -20 OFFCURVE",
"1114 86 OFFCURVE",
"1186 160 CURVE",
"1186 0 LINE",
"1442 0 LINE",
"1442 764 LINE",
"780 768 LINE",
"780 506 LINE",
"1032 506 LINE",
"1014 454 LINE",
"994 388 OFFCURVE",
"914 318 OFFCURVE",
"804 318 CURVE SMOOTH",
"680 318 OFFCURVE",
"514 376 OFFCURVE",
"514 730 CURVE SMOOTH",
"514 1042 OFFCURVE",
"644 1144 OFFCURVE",
"788 1144 CURVE SMOOTH",
"924 1144 OFFCURVE",
"998 1054 OFFCURVE",
"1024 936 CURVE",
"1430 936 LINE",
"1426 1206 OFFCURVE",
"1186 1466 OFFCURVE",
"798 1466 CURVE SMOOTH",
"382 1466 OFFCURVE",
"90 1168 OFFCURVE",
"90 718 CURVE SMOOTH",
"90 282 OFFCURVE",
"362 -20 OFFCURVE",
"774 -20 CURVE SMOOTH"
);
}
);
width = 1572;
},
{
anchors = (
{
name = bottom;
position = "{716, 0}";
},
{
name = top;
position = "{718, 1446}";
}
);
background = {
anchors = (
{
name = bottom;
position = "{748, 0}";
},
{
name = top;
position = "{738, 1484}";
}
);
paths = (
{
closed = 1;
nodes = (
"958 -20 OFFCURVE",
"1104 90 OFFCURVE",
"1182 230 CURVE SMOOTH",
"1190 244 OFFCURVE",
"1198 242 OFFCURVE",
"1198 230 CURVE SMOOTH",
"1198 18 LINE SMOOTH",
"1198 0 OFFCURVE",
"1208 0 OFFCURVE",
"1224 0 CURVE SMOOTH",
"1258 0 LINE SMOOTH",
"1272 0 OFFCURVE",
"1278 4 OFFCURVE",
"1278 22 CURVE SMOOTH",
"1278 742 LINE SMOOTH",
"1278 750 OFFCURVE",
"1274 754 OFFCURVE",
"1266 754 CURVE SMOOTH",
"794 754 LINE SMOOTH",
"788 754 OFFCURVE",
"784 750 OFFCURVE",
"784 742 CURVE SMOOTH",
"784 696 LINE SMOOTH",
"784 688 OFFCURVE",
"788 684 OFFCURVE",
"798 684 CURVE SMOOTH",
"1176 684 LINE SMOOTH",
"1188 684 OFFCURVE",
"1198 682 OFFCURVE",
"1198 668 CURVE SMOOTH",
"1198 510 LINE SMOOTH",
"1198 322 OFFCURVE",
"1054 64 OFFCURVE",
"738 64 CURVE SMOOTH",
"412 64 OFFCURVE",
"242 306 OFFCURVE",
"242 748 CURVE SMOOTH",
"242 1168 OFFCURVE",
"416 1420 OFFCURVE",
"738 1420 CURVE SMOOTH",
"950 1420 OFFCURVE",
"1120 1280 OFFCURVE",
"1152 1102 CURVE SMOOTH",
"1154 1092 OFFCURVE",
"1160 1088 OFFCURVE",
"1166 1090 CURVE SMOOTH",
"1236 1102 LINE SMOOTH",
"1246 1104 OFFCURVE",
"1246 1110 OFFCURVE",
"1246 1118 CURVE SMOOTH",
"1222 1326 OFFCURVE",
"984 1504 OFFCURVE",
"738 1504 CURVE SMOOTH",
"376 1504 OFFCURVE",
"146 1228 OFFCURVE",
"146 736 CURVE SMOOTH",
"146 258 OFFCURVE",
"366 -20 OFFCURVE",
"736 -20 CURVE SMOOTH"
);
}
);
};
layerId = "91AB5BCA-6A50-42DA-B2F7-8181BF189245";
paths = (
{
closed = 1;
nodes = (
"940 -20 OFFCURVE",
"1088 100 OFFCURVE",
"1166 252 CURVE",
"1166 0 LINE",
"1244 0 LINE",
"1244 736 LINE",
"762 736 LINE",
"762 666 LINE",
"1166 666 LINE",
"1166 498 LINE SMOOTH",
"1166 314 OFFCURVE",
"1026 58 OFFCURVE",
"718 58 CURVE SMOOTH",
"400 58 OFFCURVE",
"222 298 OFFCURVE",
"222 730 CURVE SMOOTH",
"222 1138 OFFCURVE",
"404 1384 OFFCURVE",
"718 1384 CURVE SMOOTH",
"926 1384 OFFCURVE",
"1092 1242 OFFCURVE",
"1122 1060 CURVE",
"1214 1076 LINE",
"1192 1288 OFFCURVE",
"958 1466 OFFCURVE",
"718 1466 CURVE SMOOTH",
"364 1466 OFFCURVE",
"140 1198 OFFCURVE",
"140 718 CURVE SMOOTH",
"140 252 OFFCURVE",
"354 -20 OFFCURVE",
"716 -20 CURVE SMOOTH"
);
}
);
width = 1424;
}
);
leftKerningGroup = O;
leftMetricsKey = O;
rightKerningGroup = G;
unicode = 0047;
},
{
glyphname = H;
lastChange = "2019-04-16 18:49:16 +0000";
layers = (
{
anchors = (
{
name = bottom;
position = "{740, 0}";
},
{
name = top;
position = "{748, 1446}";
}
);
background = {
anchors = (
{
name = bottom;
position = "{736, 0}";
},
{
name = top;
position = "{740, 1484}";
}
);
paths = (
{
closed = 1;
nodes = (
"934 594 OFFCURVE",
"946 580 OFFCURVE",
"946 564 CURVE SMOOTH",
"946 58 LINE SMOOTH",
"946 16 OFFCURVE",
"966 0 OFFCURVE",
"1012 0 CURVE SMOOTH",
"1346 0 LINE SMOOTH",
"1388 0 OFFCURVE",
"1400 16 OFFCURVE",
"1400 50 CURVE SMOOTH",
"1400 1438 LINE SMOOTH",
"1400 1468 OFFCURVE",
"1384 1484 OFFCURVE",
"1362 1484 CURVE SMOOTH",
"982 1484 LINE SMOOTH",
"960 1484 OFFCURVE",
"946 1468 OFFCURVE",
"946 1442 CURVE SMOOTH",
"946 978 LINE SMOOTH",
"946 952 OFFCURVE",
"932 938 OFFCURVE",
"910 938 CURVE SMOOTH",
"574 938 LINE SMOOTH",
"552 938 OFFCURVE",
"538 952 OFFCURVE",
"538 978 CURVE SMOOTH",
"538 1442 LINE SMOOTH",
"538 1468 OFFCURVE",
"524 1484 OFFCURVE",
"502 1484 CURVE SMOOTH",
"122 1484 LINE SMOOTH",
"100 1484 OFFCURVE",
"84 1468 OFFCURVE",
"84 1438 CURVE SMOOTH",
"84 50 LINE SMOOTH",
"84 16 OFFCURVE",
"96 0 OFFCURVE",
"138 0 CURVE SMOOTH",
"472 0 LINE SMOOTH",
"518 0 OFFCURVE",
"538 16 OFFCURVE",
"538 58 CURVE SMOOTH",
"538 564 LINE SMOOTH",
"538 580 OFFCURVE",
"550 594 OFFCURVE",
"570 594 CURVE SMOOTH",
"914 594 LINE SMOOTH"
);
}
);
};
layerId = "258ED206-D907-4350-8EBA-CBDDA1C16BF7";
paths = (
{
closed = 1;
nodes = (
"968 0 LINE",
"1358 0 LINE",
"1358 1446 LINE",
"968 1446 LINE",
"968 898 LINE",
"530 898 LINE",
"530 1446 LINE",
"140 1446 LINE",
"140 0 LINE",
"530 0 LINE",
"530 580 LINE",
"968 580 LINE"
);
}
);
width = 1498;
},
{
anchors = (
{
name = bottom;
position = "{688, 0}";
},
{
name = top;
position = "{688, 1446}";
}
);
background = {
anchors = (
{
name = bottom;
position = "{708, 0}";
},
{
name = top;
position = "{708, 1484}";
}
);
paths = (
{
closed = 1;
nodes = (
"1108 732 OFFCURVE",
"1112 728 OFFCURVE",
"1112 718 CURVE SMOOTH",
"1112 18 LINE SMOOTH",
"1112 4 OFFCURVE",
"1118 0 OFFCURVE",
"1132 0 CURVE SMOOTH",
"1186 0 LINE SMOOTH",
"1198 0 OFFCURVE",
"1204 6 OFFCURVE",
"1204 20 CURVE SMOOTH",
"1204 1464 LINE SMOOTH",
"1204 1480 OFFCURVE",
"1200 1484 OFFCURVE",
"1186 1484 CURVE SMOOTH",
"1128 1484 LINE SMOOTH",
"1116 1484 OFFCURVE",
"1112 1478 OFFCURVE",
"1112 1466 CURVE SMOOTH",
"1112 828 LINE SMOOTH",
"1112 816 OFFCURVE",
"1108 812 OFFCURVE",
"1096 812 CURVE SMOOTH",
"320 812 LINE SMOOTH",
"306 812 OFFCURVE",
"302 814 OFFCURVE",
"302 830 CURVE SMOOTH",
"302 1464 LINE SMOOTH",
"302 1480 OFFCURVE",
"298 1484 OFFCURVE",
"284 1484 CURVE SMOOTH",
"228 1484 LINE SMOOTH",
"214 1484 OFFCURVE",
"210 1480 OFFCURVE",
"210 1464 CURVE SMOOTH",
"210 20 LINE SMOOTH",
"210 6 OFFCURVE",
"214 0 OFFCURVE",
"228 0 CURVE SMOOTH",
"282 0 LINE SMOOTH",
"296 0 OFFCURVE",
"302 6 OFFCURVE",
"302 18 CURVE SMOOTH",
"302 720 LINE SMOOTH",
"302 726 OFFCURVE",
"306 732 OFFCURVE",
"314 732 CURVE SMOOTH",
"1098 732 LINE SMOOTH"
);
}
);
};
layerId = "91AB5BCA-6A50-42DA-B2F7-8181BF189245";
paths = (
{
closed = 1;
nodes = (
"1086 0 LINE",
"1164 0 LINE",
"1164 1446 LINE",
"1086 1446 LINE",
"1086 794 LINE",
"288 794 LINE",
"288 1446 LINE",
"210 1446 LINE",
"210 0 LINE",
"288 0 LINE",
"288 712 LINE",
"1086 712 LINE"
);
}
);
width = 1364;
}
);
leftKerningGroup = N;
leftMetricsKey = N;
rightKerningGroup = N;
rightMetricsKey = N;
unicode = 0048;
},
{
glyphname = Hbar;
lastChange = "2019-04-16 18:49:16 +0000";
layers = (
{
background = {
components = (
{
name = H;
transform = "{1, 0, 0, 1, 45, 0}";
}
);
paths = (
{
closed = 1;
nodes = (
"1576 1270 OFFCURVE",
"1564 1284 OFFCURVE",
"1544 1284 CURVE SMOOTH",
"48 1284 LINE SMOOTH",
"30 1284 OFFCURVE",
"18 1270 OFFCURVE",
"18 1244 CURVE SMOOTH",
"18 1126 LINE SMOOTH",
"18 1096 OFFCURVE",
"28 1082 OFFCURVE",
"60 1082 CURVE SMOOTH",
"1520 1082 LINE SMOOTH",
"1558 1082 OFFCURVE",
"1576 1096 OFFCURVE",
"1576 1130 CURVE SMOOTH",
"1576 1248 LINE SMOOTH"
);
}
);
};
components = (
{
name = H;
transform = "{1, 0, 0, 1, 90, 0}";
}
);
layerId = "258ED206-D907-4350-8EBA-CBDDA1C16BF7";
paths = (
{
closed = 1;
nodes = (
"40 1284 LINE",
"40 1082 LINE",
"1598 1082 LINE",
"1598 1284 LINE"
);
}
);
width = 1638;
},
{
background = {
components = (
{
name = H;
transform = "{1, 0, 0, 1, 1, 0}";
}
);
paths = (
{
closed = 1;
nodes = (
"1378 1200 OFFCURVE",
"1374 1206 OFFCURVE",
"1366 1206 CURVE SMOOTH",
"34 1206 LINE SMOOTH",
"24 1206 OFFCURVE",
"20 1200 OFFCURVE",
"20 1188 CURVE SMOOTH",
"20 1146 LINE SMOOTH",
"20 1132 OFFCURVE",
"24 1128 OFFCURVE",
"40 1128 CURVE SMOOTH",
"1354 1128 LINE SMOOTH",
"1372 1128 OFFCURVE",
"1378 1132 OFFCURVE",
"1378 1148 CURVE SMOOTH",
"1378 1190 LINE SMOOTH"
);
}
);
};
components = (
{
name = H;
transform = "{1, 0, 0, 1, 2, 0}";
}
);
layerId = "91AB5BCA-6A50-42DA-B2F7-8181BF189245";
paths = (
{
closed = 1;
nodes = (
"20 1206 LINE",
"20 1128 LINE",
"1378 1128 LINE",
"1378 1206 LINE"
);
}
);
width = 1398;
}
);
leftKerningGroup = N;
rightKerningGroup = N;
unicode = 0126;
},
{
glyphname = I;
lastChange = "2019-04-16 18:49:16 +0000";
layers = (
{
anchors = (
{
name = bottom;
position = "{356, 0}";
},
{
name = ogonek;
position = "{482, 6}";
},
{
name = top;
position = "{336, 1446}";
}
);
background = {
anchors = (
{
name = bottom;
position = "{348, 0}";
},
{
name = ogonek;
position = "{512, 20}";
},
{
name = top;
position = "{350, 1484}";
}
);
paths = (
{
closed = 1;
nodes = (
"138 1484 OFFCURVE",
"122 1468 OFFCURVE",
"122 1438 CURVE SMOOTH",
"122 50 LINE SMOOTH",
"122 16 OFFCURVE",
"134 0 OFFCURVE",
"176 0 CURVE SMOOTH",
"510 0 LINE SMOOTH",
"556 0 OFFCURVE",
"576 16 OFFCURVE",
"576 58 CURVE SMOOTH",
"576 1442 LINE SMOOTH",
"576 1468 OFFCURVE",
"564 1484 OFFCURVE",
"540 1484 CURVE SMOOTH",
"160 1484 LINE SMOOTH"
);
}
);
};
layerId = "258ED206-D907-4350-8EBA-CBDDA1C16BF7";
paths = (
{
closed = 1;
nodes = (
"140 0 LINE",
"530 0 LINE",
"530 1446 LINE",
"140 1446 LINE"
);
}
);
width = 670;
},
{
anchors = (
{
name = bottom;
position = "{252, 0}";
},
{
name = ogonek;
position = "{278, 20}";
},
{
name = top;
position = "{250, 1446}";
}
);
background = {
anchors = (
{
name = bottom;
position = "{260, 0}";
},
{
name = ogonek;
position = "{284, 20}";
},
{
name = top;
position = "{266, 1484}";
}
);
paths = (
{
closed = 1;
nodes = (
"218 1484 OFFCURVE",
"214 1480 OFFCURVE",
"214 1464 CURVE SMOOTH",
"214 20 LINE SMOOTH",
"214 4 OFFCURVE",
"218 0 OFFCURVE",
"236 0 CURVE SMOOTH",
"282 0 LINE SMOOTH",
"302 0 OFFCURVE",
"306 4 OFFCURVE",
"306 24 CURVE SMOOTH",
"306 1464 LINE SMOOTH",
"306 1480 OFFCURVE",
"302 1484 OFFCURVE",
"288 1484 CURVE SMOOTH",
"232 1484 LINE SMOOTH"
);
}
);
};
layerId = "91AB5BCA-6A50-42DA-B2F7-8181BF189245";
paths = (
{
closed = 1;
nodes = (
"210 0 LINE",
"288 0 LINE",
"288 1446 LINE",
"210 1446 LINE"
);
}
);
width = 488;
}
);
leftKerningGroup = N;
leftMetricsKey = N;
rightKerningGroup = N;
rightMetricsKey = N;
unicode = 0049;
},
{
glyphname = J;
lastChange = "2019-04-16 18:49:16 +0000";
layers = (
{
anchors = (
{
name = top;
position = "{536, 1446}";
}
);
background = {
anchors = (
{
name = top;
position = "{436, 1484}";
}
);
paths = (
{
closed = 1;
nodes = (
"790 1442 LINE SMOOTH",
"790 1468 OFFCURVE",
"778 1484 OFFCURVE",
"754 1484 CURVE SMOOTH",
"376 1484 LINE SMOOTH",
"352 1484 OFFCURVE",
"336 1468 OFFCURVE",
"336 1438 CURVE SMOOTH",
"336 536 LINE SMOOTH",
"336 400 OFFCURVE",
"278 350 OFFCURVE",
"180 350 CURVE SMOOTH",
"136 350 OFFCURVE",
"102 360 OFFCURVE",
"70 364 CURVE SMOOTH",
"38 368 OFFCURVE",
"24 348 OFFCURVE",
"22 318 CURVE SMOOTH",
"4 90 LINE SMOOTH",
"0 34 OFFCURVE",
"20 12 OFFCURVE",
"66 4 CURVE SMOOTH",
"156 -12 OFFCURVE",
"232 -20 OFFCURVE",
"314 -20 CURVE SMOOTH",
"626 -20 OFFCURVE",
"790 96 OFFCURVE",
"790 424 CURVE SMOOTH"
);
}
);
};
layerId = "258ED206-D907-4350-8EBA-CBDDA1C16BF7";
paths = (
{
closed = 1;
nodes = (
"740 1446 LINE",
"350 1446 LINE",
"350 558 LINE SMOOTH",
"350 408 OFFCURVE",
"316 340 OFFCURVE",
"178 340 CURVE SMOOTH",
"136 340 OFFCURVE",
"86 346 OFFCURVE",
"50 350 CURVE",
"50 0 LINE",
"110 -12 OFFCURVE",
"230 -20 OFFCURVE",
"312 -20 CURVE SMOOTH",
"662 -20 OFFCURVE",
"740 138 OFFCURVE",
"740 458 CURVE SMOOTH"
);
}
);
width = 850;
},
{
anchors = (
{
name = top;
position = "{474, 1446}";
}
);
background = {
anchors = (
{
name = top;
position = "{494, 1484}";
}
);
paths = (
{
closed = 1;
nodes = (
"540 1464 LINE SMOOTH",
"540 1478 OFFCURVE",
"536 1484 OFFCURVE",
"524 1484 CURVE SMOOTH",
"464 1484 LINE SMOOTH",
"452 1484 OFFCURVE",
"448 1478 OFFCURVE",
"448 1466 CURVE SMOOTH",
"448 308 LINE SMOOTH",
"448 122 OFFCURVE",
"404 68 OFFCURVE",
"274 68 CURVE SMOOTH",
"176 68 OFFCURVE",
"132 98 OFFCURVE",
"90 118 CURVE SMOOTH",
"82 122 OFFCURVE",
"76 120 OFFCURVE",
"74 110 CURVE SMOOTH",
"56 48 LINE SMOOTH",
"54 40 OFFCURVE",
"58 34 OFFCURVE",
"64 30 CURVE SMOOTH",
"78 20 OFFCURVE",
"168 -20 OFFCURVE",
"278 -20 CURVE SMOOTH",
"472 -20 OFFCURVE",
"540 98 OFFCURVE",
"540 288 CURVE SMOOTH"
);
}
);
};
layerId = "91AB5BCA-6A50-42DA-B2F7-8181BF189245";
paths = (
{
closed = 1;
nodes = (
"514 1446 LINE",
"436 1446 LINE",
"436 308 LINE SMOOTH",
"436 126 OFFCURVE",
"392 62 OFFCURVE",
"266 62 CURVE SMOOTH",
"164 62 OFFCURVE",
"114 104 OFFCURVE",
"70 124 CURVE",
"50 38 LINE",
"64 26 OFFCURVE",
"156 -20 OFFCURVE",
"270 -20 CURVE SMOOTH",
"458 -20 OFFCURVE",
"514 96 OFFCURVE",
"514 280 CURVE SMOOTH"
);
}
);
width = 724;
}
);
leftKerningGroup = J;
rightKerningGroup = N;
rightMetricsKey = U;
unicode = 004A;
},
{
glyphname = K;
lastChange = "2019-04-16 18:49:16 +0000";
layers = (
{
anchors = (
{
name = bottom;
position = "{724, 0}";
},
{
name = top;
position = "{750, 1446}";
}
);
background = {
anchors = (
{
name = bottom;
position = "{720, 0}";
},
{
name = top;
position = "{720, 1484}";
}
);
paths = (
{
closed = 1;
nodes = (
"1032 960 LINE SMOOTH",
"1020 988 OFFCURVE",
"1022 1002 OFFCURVE",
"1038 1024 CURVE SMOOTH",
"1366 1426 LINE SMOOTH",
"1392 1456 OFFCURVE",
"1368 1484 OFFCURVE",
"1324 1484 CURVE SMOOTH",
"1020 1484 LINE SMOOTH",
"972 1484 OFFCURVE",
"956 1472 OFFCURVE",
"934 1442 CURVE SMOOTH",
"566 926 LINE",
"550 906 OFFCURVE",
"536 904 OFFCURVE",
"536 936 CURVE SMOOTH",
"536 1442 LINE SMOOTH",
"536 1468 OFFCURVE",
"524 1484 OFFCURVE",
"500 1484 CURVE SMOOTH",
"120 1484 LINE SMOOTH",
"98 1484 OFFCURVE",
"82 1468 OFFCURVE",
"82 1438 CURVE SMOOTH",
"82 50 LINE SMOOTH",
"82 16 OFFCURVE",
"94 0 OFFCURVE",
"136 0 CURVE SMOOTH",
"470 0 LINE SMOOTH",
"516 0 OFFCURVE",
"536 16 OFFCURVE",
"536 58 CURVE SMOOTH",
"536 360 LINE SMOOTH",
"536 380 OFFCURVE",
"538 392 OFFCURVE",
"548 404 CURVE SMOOTH",
"690 586 LINE SMOOTH",
"710 612 OFFCURVE",
"722 616 OFFCURVE",
"734 596 CURVE SMOOTH",
"978 40 LINE SMOOTH",
"992 10 OFFCURVE",
"1016 0 OFFCURVE",
"1050 0 CURVE SMOOTH",
"1440 0 LINE SMOOTH",
"1480 0 OFFCURVE",
"1484 30 OFFCURVE",
"1468 62 CURVE SMOOTH"
);
}
);
};
guideLines = (
{
angle = 54.4985;
position = "{674, 670}";
},
{
angle = -62.8805;
position = "{361, 283}";
}
);
hints = (
{
horizontal = 1;
origin = "{0, 6}";
target = up;
type = BottomGhost;
},
{
horizontal = 1;
origin = "{0, 5}";
target = down;
type = TopGhost;
},
{
place = "{164, 442}";
type = Stem;
}
);
layerId = "258ED206-D907-4350-8EBA-CBDDA1C16BF7";
paths = (
{
closed = 1;
nodes = (
"1002 894 LINE",
"1400 1446 LINE",
"962 1446 LINE",
"544 862 LINE",
"544 1446 LINE",
"140 1446 LINE",
"140 0 LINE",
"544 0 LINE",
"544 378 LINE",
"724 610 LINE",
"1046 0 LINE",
"1464 0 LINE"
);
}
);
width = 1504;
},
{
anchors = (
{
name = bottom;
position = "{654, 0}";
},
{
name = top;
position = "{688, 1446}";
}
);
background = {
anchors = (
{
name = bottom;
position = "{676, 0}";
},
{
name = top;
position = "{736, 1484}";
}
);
paths = (
{
closed = 1;
nodes = (
"676 890 LINE SMOOTH",
"672 898 OFFCURVE",
"672 898 OFFCURVE",
"676 902 CURVE SMOOTH",
"1194 1468 LINE SMOOTH",
"1202 1476 OFFCURVE",
"1200 1484 OFFCURVE",
"1188 1484 CURVE SMOOTH",
"1112 1484 LINE SMOOTH",
"1100 1484 OFFCURVE",
"1096 1482 OFFCURVE",
"1090 1476 CURVE SMOOTH",
"324 644 LINE SMOOTH",
"314 634 OFFCURVE",
"310 634 OFFCURVE",
"310 646 CURVE SMOOTH",
"310 1468 LINE SMOOTH",
"310 1480 OFFCURVE",
"304 1484 OFFCURVE",
"294 1484 CURVE SMOOTH",
"234 1484 LINE SMOOTH",
"222 1484 OFFCURVE",
"218 1478 OFFCURVE",
"218 1468 CURVE SMOOTH",
"218 18 LINE SMOOTH",
"218 4 OFFCURVE",
"224 0 OFFCURVE",
"238 0 CURVE SMOOTH",
"290 0 LINE SMOOTH",
"304 0 OFFCURVE",
"310 6 OFFCURVE",
"310 18 CURVE SMOOTH",
"310 492 LINE SMOOTH",
"310 508 OFFCURVE",
"314 514 OFFCURVE",
"326 526 CURVE SMOOTH",
"590 818 LINE SMOOTH",
"600 828 OFFCURVE",
"606 830 OFFCURVE",
"614 818 CURVE SMOOTH",
"1130 10 LINE SMOOTH",
"1134 4 OFFCURVE",
"1142 0 OFFCURVE",
"1152 0 CURVE SMOOTH",
"1230 0 LINE SMOOTH",
"1238 0 OFFCURVE",
"1242 6 OFFCURVE",
"1236 14 CURVE SMOOTH"
);
}
);
};
layerId = "91AB5BCA-6A50-42DA-B2F7-8181BF189245";
paths = (
{
closed = 1;
nodes = (
"646 876 LINE",
"1168 1446 LINE",
"1060 1446 LINE",
"292 612 LINE",
"292 1446 LINE",
"210 1446 LINE",
"210 0 LINE",
"292 0 LINE",
"292 496 LINE",
"578 814 LINE",
"1098 0 LINE",
"1202 0 LINE"
);
}
);
width = 1282;
}
);
leftKerningGroup = N;
leftMetricsKey = N;
rightKerningGroup = K;
unicode = 004B;
},
{
glyphname = L;
lastChange = "2019-04-16 18:49:16 +0000";
layers = (
{
anchors = (
{
name = bottom;
position = "{618, 0}";
},
{
name = top;
position = "{326, 1446}";
},
{
name = topright;
position = "{982, 1446}";
}
);
background = {
anchors = (
{
name = bottom;
position = "{612, 0}";
},
{
name = top;
position = "{320, 1484}";
},
{
name = topright;
position = "{1004, 1484}";
}
);
paths = (
{
closed = 1;
nodes = (
"88 50 LINE SMOOTH",
"88 16 OFFCURVE",
"100 0 OFFCURVE",
"142 0 CURVE SMOOTH",
"1164 0 LINE SMOOTH",
"1198 0 OFFCURVE",
"1214 20 OFFCURVE",
"1214 44 CURVE SMOOTH",
"1214 290 LINE SMOOTH",
"1214 318 OFFCURVE",
"1196 328 OFFCURVE",
"1168 328 CURVE SMOOTH",
"566 328 LINE SMOOTH",
"548 328 OFFCURVE",
"542 334 OFFCURVE",
"542 356 CURVE SMOOTH",
"542 1442 LINE SMOOTH",
"542 1468 OFFCURVE",
"530 1484 OFFCURVE",
"506 1484 CURVE SMOOTH",
"126 1484 LINE SMOOTH",
"104 1484 OFFCURVE",
"88 1468 OFFCURVE",
"88 1438 CURVE SMOOTH"
);
}
);
};
layerId = "258ED206-D907-4350-8EBA-CBDDA1C16BF7";
paths = (
{
closed = 1;
nodes = (
"140 0 LINE",
"1108 0 LINE",
"1108 320 LINE",
"530 320 LINE",
"530 1446 LINE",
"140 1446 LINE"
);
}
);
width = 1158;
},
{
anchors = (
{
name = bottom;
position = "{610, 0}";
},
{
name = top;
position = "{256, 1446}";
},
{
name = topright;
position = "{810, 1446}";
}
);
background = {
anchors = (
{
name = bottom;
position = "{628, 0}";
},
{
name = top;
position = "{264, 1484}";
},
{
name = topright;
position = "{836, 1484}";
}
);
paths = (
{
closed = 1;
nodes = (
"218 20 LINE SMOOTH",
"218 6 OFFCURVE",
"222 0 OFFCURVE",
"236 0 CURVE",
"1056 0 LINE",
"1066 0 OFFCURVE",
"1070 4 OFFCURVE",
"1070 14 CURVE SMOOTH",
"1070 66 LINE SMOOTH",
"1070 78 OFFCURVE",
"1066 80 OFFCURVE",
"1054 80 CURVE SMOOTH",
"328 80 LINE SMOOTH",
"314 80 OFFCURVE",
"310 82 OFFCURVE",
"310 98 CURVE SMOOTH",
"310 1464 LINE SMOOTH",
"310 1480 OFFCURVE",
"306 1484 OFFCURVE",
"292 1484 CURVE SMOOTH",
"236 1484 LINE SMOOTH",
"222 1484 OFFCURVE",
"218 1480 OFFCURVE",
"218 1464 CURVE SMOOTH"
);
}
);
};
layerId = "91AB5BCA-6A50-42DA-B2F7-8181BF189245";
paths = (
{
closed = 1;
nodes = (
"210 0 LINE",
"1034 0 LINE",
"1034 86 LINE",
"296 86 LINE",
"296 1446 LINE",
"212 1446 LINE"
);
}
);
width = 1104;
}
);
leftKerningGroup = N;
leftMetricsKey = N;
rightKerningGroup = L;
unicode = 004C;
},
{
glyphname = Lslash;
lastChange = "2019-04-16 18:49:16 +0000";
layers = (
{
background = {
components = (
{
name = L;
transform = "{1, 0, 0, 1, 20, 0}";
}
);
paths = (
{
closed = 1;
nodes = (
"874 1072 OFFCURVE",
"860 1086 OFFCURVE",
"826 1076 CURVE SMOOTH",
"38 866 LINE SMOOTH",
"14 860 OFFCURVE",
"0 850 OFFCURVE",
"0 820 CURVE SMOOTH",
"0 586 LINE SMOOTH",
"0 554 OFFCURVE",
"12 540 OFFCURVE",
"50 552 CURVE SMOOTH",
"834 774 LINE SMOOTH",
"862 782 OFFCURVE",
"874 798 OFFCURVE",
"874 820 CURVE SMOOTH",
"874 1042 LINE SMOOTH"
);
}
);
};
components = (
{
name = L;
transform = "{1, 0, 0, 1, 40, 0}";
}
);
layerId = "258ED206-D907-4350-8EBA-CBDDA1C16BF7";
paths = (
{
closed = 1;
nodes = (
"0 856 LINE",
"0 538 LINE",
"874 786 LINE",
"874 1088 LINE"
);
}
);
width = 1198;
},
{
background = {
components = (
{
name = L;
transform = "{1, 0, 0, 1, -5, 0}";
}
);
paths = (
{
closed = 1;
nodes = (
"634 850 OFFCURVE",
"630 854 OFFCURVE",
"620 852 CURVE SMOOTH",
"70 712 LINE SMOOTH",
"64 710 OFFCURVE",
"60 704 OFFCURVE",
"60 694 CURVE SMOOTH",
"60 648 LINE SMOOTH",
"60 638 OFFCURVE",
"64 636 OFFCURVE",
"74 638 CURVE SMOOTH",
"622 780 LINE SMOOTH",
"630 782 OFFCURVE",
"634 788 OFFCURVE",
"634 796 CURVE SMOOTH",
"634 842 LINE SMOOTH"
);
}
);
};
components = (
{
name = L;
transform = "{1, 0, 0, 1, -10, 0}";
}
);
layerId = "91AB5BCA-6A50-42DA-B2F7-8181BF189245";
paths = (
{
closed = 1;
nodes = (
"60 710 LINE",
"60 634 LINE",
"634 784 LINE",
"634 856 LINE"
);
}
);
width = 1094;
}
);
leftKerningGroup = N;
rightKerningGroup = L;
rightMetricsKey = L;
unicode = 0141;
},
{
glyphname = M;
lastChange = "2019-04-16 18:49:16 +0000";
layers = (
{
background = {
paths = (
{
closed = 1;
nodes = (
"430 0 LINE SMOOTH",
"466 0 OFFCURVE",
"474 8 OFFCURVE",
"474 44 CURVE SMOOTH",
"474 928 LINE SMOOTH",
"474 954 OFFCURVE",
"488 962 OFFCURVE",
"498 930 CURVE SMOOTH",
"786 36 LINE SMOOTH",
"794 12 OFFCURVE",
"810 0 OFFCURVE",
"834 0 CURVE SMOOTH",
"1044 0 LINE SMOOTH",
"1066 0 OFFCURVE",
"1084 14 OFFCURVE",
"1092 36 CURVE SMOOTH",
"1380 946 LINE SMOOTH",
"1388 970 OFFCURVE",
"1404 970 OFFCURVE",
"1404 948 CURVE SMOOTH",
"1404 50 LINE SMOOTH",
"1404 16 OFFCURVE",
"1416 0 OFFCURVE",
"1456 0 CURVE SMOOTH",
"1794 0 LINE SMOOTH",
"1840 0 OFFCURVE",
"1858 16 OFFCURVE",
"1858 58 CURVE SMOOTH",
"1858 1442 LINE SMOOTH",
"1858 1468 OFFCURVE",
"1846 1484 OFFCURVE",
"1822 1484 CURVE SMOOTH",
"1244 1484 LINE SMOOTH",
"1216 1484 OFFCURVE",
"1200 1462 OFFCURVE",
"1190 1426 CURVE SMOOTH",
"1004 812 LINE SMOOTH",
"998 794 OFFCURVE",
"986 790 OFFCURVE",
"978 812 CURVE SMOOTH",
"770 1448 LINE SMOOTH",
"760 1476 OFFCURVE",
"748 1484 OFFCURVE",
"714 1484 CURVE SMOOTH",
"154 1484 LINE SMOOTH",
"124 1484 OFFCURVE",
"112 1470 OFFCURVE",
"112 1438 CURVE SMOOTH",
"112 56 LINE SMOOTH",
"112 22 OFFCURVE",
"132 0 OFFCURVE",
"164 0 CURVE SMOOTH"
);
}
);
};
guideLines = (
{
angle = -105;
position = "{466, 261}";
},
{
angle = 105;
position = "{466, 261}";
}
);
layerId = "258ED206-D907-4350-8EBA-CBDDA1C16BF7";
paths = (
{
closed = 1;
nodes = (
"530 0 LINE",
"530 1048 LINE",
"812 0 LINE",
"1092 0 LINE",
"1374 1048 LINE",
"1374 0 LINE",
"1764 0 LINE",
"1764 1446 LINE",
"1188 1446 LINE",
"952 564 LINE",
"718 1446 LINE",
"140 1446 LINE",
"140 0 LINE"
);
}
);
width = 1904;
},
{
background = {
guideLines = (
{
position = "{34, 566}";
showMeasurement = 1;
}
);
paths = (
{
closed = 1;
nodes = (
"278 0 LINE SMOOTH",
"292 0 OFFCURVE",
"298 6 OFFCURVE",
"298 18 CURVE SMOOTH",
"298 1244 LINE SMOOTH",
"298 1252 OFFCURVE",
"302 1250 OFFCURVE",
"304 1244 CURVE SMOOTH",
"792 20 LINE SMOOTH",
"798 6 OFFCURVE",
"808 0 OFFCURVE",
"830 0 CURVE SMOOTH",
"884 0 LINE SMOOTH",
"902 0 OFFCURVE",
"910 6 OFFCURVE",
"916 22 CURVE SMOOTH",
"1414 1254 LINE SMOOTH",
"1416 1260 OFFCURVE",
"1420 1264 OFFCURVE",
"1420 1254 CURVE SMOOTH",
"1420 18 LINE SMOOTH",
"1420 4 OFFCURVE",
"1426 0 OFFCURVE",
"1440 0 CURVE SMOOTH",
"1494 0 LINE SMOOTH",
"1506 0 OFFCURVE",
"1512 6 OFFCURVE",
"1512 20 CURVE SMOOTH",
"1512 1464 LINE SMOOTH",
"1512 1480 OFFCURVE",
"1508 1484 OFFCURVE",
"1494 1484 CURVE SMOOTH",
"1436 1484 LINE SMOOTH",
"1424 1484 OFFCURVE",
"1418 1480 OFFCURVE",
"1414 1470 CURVE SMOOTH",
"872 130 LINE SMOOTH",
"860 102 OFFCURVE",
"850 102 OFFCURVE",
"840 128 CURVE SMOOTH",
"306 1468 LINE",
"302 1480 OFFCURVE",
"296 1484 OFFCURVE",
"280 1484 CURVE SMOOTH",
"228 1484 LINE SMOOTH",
"214 1484 OFFCURVE",
"210 1480 OFFCURVE",
"210 1464 CURVE SMOOTH",
"210 20 LINE SMOOTH",
"210 6 OFFCURVE",
"214 0 OFFCURVE",
"228 0 CURVE SMOOTH"
);
}
);
};
guideLines = (
{
position = "{105, 525}";
showMeasurement = 1;
},
{
angle = 68.255;
position = "{387, 0}";
}
);
layerId = "91AB5BCA-6A50-42DA-B2F7-8181BF189245";
paths = (
{
closed = 1;
nodes = (
"296 0 LINE",
"296 1216 LINE",
"782 0 LINE",
"898 0 LINE",
"1390 1232 LINE",
"1390 0 LINE",
"1476 0 LINE",
"1476 1446 LINE",
"1390 1446 LINE",
"840 88 LINE",
"298 1446 LINE",
"210 1446 LINE",
"210 0 LINE"
);
}
);
width = 1676;
}
);
leftKerningGroup = N;
leftMetricsKey = N;
rightKerningGroup = N;
rightMetricsKey = N;
unicode = 004D;
},
{
glyphname = N;
lastChange = "2019-04-16 18:49:16 +0000";
layers = (
{
anchors = (
{
name = bottom;
position = "{812, 0}";
},
{
name = top;
position = "{812, 1446}";
}
);
background = {
anchors = (
{
name = bottom;
position = "{810, 0}";
},
{
name = top;
position = "{810, 1484}";
}
);
paths = (
{
closed = 1;
nodes = (
"1116 1484 OFFCURVE",
"1102 1468 OFFCURVE",
"1102 1442 CURVE SMOOTH",
"1102 788 LINE SMOOTH",
"1102 756 OFFCURVE",
"1088 756 OFFCURVE",
"1070 780 CURVE SMOOTH",
"590 1448 LINE SMOOTH",
"568 1478 OFFCURVE",
"556 1484 OFFCURVE",
"522 1484 CURVE SMOOTH",
"196 1484 LINE SMOOTH",
"166 1484 OFFCURVE",
"152 1470 OFFCURVE",
"152 1438 CURVE SMOOTH",
"152 40 LINE SMOOTH",
"152 10 OFFCURVE",
"172 0 OFFCURVE",
"202 0 CURVE SMOOTH",
"474 0 LINE SMOOTH",
"510 0 OFFCURVE",
"524 12 OFFCURVE",
"522 44 CURVE SMOOTH",
"522 772 LINE SMOOTH",
"522 786 OFFCURVE",
"532 790 OFFCURVE",
"542 776 CURVE SMOOTH",
"1092 30 LINE SMOOTH",
"1112 4 OFFCURVE",
"1124 0 OFFCURVE",
"1146 0 CURVE SMOOTH",
"1420 0 LINE SMOOTH",
"1446 0 OFFCURVE",
"1466 14 OFFCURVE",
"1466 36 CURVE SMOOTH",
"1466 1450 LINE SMOOTH",
"1466 1472 OFFCURVE",
"1456 1484 OFFCURVE",
"1436 1484 CURVE SMOOTH",
"1146 1484 LINE SMOOTH"
);
}
);
};
guideLines = (
{
angle = 125.0467;
position = "{533, 296}";
}
);
layerId = "258ED206-D907-4350-8EBA-CBDDA1C16BF7";
paths = (
{
closed = 1;
nodes = (
"1096 640 LINE",
"532 1446 LINE",
"140 1446 LINE",
"140 0 LINE",
"530 0 LINE",
"530 862 LINE",
"1134 0 LINE",
"1486 0 LINE",
"1486 1446 LINE",
"1096 1446 LINE"
);
}
);
width = 1626;
},
{
anchors = (
{
name = bottom;
position = "{668, 0}";
},
{
name = top;
position = "{716, 1446}";
}
);
background = {
anchors = (
{
name = bottom;
position = "{700, 0}";
},
{
name = top;
position = "{770, 1484}";
}
);
guideLines = (
{
position = "{39, 576}";
showMeasurement = 1;
}
);
paths = (
{
closed = 1;
nodes = (
"1180 1484 OFFCURVE",
"1176 1478 OFFCURVE",
"1176 1466 CURVE SMOOTH",
"1176 214 LINE SMOOTH",
"1176 202 OFFCURVE",
"1162 190 OFFCURVE",
"1148 210 CURVE SMOOTH",
"294 1470 LINE SMOOTH",
"286 1482 OFFCURVE",
"280 1484 OFFCURVE",
"264 1484 CURVE SMOOTH",
"228 1484 LINE",
"214 1484 OFFCURVE",
"210 1480 OFFCURVE",
"210 1464 CURVE SMOOTH",
"210 20 LINE SMOOTH",
"210 6 OFFCURVE",
"214 0 OFFCURVE",
"228 0 CURVE SMOOTH",
"278 0 LINE SMOOTH",
"292 0 OFFCURVE",
"298 6 OFFCURVE",
"298 18 CURVE SMOOTH",
"298 1274 LINE SMOOTH",
"298 1290 OFFCURVE",
"308 1294 OFFCURVE",
"322 1274 CURVE SMOOTH",
"1178 12 LINE SMOOTH",
"1188 -2 OFFCURVE",
"1200 0 OFFCURVE",
"1216 0 CURVE SMOOTH",
"1246 0 LINE SMOOTH",
"1258 0 OFFCURVE",
"1264 6 OFFCURVE",
"1264 20 CURVE SMOOTH",
"1264 1464 LINE SMOOTH",
"1264 1480 OFFCURVE",
"1260 1484 OFFCURVE",
"1246 1484 CURVE SMOOTH",
"1192 1484 LINE SMOOTH"
);
}
);
};
guideLines = (
{
position = "{110, 534}";
showMeasurement = 1;
},
{
angle = 123.9688;
position = "{112, 610}";
}
);
layerId = "91AB5BCA-6A50-42DA-B2F7-8181BF189245";
paths = (
{
closed = 1;
nodes = (
"1144 156 LINE",
"274 1446 LINE",
"210 1446 LINE",
"210 0 LINE",
"288 0 LINE",
"288 1286 LINE",
"1154 0 LINE",
"1222 0 LINE",
"1222 1446 LINE",
"1144 1446 LINE"
);
}
);
width = 1422;
}
);
leftKerningGroup = N;
rightKerningGroup = N;
unicode = 004E;
},
{
glyphname = Eng;
lastChange = "2019-04-16 18:49:16 +0000";
layers = (
{
background = {
paths = (
{
closed = 1;
nodes = (
"1114 1484 LINE SMOOTH",
"1084 1484 OFFCURVE",
"1070 1468 OFFCURVE",
"1070 1442 CURVE SMOOTH",
"1070 868 LINE SMOOTH",
"1070 836 OFFCURVE",
"1056 836 OFFCURVE",
"1038 860 CURVE",
"558 1448 LINE SMOOTH",
"534 1478 OFFCURVE",
"524 1484 OFFCURVE",
"490 1484 CURVE SMOOTH",
"164 1484 LINE SMOOTH",
"134 1484 OFFCURVE",
"120 1470 OFFCURVE",
"120 1438 CURVE SMOOTH",
"120 40 LINE SMOOTH",
"120 10 OFFCURVE",
"140 0 OFFCURVE",
"170 0 CURVE SMOOTH",
"442 0 LINE SMOOTH",
"478 0 OFFCURVE",
"492 12 OFFCURVE",
"490 44 CURVE",
"490 772 LINE",
"490 786 OFFCURVE",
"498 790 OFFCURVE",
"510 776 CURVE SMOOTH",
"990 194 LINE",
"990 176 LINE SMOOTH",
"984 62 OFFCURVE",
"924 20 OFFCURVE",
"834 20 CURVE SMOOTH",
"790 20 OFFCURVE",
"744 30 OFFCURVE",
"712 34 CURVE SMOOTH",
"680 38 OFFCURVE",
"666 18 OFFCURVE",
"664 -12 CURVE SMOOTH",
"646 -240 LINE SMOOTH",
"642 -296 OFFCURVE",
"662 -318 OFFCURVE",
"708 -326 CURVE SMOOTH",
"798 -342 OFFCURVE",
"886 -350 OFFCURVE",
"968 -350 CURVE SMOOTH",
"1272 -350 OFFCURVE",
"1434 -228 OFFCURVE",
"1434 94 CURVE SMOOTH",
"1434 1450 LINE SMOOTH",
"1434 1472 OFFCURVE",
"1424 1484 OFFCURVE",
"1404 1484 CURVE SMOOTH"
);
}
);
};
components = (
{
name = N;
},
{
alignment = -1;
name = "_j-hook";
transform = "{1, 0, 0, 1, 744, -460}";
}
);
layerId = "258ED206-D907-4350-8EBA-CBDDA1C16BF7";
width = 1626;
},
{
background = {
paths = (
{
closed = 1;
nodes = (
"1206 1484 LINE SMOOTH",
"1194 1484 OFFCURVE",
"1190 1478 OFFCURVE",
"1190 1466 CURVE SMOOTH",
"1190 214 LINE SMOOTH",
"1190 202 OFFCURVE",
"1176 188 OFFCURVE",
"1162 208 CURVE SMOOTH",
"310 1470 LINE SMOOTH",
"302 1482 OFFCURVE",
"296 1484 OFFCURVE",
"282 1484 CURVE SMOOTH",
"240 1484 LINE SMOOTH",
"226 1484 OFFCURVE",
"222 1480 OFFCURVE",
"222 1464 CURVE SMOOTH",
"222 20 LINE SMOOTH",
"222 6 OFFCURVE",
"226 0 OFFCURVE",
"240 0 CURVE SMOOTH",
"290 0 LINE SMOOTH",
"304 0 OFFCURVE",
"310 6 OFFCURVE",
"310 18 CURVE SMOOTH",
"310 1280 LINE SMOOTH",
"310 1296 OFFCURVE",
"314 1300 OFFCURVE",
"328 1280 CURVE SMOOTH",
"1184 24 LINE",
"1184 -82 LINE SMOOTH",
"1184 -224 OFFCURVE",
"1122 -270 OFFCURVE",
"1014 -270 CURVE SMOOTH",
"954 -270 OFFCURVE",
"906 -256 OFFCURVE",
"874 -244 CURVE SMOOTH",
"864 -240 OFFCURVE",
"860 -242 OFFCURVE",
"858 -252 CURVE",
"852 -302 LINE",
"852 -310 OFFCURVE",
"854 -316 OFFCURVE",
"860 -320 CURVE SMOOTH",
"874 -330 OFFCURVE",
"940 -350 OFFCURVE",
"1022 -350 CURVE SMOOTH",
"1210 -350 OFFCURVE",
"1276 -248 OFFCURVE",
"1276 -92 CURVE SMOOTH",
"1276 1464 LINE SMOOTH",
"1276 1480 OFFCURVE",
"1272 1484 OFFCURVE",
"1258 1484 CURVE SMOOTH"
);
}
);
};
components = (
{
name = N;
},
{
alignment = -1;
name = "_j-hook";
transform = "{1, 0, 0, 1, 716, -460}";
}
);
layerId = "91AB5BCA-6A50-42DA-B2F7-8181BF189245";
width = 1426;
}
);
leftKerningGroup = N;
leftMetricsKey = N;
rightKerningGroup = N;
rightMetricsKey = N;
unicode = 014A;
},
{
glyphname = O;
lastChange = "2019-04-16 18:49:16 +0000";
layers = (
{
anchors = (
{
name = bottom;
position = "{794, 0}";
},
{
name = horn;
position = "{1280, 1094}";
},
{
name = ogonek;
position = "{972, 20}";
},
{
name = top;
position = "{790, 1446}";
}
);
background = {
anchors = (
{
name = bottom;
position = "{792, 0}";
},
{
name = ogonek;
position = "{974, 20}";
},
{
name = top;
position = "{788, 1484}";
}
);
paths = (
{
closed = 1;
nodes = (
"1226 -20 OFFCURVE",
"1506 278 OFFCURVE",
"1506 738 CURVE SMOOTH",
"1506 1202 OFFCURVE",
"1220 1504 OFFCURVE",
"790 1504 CURVE SMOOTH",
"356 1504 OFFCURVE",
"70 1202 OFFCURVE",
"70 738 CURVE SMOOTH",
"70 276 OFFCURVE",
"348 -20 OFFCURVE",
"790 -20 CURVE SMOOTH"
);
},
{
closed = 1;
nodes = (
"612 292 OFFCURVE",
"546 412 OFFCURVE",
"546 732 CURVE SMOOTH",
"546 1062 OFFCURVE",
"616 1196 OFFCURVE",
"790 1196 CURVE SMOOTH",
"960 1196 OFFCURVE",
"1030 1062 OFFCURVE",
"1030 732 CURVE SMOOTH",
"1030 412 OFFCURVE",
"964 292 OFFCURVE",
"790 292 CURVE SMOOTH"
);
}
);
};
guideLines = (
{
angle = 90;
position = "{-508, 389}";
}
);
layerId = "258ED206-D907-4350-8EBA-CBDDA1C16BF7";
paths = (
{
closed = 1;
nodes = (
"1218 -20 OFFCURVE",
"1490 272 OFFCURVE",
"1490 720 CURVE SMOOTH",
"1490 1172 OFFCURVE",
"1212 1466 OFFCURVE",
"792 1466 CURVE SMOOTH",
"370 1466 OFFCURVE",
"90 1172 OFFCURVE",
"90 720 CURVE SMOOTH",
"90 270 OFFCURVE",
"362 -20 OFFCURVE",
"792 -20 CURVE SMOOTH"
);
},
{
closed = 1;
nodes = (
"632 292 OFFCURVE",
"514 402 OFFCURVE",
"514 714 CURVE SMOOTH",
"514 1036 OFFCURVE",
"632 1154 OFFCURVE",
"792 1154 CURVE SMOOTH",
"952 1154 OFFCURVE",
"1068 1036 OFFCURVE",
"1068 714 CURVE SMOOTH",
"1068 402 OFFCURVE",
"952 292 OFFCURVE",
"792 292 CURVE SMOOTH"
);
}
);
width = 1580;
},
{
anchors = (
{
name = bottom;
position = "{732, 0}";
},
{
name = horn;
position = "{1108, 1212}";
},
{
name = ogonek;
position = "{868, 18}";
},
{
name = top;
position = "{732, 1446}";
}
);
background = {
anchors = (
{
name = bottom;
position = "{752, 0}";
},
{
name = ogonek;
position = "{892, 18}";
},
{
name = top;
position = "{752, 1484}";
}
);
paths = (
{
closed = 1;
nodes = (
"1124 -20 OFFCURVE",
"1350 244 OFFCURVE",
"1350 738 CURVE SMOOTH",
"1350 1236 OFFCURVE",
"1124 1504 OFFCURVE",
"750 1504 CURVE SMOOTH",
"374 1504 OFFCURVE",
"146 1234 OFFCURVE",
"146 734 CURVE SMOOTH",
"146 242 OFFCURVE",
"370 -20 OFFCURVE",
"748 -20 CURVE SMOOTH"
);
},
{
closed = 1;
nodes = (
"420 64 OFFCURVE",
"242 286 OFFCURVE",
"242 738 CURVE SMOOTH",
"242 1194 OFFCURVE",
"420 1420 OFFCURVE",
"750 1420 CURVE SMOOTH",
"1078 1420 OFFCURVE",
"1254 1196 OFFCURVE",
"1254 738 CURVE SMOOTH",
"1254 284 OFFCURVE",
"1082 64 OFFCURVE",
"752 64 CURVE SMOOTH"
);
}
);
};
guideLines = (
{
angle = 90;
position = "{-435, 400}";
},
{
angle = 90;
position = "{408, 593}";
}
);
layerId = "91AB5BCA-6A50-42DA-B2F7-8181BF189245";
paths = (
{
closed = 1;
nodes = (
"1094 -20 OFFCURVE",
"1314 238 OFFCURVE",
"1314 720 CURVE SMOOTH",
"1314 1206 OFFCURVE",
"1094 1466 OFFCURVE",
"730 1466 CURVE SMOOTH",
"362 1466 OFFCURVE",
"140 1204 OFFCURVE",
"140 716 CURVE SMOOTH",
"140 236 OFFCURVE",
"360 -20 OFFCURVE",
"728 -20 CURVE SMOOTH"
);
},
{
closed = 1;
nodes = (
"408 62 OFFCURVE",
"228 278 OFFCURVE",
"228 720 CURVE SMOOTH",
"228 1164 OFFCURVE",
"408 1384 OFFCURVE",
"730 1384 CURVE SMOOTH",
"1050 1384 OFFCURVE",
"1226 1166 OFFCURVE",
"1226 720 CURVE SMOOTH",
"1226 276 OFFCURVE",
"1054 62 OFFCURVE",
"732 62 CURVE SMOOTH"
);
}
);
width = 1454;
}
);
leftKerningGroup = O;
rightKerningGroup = O;
unicode = 004F;
},
{
glyphname = Oslash;
lastChange = "2019-04-16 18:49:16 +0000";
layers = (
{
anchors = (
{
name = top;
position = "{788, 1446}";
}
);
background = {
anchors = (
{
name = top;
position = "{788, 1446}";
}
);
paths = (
{
closed = 1;
nodes = (
"1430 1446 LINE SMOOTH",
"1414 1462 OFFCURVE",
"1390 1458 OFFCURVE",
"1370 1438 CURVE SMOOTH",
"1242 1314 LINE",
"1126 1412 OFFCURVE",
"972 1466 OFFCURVE",
"790 1466 CURVE SMOOTH",
"366 1466 OFFCURVE",
"88 1172 OFFCURVE",
"88 720 CURVE SMOOTH",
"88 552 OFFCURVE",
"126 408 OFFCURVE",
"194 292 CURVE",
"62 164 LINE SMOOTH",
"40 140 OFFCURVE",
"42 120 OFFCURVE",
"70 92 CURVE SMOOTH",
"146 14 LINE SMOOTH",
"178 -18 OFFCURVE",
"202 -16 OFFCURVE",
"230 14 CURVE SMOOTH",
"342 122 LINE",
"458 32 OFFCURVE",
"610 -20 OFFCURVE",
"790 -20 CURVE SMOOTH",
"1216 -20 OFFCURVE",
"1488 272 OFFCURVE",
"1488 720 CURVE SMOOTH",
"1488 884 OFFCURVE",
"1452 1026 OFFCURVE",
"1384 1140 CURVE",
"1532 1286 LINE",
"1552 1302 OFFCURVE",
"1550 1322 OFFCURVE",
"1534 1338 CURVE SMOOTH"
);
},
{
closed = 1;
nodes = (
"552 1036 OFFCURVE",
"620 1166 OFFCURVE",
"790 1166 CURVE SMOOTH",
"876 1166 OFFCURVE",
"936 1132 OFFCURVE",
"974 1052 CURVE",
"554 642 LINE",
"552 666 OFFCURVE",
"552 690 OFFCURVE",
"552 714 CURVE"
);
},
{
closed = 1;
nodes = (
"1024 402 OFFCURVE",
"960 284 OFFCURVE",
"790 284 CURVE SMOOTH",
"704 284 OFFCURVE",
"644 314 OFFCURVE",
"606 380 CURVE",
"1022 788 LINE",
"1024 762 OFFCURVE",
"1024 740 OFFCURVE",
"1024 714 CURVE SMOOTH"
);
}
);
};
layerId = "258ED206-D907-4350-8EBA-CBDDA1C16BF7";
paths = (
{
closed = 1;
nodes = (
"342 122 LINE",
"458 32 OFFCURVE",
"610 -20 OFFCURVE",
"790 -20 CURVE SMOOTH",
"1216 -20 OFFCURVE",
"1488 272 OFFCURVE",
"1488 720 CURVE SMOOTH",
"1488 884 OFFCURVE",
"1452 1026 OFFCURVE",
"1384 1140 CURVE",
"1558 1312 LINE",
"1406 1472 LINE",
"1242 1314 LINE",
"1126 1412 OFFCURVE",
"972 1466 OFFCURVE",
"790 1466 CURVE SMOOTH",
"366 1466 OFFCURVE",
"88 1172 OFFCURVE",
"88 720 CURVE SMOOTH",
"88 552 OFFCURVE",
"126 408 OFFCURVE",
"194 292 CURVE",
"30 134 LINE",
"186 -28 LINE"
);
},
{
closed = 1;
nodes = (
"704 284 OFFCURVE",
"644 314 OFFCURVE",
"606 380 CURVE",
"1024 790 LINE",
"1024 670 OFFCURVE",
"1018 576 OFFCURVE",
"1002 502 CURVE SMOOTH",
"972 348 OFFCURVE",
"904 284 OFFCURVE",
"790 284 CURVE SMOOTH"
);
},
{
closed = 1;
nodes = (
"552 740 OFFCURVE",
"556 824 OFFCURVE",
"568 894 CURVE SMOOTH",
"596 1084 OFFCURVE",
"666 1166 OFFCURVE",
"790 1166 CURVE SMOOTH",
"876 1166 OFFCURVE",
"936 1132 OFFCURVE",
"974 1052 CURVE",
"552 640 LINE"
);
}
);
width = 1598;
},
{
anchors = (
{
name = top;
position = "{726, 1446}";
}
);
background = {
anchors = (
{
name = top;
position = "{726, 1446}";
}
);
paths = (
{
closed = 1;
nodes = (
"1318 1460 LINE",
"1310 1468 OFFCURVE",
"1302 1464 OFFCURVE",
"1294 1454 CURVE",
"1148 1286 LINE",
"1046 1404 OFFCURVE",
"904 1466 OFFCURVE",
"726 1466 CURVE SMOOTH",
"360 1466 OFFCURVE",
"138 1204 OFFCURVE",
"138 716 CURVE SMOOTH",
"138 518 OFFCURVE",
"174 358 OFFCURVE",
"244 240 CURVE",
"80 50 LINE",
"72 40 OFFCURVE",
"74 36 OFFCURVE",
"88 22 CURVE SMOOTH",
"122 -10 LINE",
"138 -22 OFFCURVE",
"148 -22 OFFCURVE",
"158 -6 CURVE",
"302 158 LINE",
"400 40 OFFCURVE",
"544 -20 OFFCURVE",
"724 -20 CURVE SMOOTH",
"1090 -20 OFFCURVE",
"1312 238 OFFCURVE",
"1312 720 CURVE SMOOTH",
"1312 920 OFFCURVE",
"1274 1082 OFFCURVE",
"1204 1204 CURVE",
"1370 1396 LINE",
"1376 1404 OFFCURVE",
"1374 1412 OFFCURVE",
"1368 1418 CURVE"
);
},
{
closed = 1;
nodes = (
"236 1164 OFFCURVE",
"404 1382 OFFCURVE",
"726 1382 CURVE SMOOTH",
"886 1382 OFFCURVE",
"1006 1328 OFFCURVE",
"1088 1218 CURVE",
"308 314 LINE",
"260 418 OFFCURVE",
"236 552 OFFCURVE",
"236 720 CURVE SMOOTH"
);
},
{
closed = 1;
nodes = (
"1212 276 OFFCURVE",
"1050 64 OFFCURVE",
"728 64 CURVE SMOOTH",
"566 64 OFFCURVE",
"444 118 OFFCURVE",
"360 228 CURVE",
"1140 1132 LINE",
"1188 1026 OFFCURVE",
"1212 890 OFFCURVE",
"1212 720 CURVE SMOOTH"
);
}
);
};
layerId = "91AB5BCA-6A50-42DA-B2F7-8181BF189245";
paths = (
{
closed = 1;
nodes = (
"302 158 LINE",
"400 40 OFFCURVE",
"544 -20 OFFCURVE",
"724 -20 CURVE SMOOTH",
"1090 -20 OFFCURVE",
"1312 238 OFFCURVE",
"1312 720 CURVE SMOOTH",
"1312 920 OFFCURVE",
"1274 1082 OFFCURVE",
"1204 1204 CURVE",
"1380 1408 LINE",
"1308 1470 LINE",
"1148 1286 LINE",
"1046 1404 OFFCURVE",
"904 1466 OFFCURVE",
"726 1466 CURVE SMOOTH",
"360 1466 OFFCURVE",
"138 1204 OFFCURVE",
"138 716 CURVE SMOOTH",
"138 518 OFFCURVE",
"174 358 OFFCURVE",
"244 240 CURVE",
"70 38 LINE",
"140 -26 LINE"
);
},
{
closed = 1;
nodes = (
"566 64 OFFCURVE",
"444 118 OFFCURVE",
"360 228 CURVE",
"1140 1132 LINE",
"1188 1026 OFFCURVE",
"1212 890 OFFCURVE",
"1212 720 CURVE SMOOTH",
"1212 276 OFFCURVE",
"1050 64 OFFCURVE",
"728 64 CURVE SMOOTH"
);
},
{
closed = 1;
nodes = (
"260 418 OFFCURVE",
"236 552 OFFCURVE",
"236 720 CURVE SMOOTH",
"236 1164 OFFCURVE",
"404 1382 OFFCURVE",
"726 1382 CURVE SMOOTH",
"886 1382 OFFCURVE",
"1006 1328 OFFCURVE",
"1088 1218 CURVE",
"308 314 LINE"
);
}
);
width = 1450;
}
);
leftKerningGroup = Oslash;
rightKerningGroup = Oslash;
unicode = 00D8;
},
{
glyphname = OE;
lastChange = "2019-04-16 18:49:16 +0000";
layers = (
{
background = {
paths = (
{
closed = 1;
nodes = (
"1484 328 LINE",
"1484 584 LINE",
"1922 584 LINE",
"1922 906 LINE",
"1484 906 LINE",
"1484 1156 LINE",
"2182 1156 LINE",
"2184 1484 LINE",
"1220 1484 LINE",
"1096 1484 LINE",
"1026 1498 OFFCURVE",
"940 1504 OFFCURVE",
"838 1504 CURVE SMOOTH",
"356 1504 OFFCURVE",
"70 1202 OFFCURVE",
"70 738 CURVE SMOOTH",
"70 276 OFFCURVE",
"348 -20 OFFCURVE",
"814 -20 CURVE SMOOTH",
"926 -20 OFFCURVE",
"1020 -14 OFFCURVE",
"1096 0 CURVE",
"1196 0 LINE",
"1210 0 OFFCURVE",
"1224 0 OFFCURVE",
"1238 0 CURVE",
"2154 0 LINE SMOOTH",
"2188 0 OFFCURVE",
"2202 20 OFFCURVE",
"2202 44 CURVE SMOOTH",
"2202 290 LINE SMOOTH",
"2202 318 OFFCURVE",
"2186 328 OFFCURVE",
"2158 328 CURVE SMOOTH"
);
},
{
closed = 1;
nodes = (
"612 292 OFFCURVE",
"546 412 OFFCURVE",
"546 732 CURVE SMOOTH",
"546 1062 OFFCURVE",
"616 1196 OFFCURVE",
"790 1196 CURVE SMOOTH",
"960 1196 OFFCURVE",
"1030 1062 OFFCURVE",
"1030 732 CURVE SMOOTH",
"1030 412 OFFCURVE",
"964 292 OFFCURVE",
"790 292 CURVE SMOOTH"
);
}
);
};
layerId = "258ED206-D907-4350-8EBA-CBDDA1C16BF7";
paths = (
{
closed = 1;
nodes = (
"1468 320 LINE",
"1468 570 LINE",
"1896 570 LINE",
"1896 884 LINE",
"1468 884 LINE",
"1468 1128 LINE",
"2150 1128 LINE",
"2152 1446 LINE",
"1212 1446 LINE",
"1090 1446 LINE",
"1022 1460 OFFCURVE",
"938 1466 OFFCURVE",
"838 1466 CURVE SMOOTH",
"370 1466 OFFCURVE",
"90 1172 OFFCURVE",
"90 720 CURVE SMOOTH",
"90 270 OFFCURVE",
"362 -20 OFFCURVE",
"816 -20 CURVE SMOOTH",
"924 -20 OFFCURVE",
"1016 -14 OFFCURVE",
"1090 0 CURVE",
"1188 0 LINE",
"2168 0 LINE",
"2168 320 LINE"
);
},
{
closed = 1;
nodes = (
"618 284 OFFCURVE",
"554 402 OFFCURVE",
"554 714 CURVE SMOOTH",
"554 1036 OFFCURVE",
"622 1166 OFFCURVE",
"792 1166 CURVE SMOOTH",
"958 1166 OFFCURVE",
"1026 1036 OFFCURVE",
"1026 714 CURVE SMOOTH",
"1026 402 OFFCURVE",
"962 284 OFFCURVE",
"792 284 CURVE SMOOTH"
);
}
);
width = 2278;
},
{
background = {
paths = (
{
closed = 1;
nodes = (
"1368 80 LINE SMOOTH",
"1354 80 OFFCURVE",
"1350 82 OFFCURVE",
"1350 98 CURVE SMOOTH",
"1350 692 LINE SMOOTH",
"1350 708 OFFCURVE",
"1354 710 OFFCURVE",
"1368 710 CURVE SMOOTH",
"1922 710 LINE SMOOTH",
"1934 710 OFFCURVE",
"1938 712 OFFCURVE",
"1938 724 CURVE SMOOTH",
"1938 776 LINE SMOOTH",
"1938 786 OFFCURVE",
"1934 790 OFFCURVE",
"1924 790 CURVE SMOOTH",
"1368 790 LINE SMOOTH",
"1354 790 OFFCURVE",
"1350 792 OFFCURVE",
"1350 804 CURVE SMOOTH",
"1350 1386 LINE SMOOTH",
"1350 1402 OFFCURVE",
"1354 1404 OFFCURVE",
"1368 1404 CURVE SMOOTH",
"2084 1404 LINE SMOOTH",
"2096 1404 OFFCURVE",
"2100 1406 OFFCURVE",
"2100 1418 CURVE SMOOTH",
"2100 1470 LINE SMOOTH",
"2100 1480 OFFCURVE",
"2096 1484 OFFCURVE",
"2086 1484 CURVE SMOOTH",
"1276 1484 LINE SMOOTH",
"1262 1484 OFFCURVE",
"1258 1480 OFFCURVE",
"1258 1464 CURVE SMOOTH",
"1258 1200 LINE",
"1158 1400 OFFCURVE",
"984 1504 OFFCURVE",
"750 1504 CURVE SMOOTH",
"374 1504 OFFCURVE",
"146 1234 OFFCURVE",
"146 734 CURVE SMOOTH",
"146 242 OFFCURVE",
"370 -20 OFFCURVE",
"748 -20 CURVE SMOOTH",
"982 -20 OFFCURVE",
"1158 82 OFFCURVE",
"1258 280 CURVE",
"1258 20 LINE SMOOTH",
"1258 4 OFFCURVE",
"1262 0 OFFCURVE",
"1276 0 CURVE SMOOTH",
"2116 0 LINE SMOOTH",
"2126 0 OFFCURVE",
"2130 4 OFFCURVE",
"2130 14 CURVE SMOOTH",
"2130 66 LINE SMOOTH",
"2130 78 OFFCURVE",
"2126 80 OFFCURVE",
"2114 80 CURVE SMOOTH"
);
},
{
closed = 1;
nodes = (
"420 64 OFFCURVE",
"242 286 OFFCURVE",
"242 738 CURVE SMOOTH",
"242 1194 OFFCURVE",
"420 1420 OFFCURVE",
"750 1420 CURVE SMOOTH",
"1078 1420 OFFCURVE",
"1248 1196 OFFCURVE",
"1248 738 CURVE SMOOTH",
"1248 284 OFFCURVE",
"1082 64 OFFCURVE",
"752 64 CURVE SMOOTH"
);
}
);
};
layerId = "91AB5BCA-6A50-42DA-B2F7-8181BF189245";
paths = (
{
closed = 1;
nodes = (
"1314 78 LINE",
"1314 692 LINE",
"1888 692 LINE",
"1888 770 LINE",
"1314 770 LINE",
"1314 1368 LINE",
"2046 1368 LINE",
"2046 1446 LINE",
"1224 1446 LINE",
"1224 1170 LINE",
"1128 1366 OFFCURVE",
"958 1466 OFFCURVE",
"730 1466 CURVE SMOOTH",
"364 1466 OFFCURVE",
"140 1204 OFFCURVE",
"140 716 CURVE SMOOTH",
"140 236 OFFCURVE",
"360 -20 OFFCURVE",
"728 -20 CURVE SMOOTH",
"956 -20 OFFCURVE",
"1128 80 OFFCURVE",
"1224 274 CURVE",
"1224 0 LINE",
"2076 0 LINE",
"2076 78 LINE"
);
},
{
closed = 1;
nodes = (
"408 62 OFFCURVE",
"234 278 OFFCURVE",
"234 720 CURVE SMOOTH",
"234 1164 OFFCURVE",
"408 1384 OFFCURVE",
"730 1384 CURVE SMOOTH",
"1050 1384 OFFCURVE",
"1216 1166 OFFCURVE",
"1216 720 CURVE SMOOTH",
"1216 276 OFFCURVE",
"1054 62 OFFCURVE",
"732 62 CURVE SMOOTH"
);
}
);
width = 2216;
}
);
leftKerningGroup = O;
leftMetricsKey = O;
rightKerningGroup = E;
rightMetricsKey = E;
unicode = 0152;
},
{
glyphname = P;
lastChange = "2019-04-16 18:49:16 +0000";
layers = (
{
background = {
paths = (
{
closed = 1;
nodes = (
"1390 1324 OFFCURVE",
"1116 1484 OFFCURVE",
"788 1484 CURVE SMOOTH",
"126 1484 LINE SMOOTH",
"102 1484 OFFCURVE",
"88 1468 OFFCURVE",
"88 1438 CURVE SMOOTH",
"88 50 LINE SMOOTH",
"88 16 OFFCURVE",
"100 0 OFFCURVE",
"140 0 CURVE SMOOTH",
"476 0 LINE SMOOTH",
"522 0 OFFCURVE",
"542 16 OFFCURVE",
"542 58 CURVE SMOOTH",
"542 510 LINE SMOOTH",
"542 524 OFFCURVE",
"548 532 OFFCURVE",
"566 532 CURVE SMOOTH",
"840 532 LINE SMOOTH",
"1166 532 OFFCURVE",
"1390 710 OFFCURVE",
"1390 1002 CURVE SMOOTH"
);
},
{
closed = 1;
nodes = (
"926 922 OFFCURVE",
"868 852 OFFCURVE",
"772 852 CURVE SMOOTH",
"576 852 LINE SMOOTH",
"550 852 OFFCURVE",
"542 866 OFFCURVE",
"542 896 CURVE SMOOTH",
"542 1122 LINE SMOOTH",
"542 1152 OFFCURVE",
"554 1164 OFFCURVE",
"588 1164 CURVE SMOOTH",
"760 1164 LINE SMOOTH",
"852 1164 OFFCURVE",
"926 1104 OFFCURVE",
"926 1008 CURVE SMOOTH"
);
}
);
};
layerId = "258ED206-D907-4350-8EBA-CBDDA1C16BF7";
paths = (
{
closed = 1;
nodes = (
"530 0 LINE",
"530 498 LINE",
"762 498 LINE SMOOTH",
"1080 498 OFFCURVE",
"1280 670 OFFCURVE",
"1280 956 CURVE SMOOTH",
"1280 1270 OFFCURVE",
"1032 1446 OFFCURVE",
"712 1446 CURVE SMOOTH",
"140 1446 LINE",
"140 0 LINE"
);
},
{
closed = 1;
nodes = (
"526 1158 LINE",
"750 1158 LINE SMOOTH",
"836 1158 OFFCURVE",
"922 1076 OFFCURVE",
"922 976 CURVE SMOOTH",
"922 882 OFFCURVE",
"848 788 OFFCURVE",
"750 788 CURVE SMOOTH",
"526 788 LINE"
);
}
);
width = 1340;
},
{
background = {
paths = (
{
closed = 1;
nodes = (
"1212 1368 OFFCURVE",
"990 1484 OFFCURVE",
"680 1484 CURVE SMOOTH",
"236 1484 LINE SMOOTH",
"222 1484 OFFCURVE",
"218 1480 OFFCURVE",
"218 1464 CURVE SMOOTH",
"218 16 LINE SMOOTH",
"218 6 OFFCURVE",
"224 0 OFFCURVE",
"234 0 CURVE SMOOTH",
"294 0 LINE SMOOTH",
"304 0 OFFCURVE",
"310 6 OFFCURVE",
"310 18 CURVE SMOOTH",
"310 636 LINE SMOOTH",
"310 648 OFFCURVE",
"314 654 OFFCURVE",
"326 654 CURVE SMOOTH",
"692 654 LINE SMOOTH",
"994 654 OFFCURVE",
"1212 774 OFFCURVE",
"1212 1070 CURVE SMOOTH"
);
},
{
closed = 1;
nodes = (
"1116 830 OFFCURVE",
"948 734 OFFCURVE",
"692 734 CURVE SMOOTH",
"324 734 LINE SMOOTH",
"314 734 OFFCURVE",
"310 740 OFFCURVE",
"310 754 CURVE SMOOTH",
"310 1388 LINE SMOOTH",
"310 1400 OFFCURVE",
"316 1404 OFFCURVE",
"328 1404 CURVE SMOOTH",
"678 1404 LINE SMOOTH",
"948 1404 OFFCURVE",
"1116 1324 OFFCURVE",
"1116 1076 CURVE SMOOTH"
);
}
);
};
layerId = "91AB5BCA-6A50-42DA-B2F7-8181BF189245";
paths = (
{
closed = 1;
nodes = (
"296 0 LINE",
"296 554 LINE",
"668 554 LINE SMOOTH",
"964 554 OFFCURVE",
"1176 716 OFFCURVE",
"1176 1006 CURVE SMOOTH",
"1176 1296 OFFCURVE",
"960 1446 OFFCURVE",
"656 1446 CURVE SMOOTH",
"210 1446 LINE",
"210 0 LINE"
);
},
{
closed = 1;
nodes = (
"296 1362 LINE",
"654 1362 LINE SMOOTH",
"918 1362 OFFCURVE",
"1088 1252 OFFCURVE",
"1088 1012 CURVE SMOOTH",
"1088 772 OFFCURVE",
"918 640 OFFCURVE",
"668 640 CURVE SMOOTH",
"296 640 LINE"
);
}
);
width = 1246;
}
);
leftKerningGroup = N;
leftMetricsKey = N;
rightKerningGroup = P;
unicode = 0050;
},
{
glyphname = Thorn;
lastChange = "2019-04-16 18:49:16 +0000";
layers = (
{
background = {
paths = (
{
closed = 1;
nodes = (
"1450 1060 OFFCURVE",
"1176 1216 OFFCURVE",
"848 1216 CURVE SMOOTH",
"596 1216 LINE SMOOTH",
"582 1216 OFFCURVE",
"576 1224 OFFCURVE",
"576 1240 CURVE SMOOTH",
"576 1442 LINE SMOOTH",
"576 1468 OFFCURVE",
"564 1484 OFFCURVE",
"540 1484 CURVE SMOOTH",
"160 1484 LINE SMOOTH",
"138 1484 OFFCURVE",
"122 1468 OFFCURVE",
"122 1438 CURVE SMOOTH",
"122 50 LINE SMOOTH",
"122 16 OFFCURVE",
"134 0 OFFCURVE",
"174 0 CURVE SMOOTH",
"510 0 LINE SMOOTH",
"556 0 OFFCURVE",
"576 16 OFFCURVE",
"576 58 CURVE SMOOTH",
"576 262 LINE SMOOTH",
"576 276 OFFCURVE",
"582 284 OFFCURVE",
"600 284 CURVE SMOOTH",
"900 284 LINE SMOOTH",
"1226 284 OFFCURVE",
"1450 458 OFFCURVE",
"1450 744 CURVE SMOOTH"
);
},
{
closed = 1;
nodes = (
"986 670 OFFCURVE",
"928 604 OFFCURVE",
"832 604 CURVE SMOOTH",
"610 604 LINE SMOOTH",
"584 604 OFFCURVE",
"576 618 OFFCURVE",
"576 648 CURVE SMOOTH",
"576 854 LINE SMOOTH",
"576 884 OFFCURVE",
"588 896 OFFCURVE",
"622 896 CURVE SMOOTH",
"820 896 LINE SMOOTH",
"912 896 OFFCURVE",
"986 840 OFFCURVE",
"986 750 CURVE SMOOTH"
);
}
);
};
layerId = "258ED206-D907-4350-8EBA-CBDDA1C16BF7";
paths = (
{
closed = 1;
nodes = (
"1436 1034 OFFCURVE",
"1168 1186 OFFCURVE",
"848 1186 CURVE SMOOTH",
"584 1186 LINE",
"584 1446 LINE",
"140 1446 LINE",
"140 0 LINE",
"584 0 LINE",
"584 276 LINE",
"900 276 LINE SMOOTH",
"1218 276 OFFCURVE",
"1436 446 OFFCURVE",
"1436 726 CURVE SMOOTH"
);
},
{
closed = 1;
nodes = (
"984 654 OFFCURVE",
"926 588 OFFCURVE",
"832 588 CURVE SMOOTH",
"584 588 LINE",
"584 874 LINE",
"822 874 LINE SMOOTH",
"910 874 OFFCURVE",
"984 820 OFFCURVE",
"984 732 CURVE SMOOTH"
);
}
);
width = 1496;
},
{
background = {
paths = (
{
closed = 1;
nodes = (
"1212 1044 OFFCURVE",
"992 1158 OFFCURVE",
"680 1158 CURVE SMOOTH",
"322 1158 LINE SMOOTH",
"314 1158 OFFCURVE",
"310 1162 OFFCURVE",
"310 1168 CURVE SMOOTH",
"310 1464 LINE SMOOTH",
"310 1480 OFFCURVE",
"306 1484 OFFCURVE",
"292 1484 CURVE SMOOTH",
"236 1484 LINE SMOOTH",
"222 1484 OFFCURVE",
"218 1480 OFFCURVE",
"218 1464 CURVE SMOOTH",
"218 16 LINE SMOOTH",
"218 6 OFFCURVE",
"224 0 OFFCURVE",
"234 0 CURVE SMOOTH",
"294 0 LINE SMOOTH",
"304 0 OFFCURVE",
"310 6 OFFCURVE",
"310 18 CURVE SMOOTH",
"310 346 LINE SMOOTH",
"310 358 OFFCURVE",
"314 364 OFFCURVE",
"326 364 CURVE SMOOTH",
"692 364 LINE SMOOTH",
"992 364 OFFCURVE",
"1212 478 OFFCURVE",
"1212 780 CURVE SMOOTH"
);
},
{
closed = 1;
nodes = (
"1116 536 OFFCURVE",
"948 444 OFFCURVE",
"692 444 CURVE SMOOTH",
"324 444 LINE SMOOTH",
"314 444 OFFCURVE",
"310 450 OFFCURVE",
"310 464 CURVE SMOOTH",
"310 1062 LINE SMOOTH",
"310 1074 OFFCURVE",
"316 1078 OFFCURVE",
"328 1078 CURVE SMOOTH",
"678 1078 LINE SMOOTH",
"948 1078 OFFCURVE",
"1116 1002 OFFCURVE",
"1116 780 CURVE SMOOTH"
);
}
);
};
layerId = "91AB5BCA-6A50-42DA-B2F7-8181BF189245";
paths = (
{
closed = 1;
nodes = (
"1180 1018 OFFCURVE",
"966 1130 OFFCURVE",
"660 1130 CURVE SMOOTH",
"300 1130 LINE",
"300 1446 LINE",
"210 1446 LINE",
"210 0 LINE",
"300 0 LINE",
"300 354 LINE",
"672 354 LINE SMOOTH",
"966 354 OFFCURVE",
"1180 466 OFFCURVE",
"1180 760 CURVE SMOOTH"
);
},
{
closed = 1;
nodes = (
"1086 522 OFFCURVE",
"922 432 OFFCURVE",
"672 432 CURVE SMOOTH",
"300 432 LINE",
"300 1052 LINE",
"658 1052 LINE SMOOTH",
"922 1052 OFFCURVE",
"1086 976 OFFCURVE",
"1086 760 CURVE SMOOTH"
);
}
);
width = 1250;
}
);
leftKerningGroup = N;
leftMetricsKey = P;
rightKerningGroup = P;
rightMetricsKey = P;
unicode = 00DE;
},
{
glyphname = Q;
lastChange = "2019-04-16 18:49:16 +0000";
layers = (
{
background = {
paths = (
{
closed = 1;
nodes = (
"40 276 OFFCURVE",
"318 -20 OFFCURVE",
"760 -20 CURVE SMOOTH",
"812 -20 OFFCURVE",
"854 -18 OFFCURVE",
"902 -12 CURVE SMOOTH",
"916 -10 OFFCURVE",
"926 -12 OFFCURVE",
"932 -20 CURVE SMOOTH",
"1046 -168 OFFCURVE",
"1190 -256 OFFCURVE",
"1390 -256 CURVE SMOOTH",
"1454 -256 OFFCURVE",
"1478 -244 OFFCURVE",
"1478 -194 CURVE SMOOTH",
"1478 26 LINE SMOOTH",
"1478 40 OFFCURVE",
"1472 56 OFFCURVE",
"1444 60 CURVE SMOOTH",
"1358 72 OFFCURVE",
"1264 122 OFFCURVE",
"1264 156 CURVE SMOOTH",
"1264 164 OFFCURVE",
"1264 168 OFFCURVE",
"1268 172 CURVE",
"1402 304 OFFCURVE",
"1478 498 OFFCURVE",
"1478 738 CURVE SMOOTH",
"1478 1202 OFFCURVE",
"1192 1504 OFFCURVE",
"760 1504 CURVE SMOOTH",
"326 1504 OFFCURVE",
"40 1202 OFFCURVE",
"40 738 CURVE SMOOTH"
);
},
{
closed = 1;
nodes = (
"516 1064 OFFCURVE",
"586 1196 OFFCURVE",
"760 1196 CURVE SMOOTH",
"932 1196 OFFCURVE",
"1002 1064 OFFCURVE",
"1002 734 CURVE SMOOTH",
"1002 412 OFFCURVE",
"936 292 OFFCURVE",
"760 292 CURVE SMOOTH",
"582 292 OFFCURVE",
"516 412 OFFCURVE",
"516 734 CURVE SMOOTH"
);
}
);
};
layerId = "258ED206-D907-4350-8EBA-CBDDA1C16BF7";
paths = (
{
closed = 1;
nodes = (
"60 270 OFFCURVE",
"332 -20 OFFCURVE",
"762 -20 CURVE SMOOTH",
"812 -20 OFFCURVE",
"852 -18 OFFCURVE",
"922 -10 CURVE",
"1094 -226 OFFCURVE",
"1230 -250 OFFCURVE",
"1462 -250 CURVE",
"1462 54 LINE",
"1364 54 OFFCURVE",
"1274 104 OFFCURVE",
"1258 160 CURVE",
"1388 300 OFFCURVE",
"1462 486 OFFCURVE",
"1462 720 CURVE SMOOTH",
"1462 1172 OFFCURVE",
"1184 1466 OFFCURVE",
"762 1466 CURVE SMOOTH",
"340 1466 OFFCURVE",
"60 1172 OFFCURVE",
"60 720 CURVE SMOOTH"
);
},
{
closed = 1;
nodes = (
"486 1038 OFFCURVE",
"594 1154 OFFCURVE",
"762 1154 CURVE SMOOTH",
"930 1154 OFFCURVE",
"1038 1038 OFFCURVE",
"1038 716 CURVE SMOOTH",
"1038 402 OFFCURVE",
"934 292 OFFCURVE",
"762 292 CURVE SMOOTH",
"590 292 OFFCURVE",
"486 402 OFFCURVE",
"486 716 CURVE SMOOTH"
);
}
);
width = 1572;
},
{
background = {
paths = (
{
closed = 1;
nodes = (
"116 232 OFFCURVE",
"350 -20 OFFCURVE",
"718 -20 CURVE SMOOTH",
"770 -20 OFFCURVE",
"830 -14 OFFCURVE",
"880 -2 CURVE SMOOTH",
"894 2 OFFCURVE",
"904 -2 OFFCURVE",
"910 -10 CURVE SMOOTH",
"1040 -192 OFFCURVE",
"1172 -244 OFFCURVE",
"1260 -244 CURVE SMOOTH",
"1288 -244 OFFCURVE",
"1300 -240 OFFCURVE",
"1300 -218 CURVE SMOOTH",
"1300 -174 LINE SMOOTH",
"1300 -168 OFFCURVE",
"1298 -162 OFFCURVE",
"1286 -160 CURVE SMOOTH",
"1136 -140 OFFCURVE",
"1002 -22 OFFCURVE",
"1002 32 CURVE SMOOTH",
"1002 40 OFFCURVE",
"1004 44 OFFCURVE",
"1014 50 CURVE SMOOTH",
"1208 166 OFFCURVE",
"1320 378 OFFCURVE",
"1320 738 CURVE SMOOTH",
"1320 1240 OFFCURVE",
"1094 1504 OFFCURVE",
"718 1504 CURVE SMOOTH",
"342 1504 OFFCURVE",
"116 1240 OFFCURVE",
"116 738 CURVE SMOOTH"
);
},
{
closed = 1;
nodes = (
"212 1184 OFFCURVE",
"384 1420 OFFCURVE",
"718 1420 CURVE SMOOTH",
"1052 1420 OFFCURVE",
"1224 1184 OFFCURVE",
"1224 738 CURVE SMOOTH",
"1224 282 OFFCURVE",
"1046 64 OFFCURVE",
"718 64 CURVE SMOOTH",
"390 64 OFFCURVE",
"212 282 OFFCURVE",
"212 734 CURVE SMOOTH"
);
}
);
};
layerId = "91AB5BCA-6A50-42DA-B2F7-8181BF189245";
paths = (
{
closed = 1;
nodes = (
"110 226 OFFCURVE",
"340 -20 OFFCURVE",
"698 -20 CURVE SMOOTH",
"754 -20 OFFCURVE",
"810 -12 OFFCURVE",
"874 2 CURVE",
"976 -196 OFFCURVE",
"1170 -238 OFFCURVE",
"1266 -238 CURVE",
"1266 -158 LINE",
"1138 -152 OFFCURVE",
"1026 -100 OFFCURVE",
"960 36 CURVE",
"1194 158 OFFCURVE",
"1284 388 OFFCURVE",
"1284 720 CURVE SMOOTH",
"1284 1210 OFFCURVE",
"1064 1466 OFFCURVE",
"698 1466 CURVE SMOOTH",
"332 1466 OFFCURVE",
"110 1210 OFFCURVE",
"110 720 CURVE SMOOTH"
);
},
{
closed = 1;
nodes = (
"198 1154 OFFCURVE",
"372 1384 OFFCURVE",
"698 1384 CURVE SMOOTH",
"1024 1384 OFFCURVE",
"1198 1154 OFFCURVE",
"1198 720 CURVE SMOOTH",
"1198 274 OFFCURVE",
"1018 62 OFFCURVE",
"698 62 CURVE SMOOTH",
"378 62 OFFCURVE",
"198 274 OFFCURVE",
"198 716 CURVE SMOOTH"
);
}
);
width = 1414;
}
);
leftKerningGroup = O;
rightKerningGroup = O;
unicode = 0051;
},
{
glyphname = R;
lastChange = "2019-04-16 18:49:16 +0000";
layers = (
{
anchors = (
{
name = bottom;
position = "{724, 0}";
},
{
name = top;
position = "{704, 1446}";
}
);
background = {
anchors = (
{
name = bottom;
position = "{720, 0}";
},
{
name = top;
position = "{700, 1484}";
}
);
paths = (
{
closed = 1;
nodes = (
"1134 624 LINE SMOOTH",
"1128 640 OFFCURVE",
"1128 656 OFFCURVE",
"1142 662 CURVE SMOOTH",
"1294 720 OFFCURVE",
"1404 872 OFFCURVE",
"1404 1060 CURVE SMOOTH",
"1404 1328 OFFCURVE",
"1180 1484 OFFCURVE",
"794 1484 CURVE SMOOTH",
"126 1484 LINE SMOOTH",
"102 1484 OFFCURVE",
"88 1468 OFFCURVE",
"88 1438 CURVE SMOOTH",
"88 50 LINE SMOOTH",
"88 16 OFFCURVE",
"100 0 OFFCURVE",
"140 0 CURVE SMOOTH",
"476 0 LINE SMOOTH",
"522 0 OFFCURVE",
"542 16 OFFCURVE",
"542 58 CURVE SMOOTH",
"542 568 LINE SMOOTH",
"542 574 OFFCURVE",
"548 590 OFFCURVE",
"566 590 CURVE SMOOTH",
"658 590 LINE SMOOTH",
"696 590 OFFCURVE",
"712 580 OFFCURVE",
"720 558 CURVE SMOOTH",
"908 42 LINE SMOOTH",
"916 14 OFFCURVE",
"934 0 OFFCURVE",
"962 0 CURVE SMOOTH",
"1350 0 LINE SMOOTH",
"1382 0 OFFCURVE",
"1400 30 OFFCURVE",
"1386 64 CURVE SMOOTH"
);
},
{
closed = 1;
nodes = (
"576 888 LINE SMOOTH",
"550 888 OFFCURVE",
"542 900 OFFCURVE",
"542 930 CURVE SMOOTH",
"542 1148 LINE SMOOTH",
"542 1178 OFFCURVE",
"554 1188 OFFCURVE",
"588 1188 CURVE SMOOTH",
"764 1188 LINE SMOOTH",
"854 1188 OFFCURVE",
"934 1134 OFFCURVE",
"934 1032 CURVE SMOOTH",
"934 946 OFFCURVE",
"878 888 OFFCURVE",
"776 888 CURVE SMOOTH"
);
}
);
};
layerId = "258ED206-D907-4350-8EBA-CBDDA1C16BF7";
paths = (
{
closed = 1;
nodes = (
"1088 560 LINE",
"1222 642 OFFCURVE",
"1318 758 OFFCURVE",
"1318 980 CURVE SMOOTH",
"1318 1242 OFFCURVE",
"1172 1446 OFFCURVE",
"796 1446 CURVE SMOOTH",
"140 1446 LINE",
"140 0 LINE",
"530 0 LINE",
"530 498 LINE",
"734 498 LINE",
"944 0 LINE",
"1342 0 LINE"
);
},
{
closed = 1;
nodes = (
"530 788 LINE",
"530 1158 LINE",
"752 1158 LINE SMOOTH",
"840 1158 OFFCURVE",
"926 1076 OFFCURVE",
"926 976 CURVE SMOOTH",
"926 882 OFFCURVE",
"852 788 OFFCURVE",
"752 788 CURVE SMOOTH"
);
}
);
width = 1432;
},
{
anchors = (
{
name = bottom;
position = "{642, 0}";
},
{
name = top;
position = "{628, 1446}";
}
);
background = {
anchors = (
{
name = bottom;
position = "{660, 0}";
},
{
name = top;
position = "{646, 1484}";
}
);
paths = (
{
closed = 1;
nodes = (
"884 718 LINE",
"882 724 OFFCURVE",
"884 730 OFFCURVE",
"892 732 CURVE SMOOTH",
"1030 768 OFFCURVE",
"1196 870 OFFCURVE",
"1196 1116 CURVE SMOOTH",
"1196 1360 OFFCURVE",
"1028 1484 OFFCURVE",
"740 1484 CURVE SMOOTH",
"224 1484 LINE SMOOTH",
"210 1484 OFFCURVE",
"206 1480 OFFCURVE",
"206 1464 CURVE SMOOTH",
"206 18 LINE SMOOTH",
"206 6 OFFCURVE",
"210 0 OFFCURVE",
"226 0 CURVE SMOOTH",
"278 0 LINE SMOOTH",
"294 0 OFFCURVE",
"298 6 OFFCURVE",
"298 22 CURVE SMOOTH",
"298 688 LINE SMOOTH",
"298 702 OFFCURVE",
"304 710 OFFCURVE",
"322 710 CURVE SMOOTH",
"754 710 LINE SMOOTH",
"780 710 OFFCURVE",
"790 704 OFFCURVE",
"796 690 CURVE SMOOTH",
"1080 18 LINE SMOOTH",
"1086 6 OFFCURVE",
"1090 0 OFFCURVE",
"1104 0 CURVE SMOOTH",
"1160 0 LINE SMOOTH",
"1174 0 OFFCURVE",
"1182 14 OFFCURVE",
"1176 28 CURVE SMOOTH"
);
},
{
closed = 1;
nodes = (
"312 790 LINE SMOOTH",
"302 790 OFFCURVE",
"298 796 OFFCURVE",
"298 808 CURVE SMOOTH",
"298 1388 LINE SMOOTH",
"298 1400 OFFCURVE",
"304 1404 OFFCURVE",
"320 1404 CURVE SMOOTH",
"738 1404 LINE SMOOTH",
"980 1404 OFFCURVE",
"1100 1306 OFFCURVE",
"1100 1102 CURVE SMOOTH",
"1100 878 OFFCURVE",
"956 790 OFFCURVE",
"670 790 CURVE SMOOTH"
);
}
);
};
layerId = "91AB5BCA-6A50-42DA-B2F7-8181BF189245";
paths = (
{
closed = 1;
nodes = (
"856 706 LINE",
"996 742 OFFCURVE",
"1164 846 OFFCURVE",
"1164 1088 CURVE SMOOTH",
"1164 1326 OFFCURVE",
"1000 1446 OFFCURVE",
"720 1446 CURVE SMOOTH",
"210 1446 LINE",
"210 0 LINE",
"288 0 LINE",
"288 688 LINE",
"774 688 LINE",
"1066 0 LINE",
"1156 0 LINE"
);
},
{
closed = 1;
nodes = (
"288 770 LINE",
"288 1366 LINE",
"718 1366 LINE SMOOTH",
"954 1366 OFFCURVE",
"1080 1280 OFFCURVE",
"1080 1074 CURVE SMOOTH",
"1080 856 OFFCURVE",
"930 770 OFFCURVE",
"652 770 CURVE SMOOTH"
);
}
);
width = 1314;
}
);
leftKerningGroup = N;
leftMetricsKey = N;
rightKerningGroup = R;
unicode = 0052;
},
{
glyphname = S;
lastChange = "2019-04-16 18:49:16 +0000";
layers = (
{
anchors = (
{
name = bottom;
position = "{728, 0}";
},
{
name = top;
position = "{728, 1446}";
}
);
background = {
anchors = (
{
name = bottom;
position = "{724, 0}";
},
{
name = top;
position = "{724, 1484}";
}
);
paths = (
{
closed = 1;
nodes = (
"1030 1058 OFFCURVE",
"1042 1056 OFFCURVE",
"1062 1070 CURVE SMOOTH",
"1280 1228 LINE SMOOTH",
"1306 1248 OFFCURVE",
"1292 1270 OFFCURVE",
"1280 1288 CURVE SMOOTH",
"1188 1418 OFFCURVE",
"962 1504 OFFCURVE",
"724 1504 CURVE SMOOTH",
"346 1504 OFFCURVE",
"108 1290 OFFCURVE",
"108 1030 CURVE SMOOTH",
"108 820 OFFCURVE",
"260 646 OFFCURVE",
"500 586 CURVE SMOOTH",
"804 512 LINE SMOOTH",
"890 492 OFFCURVE",
"930 452 OFFCURVE",
"930 404 CURVE SMOOTH",
"930 330 OFFCURVE",
"834 288 OFFCURVE",
"688 288 CURVE SMOOTH",
"530 288 OFFCURVE",
"452 334 OFFCURVE",
"364 448 CURVE SMOOTH",
"348 468 OFFCURVE",
"324 476 OFFCURVE",
"288 452 CURVE SMOOTH",
"82 310 LINE SMOOTH",
"54 288 OFFCURVE",
"54 272 OFFCURVE",
"70 244 CURVE SMOOTH",
"164 86 OFFCURVE",
"430 -20 OFFCURVE",
"722 -20 CURVE SMOOTH",
"1116 -20 OFFCURVE",
"1362 172 OFFCURVE",
"1362 468 CURVE SMOOTH",
"1362 674 OFFCURVE",
"1246 842 OFFCURVE",
"996 904 CURVE SMOOTH",
"664 990 LINE SMOOTH",
"564 1014 OFFCURVE",
"536 1056 OFFCURVE",
"536 1092 CURVE SMOOTH",
"536 1142 OFFCURVE",
"590 1194 OFFCURVE",
"740 1194 CURVE SMOOTH",
"896 1194 OFFCURVE",
"954 1138 OFFCURVE",
"1002 1086 CURVE SMOOTH"
);
}
);
};
guideLines = (
{
angle = 214.3236;
position = "{665, 302}";
}
);
layerId = "258ED206-D907-4350-8EBA-CBDDA1C16BF7";
paths = (
{
closed = 1;
nodes = (
"1096 -20 OFFCURVE",
"1368 164 OFFCURVE",
"1368 410 CURVE SMOOTH",
"1368 554 OFFCURVE",
"1342 814 OFFCURVE",
"922 886 CURVE SMOOTH",
"696 924 LINE SMOOTH",
"570 946 OFFCURVE",
"538 984 OFFCURVE",
"538 1050 CURVE SMOOTH",
"538 1102 OFFCURVE",
"584 1164 OFFCURVE",
"736 1164 CURVE SMOOTH",
"872 1164 OFFCURVE",
"952 1120 OFFCURVE",
"964 1008 CURVE",
"1358 1008 LINE",
"1332 1246 OFFCURVE",
"1082 1464 OFFCURVE",
"728 1464 CURVE SMOOTH",
"394 1464 OFFCURVE",
"118 1294 OFFCURVE",
"122 1002 CURVE SMOOTH",
"126 756 OFFCURVE",
"276 612 OFFCURVE",
"502 576 CURVE SMOOTH",
"728 538 LINE SMOOTH",
"850 518 OFFCURVE",
"970 498 OFFCURVE",
"970 410 CURVE SMOOTH",
"970 308 OFFCURVE",
"854 278 OFFCURVE",
"732 278 CURVE SMOOTH",
"596 278 OFFCURVE",
"506 338 OFFCURVE",
"484 440 CURVE",
"80 440 LINE",
"106 118 OFFCURVE",
"430 -20 OFFCURVE",
"734 -20 CURVE SMOOTH"
);
}
);
width = 1448;
},
{
anchors = (
{
name = bottom;
position = "{654, 0}";
},
{
name = top;
position = "{666, 1446}";
}
);
background = {
anchors = (
{
name = bottom;
position = "{692, 0}";
},
{
name = top;
position = "{684, 1484}";
}
);
paths = (
{
closed = 1;
nodes = (
"1058 1240 OFFCURVE",
"1062 1236 OFFCURVE",
"1072 1244 CURVE SMOOTH",
"1116 1284 LINE SMOOTH",
"1128 1294 OFFCURVE",
"1124 1304 OFFCURVE",
"1116 1312 CURVE SMOOTH",
"1002 1432 OFFCURVE",
"868 1504 OFFCURVE",
"682 1504 CURVE SMOOTH",
"408 1504 OFFCURVE",
"218 1362 OFFCURVE",
"218 1112 CURVE SMOOTH",
"218 984 OFFCURVE",
"278 842 OFFCURVE",
"494 760 CURVE SMOOTH",
"796 644 LINE SMOOTH",
"1014 560 OFFCURVE",
"1060 478 OFFCURVE",
"1060 360 CURVE SMOOTH",
"1060 146 OFFCURVE",
"902 64 OFFCURVE",
"664 64 CURVE SMOOTH",
"450 64 OFFCURVE",
"354 138 OFFCURVE",
"242 282 CURVE SMOOTH",
"232 294 OFFCURVE",
"222 296 OFFCURVE",
"202 282 CURVE SMOOTH",
"180 266 LINE SMOOTH",
"160 252 OFFCURVE",
"158 240 OFFCURVE",
"168 226 CURVE SMOOTH",
"286 58 OFFCURVE",
"442 -20 OFFCURVE",
"664 -20 CURVE SMOOTH",
"966 -20 OFFCURVE",
"1152 120 OFFCURVE",
"1152 364 CURVE SMOOTH",
"1152 532 OFFCURVE",
"1066 652 OFFCURVE",
"830 738 CURVE SMOOTH",
"554 838 LINE SMOOTH",
"340 916 OFFCURVE",
"310 1036 OFFCURVE",
"310 1114 CURVE SMOOTH",
"310 1312 OFFCURVE",
"458 1420 OFFCURVE",
"676 1420 CURVE SMOOTH",
"844 1420 OFFCURVE",
"966 1348 OFFCURVE",
"1046 1254 CURVE SMOOTH"
);
}
);
};
layerId = "91AB5BCA-6A50-42DA-B2F7-8181BF189245";
paths = (
{
closed = 1;
nodes = (
"1020 -20 OFFCURVE",
"1192 150 OFFCURVE",
"1192 354 CURVE SMOOTH",
"1192 518 OFFCURVE",
"1110 668 OFFCURVE",
"882 728 CURVE SMOOTH",
"574 808 LINE SMOOTH",
"346 868 OFFCURVE",
"272 942 OFFCURVE",
"272 1066 CURVE SMOOTH",
"272 1286 OFFCURVE",
"494 1382 OFFCURVE",
"666 1382 CURVE SMOOTH",
"862 1382 OFFCURVE",
"1044 1300 OFFCURVE",
"1084 1064 CURVE",
"1164 1080 LINE",
"1144 1280 OFFCURVE",
"998 1464 OFFCURVE",
"670 1464 CURVE SMOOTH",
"378 1464 OFFCURVE",
"186 1292 OFFCURVE",
"186 1064 CURVE SMOOTH",
"186 892 OFFCURVE",
"306 798 OFFCURVE",
"520 744 CURVE SMOOTH",
"842 664 LINE SMOOTH",
"1028 618 OFFCURVE",
"1106 504 OFFCURVE",
"1106 350 CURVE SMOOTH",
"1106 180 OFFCURVE",
"930 58 OFFCURVE",
"678 58 CURVE SMOOTH",
"466 58 OFFCURVE",
"268 156 OFFCURVE",
"224 352 CURVE",
"140 334 LINE",
"184 110 OFFCURVE",
"414 -20 OFFCURVE",
"678 -20 CURVE SMOOTH"
);
}
);
width = 1352;
}
);
leftKerningGroup = S;
rightKerningGroup = S;
unicode = 0053;
},
{
glyphname = Schwa;
lastChange = "2019-04-16 18:49:16 +0000";
layers = (
{
background = {
paths = (
{
closed = 1;
nodes = (
"1022 862 OFFCURVE",
"1008 850 OFFCURVE",
"982 850 CURVE SMOOTH",
"116 850 LINE SMOOTH",
"72 850 OFFCURVE",
"70 828 OFFCURVE",
"70 784 CURVE SMOOTH",
"70 272 OFFCURVE",
"312 -20 OFFCURVE",
"778 -20 CURVE SMOOTH",
"1164 -20 OFFCURVE",
"1502 316 OFFCURVE",
"1502 760 CURVE SMOOTH",
"1502 1198 OFFCURVE",
"1228 1504 OFFCURVE",
"784 1504 CURVE SMOOTH",
"492 1504 OFFCURVE",
"280 1378 OFFCURVE",
"156 1134 CURVE SMOOTH",
"140 1102 OFFCURVE",
"142 1084 OFFCURVE",
"166 1072 CURVE SMOOTH",
"442 936 LINE SMOOTH",
"476 918 OFFCURVE",
"488 924 OFFCURVE",
"496 938 CURVE SMOOTH",
"588 1088 OFFCURVE",
"664 1156 OFFCURVE",
"788 1156 CURVE SMOOTH",
"984 1156 OFFCURVE",
"1022 1012 OFFCURVE",
"1022 894 CURVE SMOOTH"
);
},
{
closed = 1;
nodes = (
"994 384 OFFCURVE",
"936 292 OFFCURVE",
"774 292 CURVE SMOOTH",
"638 292 OFFCURVE",
"556 402 OFFCURVE",
"556 534 CURVE SMOOTH",
"556 564 OFFCURVE",
"566 570 OFFCURVE",
"600 570 CURVE SMOOTH",
"1018 568 LINE"
);
}
);
};
layerId = "258ED206-D907-4350-8EBA-CBDDA1C16BF7";
paths = (
{
closed = 1;
nodes = (
"1018 840 OFFCURVE",
"1004 828 OFFCURVE",
"980 828 CURVE SMOOTH",
"136 828 LINE SMOOTH",
"92 828 OFFCURVE",
"90 808 OFFCURVE",
"90 764 CURVE SMOOTH",
"90 266 OFFCURVE",
"326 -20 OFFCURVE",
"780 -20 CURVE SMOOTH",
"1156 -20 OFFCURVE",
"1486 308 OFFCURVE",
"1486 742 CURVE SMOOTH",
"1486 1168 OFFCURVE",
"1220 1466 OFFCURVE",
"786 1466 CURVE SMOOTH",
"502 1466 OFFCURVE",
"294 1344 OFFCURVE",
"174 1106 CURVE SMOOTH",
"158 1074 OFFCURVE",
"160 1056 OFFCURVE",
"184 1046 CURVE SMOOTH",
"452 912 LINE SMOOTH",
"486 896 OFFCURVE",
"498 900 OFFCURVE",
"506 914 CURVE SMOOTH",
"596 1060 OFFCURVE",
"670 1128 OFFCURVE",
"790 1128 CURVE SMOOTH",
"982 1128 OFFCURVE",
"1018 986 OFFCURVE",
"1018 872 CURVE SMOOTH"
);
},
{
closed = 1;
nodes = (
"992 374 OFFCURVE",
"934 284 OFFCURVE",
"776 284 CURVE SMOOTH",
"644 284 OFFCURVE",
"564 392 OFFCURVE",
"564 520 CURVE SMOOTH",
"564 550 OFFCURVE",
"574 556 OFFCURVE",
"606 556 CURVE SMOOTH",
"1014 554 LINE"
);
}
);
width = 1576;
},
{
background = {
paths = (
{
closed = 1;
nodes = (
"1244 762 OFFCURVE",
"1242 760 OFFCURVE",
"1232 760 CURVE SMOOTH",
"162 760 LINE SMOOTH",
"146 760 OFFCURVE",
"146 750 OFFCURVE",
"146 738 CURVE SMOOTH",
"146 348 OFFCURVE",
"278 -20 OFFCURVE",
"748 -20 CURVE SMOOTH",
"1206 -20 OFFCURVE",
"1348 360 OFFCURVE",
"1348 732 CURVE SMOOTH",
"1348 1062 OFFCURVE",
"1248 1504 OFFCURVE",
"748 1504 CURVE SMOOTH",
"292 1504 OFFCURVE",
"204 1120 OFFCURVE",
"174 1044 CURVE SMOOTH",
"170 1034 OFFCURVE",
"168 1028 OFFCURVE",
"176 1026 CURVE SMOOTH",
"252 1000 LINE SMOOTH",
"260 998 OFFCURVE",
"264 996 OFFCURVE",
"266 1000 CURVE SMOOTH",
"294 1062 OFFCURVE",
"330 1418 OFFCURVE",
"748 1418 CURVE SMOOTH",
"1184 1418 OFFCURVE",
"1244 1008 OFFCURVE",
"1244 772 CURVE SMOOTH"
);
},
{
closed = 1;
nodes = (
"1238 382 OFFCURVE",
"1140 66 OFFCURVE",
"748 66 CURVE SMOOTH",
"354 66 OFFCURVE",
"250 384 OFFCURVE",
"250 664 CURVE SMOOTH",
"250 672 OFFCURVE",
"254 676 OFFCURVE",
"266 676 CURVE SMOOTH",
"1244 676 LINE"
);
}
);
};
layerId = "91AB5BCA-6A50-42DA-B2F7-8181BF189245";
paths = (
{
closed = 1;
nodes = (
"1212 742 OFFCURVE",
"1210 742 OFFCURVE",
"1200 742 CURVE SMOOTH",
"156 742 LINE SMOOTH",
"140 742 OFFCURVE",
"140 732 OFFCURVE",
"140 720 CURVE SMOOTH",
"140 340 OFFCURVE",
"270 -20 OFFCURVE",
"728 -20 CURVE SMOOTH",
"1174 -20 OFFCURVE",
"1312 352 OFFCURVE",
"1312 714 CURVE SMOOTH",
"1312 1036 OFFCURVE",
"1216 1466 OFFCURVE",
"728 1466 CURVE SMOOTH",
"284 1466 OFFCURVE",
"198 1092 OFFCURVE",
"168 1018 CURVE SMOOTH",
"164 1008 OFFCURVE",
"162 1002 OFFCURVE",
"170 1000 CURVE SMOOTH",
"244 976 LINE SMOOTH",
"252 974 OFFCURVE",
"256 972 OFFCURVE",
"258 976 CURVE SMOOTH",
"286 1036 OFFCURVE",
"320 1382 OFFCURVE",
"728 1382 CURVE SMOOTH",
"1152 1382 OFFCURVE",
"1212 982 OFFCURVE",
"1212 752 CURVE SMOOTH"
);
},
{
closed = 1;
nodes = (
"1206 372 OFFCURVE",
"1110 64 OFFCURVE",
"728 64 CURVE SMOOTH",
"344 64 OFFCURVE",
"242 374 OFFCURVE",
"242 648 CURVE SMOOTH",
"242 656 OFFCURVE",
"246 660 OFFCURVE",
"258 660 CURVE SMOOTH",
"1212 660 LINE"
);
}
);
width = 1452;
}
);
leftKerningGroup = e;
leftMetricsKey = O;
rightKerningGroup = e;
rightMetricsKey = O;
unicode = 018F;
},
{
glyphname = T;
lastChange = "2019-04-16 18:49:16 +0000";
layers = (
{
anchors = (
{
name = bottom;
position = "{654, 0}";
},
{
name = top;
position = "{654, 1446}";
}
);
background = {
anchors = (
{
name = bottom;
position = "{656, 0}";
},
{
name = top;
position = "{656, 1484}";
}
);
paths = (
{
closed = 1;
nodes = (
"8 1172 OFFCURVE",
"26 1162 OFFCURVE",
"54 1162 CURVE SMOOTH",
"406 1162 LINE SMOOTH",
"422 1162 OFFCURVE",
"428 1154 OFFCURVE",
"428 1134 CURVE SMOOTH",
"428 40 LINE SMOOTH",
"428 14 OFFCURVE",
"442 0 OFFCURVE",
"464 0 CURVE SMOOTH",
"844 0 LINE SMOOTH",
"866 0 OFFCURVE",
"882 14 OFFCURVE",
"882 44 CURVE SMOOTH",
"882 1142 LINE SMOOTH",
"882 1156 OFFCURVE",
"890 1162 OFFCURVE",
"906 1162 CURVE SMOOTH",
"1260 1162 LINE SMOOTH",
"1286 1162 OFFCURVE",
"1304 1172 OFFCURVE",
"1304 1200 CURVE SMOOTH",
"1304 1438 LINE SMOOTH",
"1304 1464 OFFCURVE",
"1288 1484 OFFCURVE",
"1254 1484 CURVE SMOOTH",
"58 1484 LINE SMOOTH",
"24 1484 OFFCURVE",
"8 1464 OFFCURVE",
"8 1438 CURVE SMOOTH",
"8 1200 LINE SMOOTH"
);
}
);
};
layerId = "258ED206-D907-4350-8EBA-CBDDA1C16BF7";
paths = (
{
closed = 1;
nodes = (
"440 1104 LINE",
"440 0 LINE",
"830 0 LINE",
"830 1104 LINE",
"1244 1104 LINE",
"1244 1446 LINE",
"30 1446 LINE",
"30 1104 LINE"
);
}
);
width = 1274;
},
{
anchors = (
{
name = bottom;
position = "{568, 4}";
},
{
name = top;
position = "{568, 1446}";
}
);
background = {
anchors = (
{
name = bottom;
position = "{584, 0}";
},
{
name = top;
position = "{584, 1484}";
}
);
paths = (
{
closed = 1;
nodes = (
"32 1406 OFFCURVE",
"36 1404 OFFCURVE",
"48 1404 CURVE SMOOTH",
"516 1404 LINE SMOOTH",
"532 1404 OFFCURVE",
"536 1402 OFFCURVE",
"536 1386 CURVE SMOOTH",
"536 20 LINE SMOOTH",
"536 4 OFFCURVE",
"540 0 OFFCURVE",
"556 0 CURVE SMOOTH",
"610 0 LINE SMOOTH",
"624 0 OFFCURVE",
"628 4 OFFCURVE",
"628 20 CURVE SMOOTH",
"628 1386 LINE SMOOTH",
"628 1402 OFFCURVE",
"632 1404 OFFCURVE",
"648 1404 CURVE SMOOTH",
"1074 1404 LINE SMOOTH",
"1086 1404 OFFCURVE",
"1090 1406 OFFCURVE",
"1090 1418 CURVE SMOOTH",
"1090 1470 LINE SMOOTH",
"1090 1480 OFFCURVE",
"1086 1484 OFFCURVE",
"1076 1484 CURVE SMOOTH",
"46 1484 LINE SMOOTH",
"36 1484 OFFCURVE",
"32 1480 OFFCURVE",
"32 1470 CURVE SMOOTH",
"32 1418 LINE SMOOTH"
);
}
);
};
layerId = "91AB5BCA-6A50-42DA-B2F7-8181BF189245";
paths = (
{
closed = 1;
nodes = (
"526 1366 LINE",
"526 0 LINE",
"604 0 LINE",
"604 1366 LINE",
"1060 1366 LINE",
"1060 1446 LINE",
"30 1446 LINE",
"30 1366 LINE"
);
}
);
width = 1090;
}
);
leftKerningGroup = T;
rightKerningGroup = T;
unicode = 0054;
},
{
glyphname = Tbar;
lastChange = "2019-04-16 18:49:16 +0000";
layers = (
{
background = {
components = (
{
name = T;
transform = "{1, 0, 0, 1, -22, 0}";
}
);
paths = (
{
closed = 1;
nodes = (
"1064 828 OFFCURVE",
"1050 844 OFFCURVE",
"1028 844 CURVE SMOOTH",
"226 844 LINE SMOOTH",
"202 844 OFFCURVE",
"188 828 OFFCURVE",
"188 798 CURVE SMOOTH",
"188 612 LINE SMOOTH",
"188 578 OFFCURVE",
"200 562 OFFCURVE",
"240 562 CURVE SMOOTH",
"998 562 LINE SMOOTH",
"1044 562 OFFCURVE",
"1064 578 OFFCURVE",
"1064 618 CURVE SMOOTH",
"1064 804 LINE SMOOTH"
);
}
);
};
components = (
{
name = T;
}
);
layerId = "258ED206-D907-4350-8EBA-CBDDA1C16BF7";
paths = (
{
closed = 1;
nodes = (
"208 822 LINE",
"208 548 LINE",
"1062 548 LINE",
"1062 822 LINE"
);
}
);
width = 1274;
},
{
background = {
components = (
{
name = T;
transform = "{1, 0, 0, 1, 4, 0}";
}
);
guideLines = (
{
angle = 90;
position = "{179, 188}";
showMeasurement = 1;
}
);
paths = (
{
closed = 1;
nodes = (
"1016 798 OFFCURVE",
"1012 804 OFFCURVE",
"1002 804 CURVE SMOOTH",
"298 804 LINE SMOOTH",
"288 804 OFFCURVE",
"284 798 OFFCURVE",
"284 786 CURVE SMOOTH",
"284 740 LINE SMOOTH",
"284 726 OFFCURVE",
"288 720 OFFCURVE",
"304 720 CURVE SMOOTH",
"990 720 LINE SMOOTH",
"1008 720 OFFCURVE",
"1016 726 OFFCURVE",
"1016 742 CURVE SMOOTH",
"1016 788 LINE SMOOTH"
);
}
);
};
components = (
{
name = T;
}
);
guideLines = (
{
angle = 90;
position = "{233, 175}";
showMeasurement = 1;
}
);
layerId = "91AB5BCA-6A50-42DA-B2F7-8181BF189245";
paths = (
{
closed = 1;
nodes = (
"214 784 LINE",
"214 702 LINE",
"928 702 LINE",
"928 784 LINE"
);
}
);
width = 1090;
}
);
leftKerningGroup = T;
leftMetricsKey = T;
rightKerningGroup = T;
rightMetricsKey = T;
unicode = 0166;
},
{
glyphname = U;
lastChange = "2019-04-16 18:49:16 +0000";
layers = (
{
anchors = (
{
name = bottom;
position = "{764, 0}";
},
{
name = horn;
position = "{1320, 1094}";
},
{
name = ogonek;
position = "{922, 24}";
},
{
name = top;
position = "{764, 1446}";
}
);
background = {
anchors = (
{
name = ogonek;
position = "{954, 20}";
},
{
name = top;
position = "{764, 1484}";
}
);
paths = (
{
closed = 1;
nodes = (
"1370 1442 LINE SMOOTH",
"1370 1468 OFFCURVE",
"1358 1484 OFFCURVE",
"1334 1484 CURVE SMOOTH",
"1034 1484 LINE SMOOTH",
"1010 1484 OFFCURVE",
"996 1468 OFFCURVE",
"996 1438 CURVE SMOOTH",
"996 584 LINE SMOOTH",
"996 362 OFFCURVE",
"888 298 OFFCURVE",
"764 298 CURVE SMOOTH",
"628 298 OFFCURVE",
"544 374 OFFCURVE",
"544 578 CURVE SMOOTH",
"544 1442 LINE SMOOTH",
"544 1468 OFFCURVE",
"532 1484 OFFCURVE",
"508 1484 CURVE SMOOTH",
"128 1484 LINE SMOOTH",
"106 1484 OFFCURVE",
"90 1468 OFFCURVE",
"90 1438 CURVE SMOOTH",
"90 626 LINE SMOOTH",
"90 208 OFFCURVE",
"252 -20 OFFCURVE",
"730 -20 CURVE SMOOTH",
"1112 -20 OFFCURVE",
"1370 124 OFFCURVE",
"1370 586 CURVE SMOOTH"
);
}
);
};
layerId = "258ED206-D907-4350-8EBA-CBDDA1C16BF7";
paths = (
{
closed = 1;
nodes = (
"1388 1446 LINE",
"994 1446 LINE",
"994 582 LINE SMOOTH",
"994 382 OFFCURVE",
"884 306 OFFCURVE",
"764 306 CURVE SMOOTH",
"642 306 OFFCURVE",
"534 382 OFFCURVE",
"534 582 CURVE SMOOTH",
"534 1446 LINE",
"140 1446 LINE",
"140 598 LINE SMOOTH",
"140 230 OFFCURVE",
"298 -20 OFFCURVE",
"764 -20 CURVE SMOOTH",
"1230 -20 OFFCURVE",
"1388 230 OFFCURVE",
"1388 598 CURVE SMOOTH"
);
}
);
width = 1498;
},
{
anchors = (
{
name = bottom;
position = "{686, 4}";
},
{
name = horn;
position = "{1138, 1212}";
},
{
name = ogonek;
position = "{828, 18}";
},
{
name = top;
position = "{692, 1446}";
}
);
background = {
anchors = (
{
name = ogonek;
position = "{850, 18}";
},
{
name = top;
position = "{714, 1484}";
}
);
paths = (
{
closed = 1;
nodes = (
"1200 1466 LINE SMOOTH",
"1200 1478 OFFCURVE",
"1196 1484 OFFCURVE",
"1184 1484 CURVE SMOOTH",
"1136 1484 LINE SMOOTH",
"1124 1484 OFFCURVE",
"1120 1478 OFFCURVE",
"1120 1466 CURVE SMOOTH",
"1120 458 LINE SMOOTH",
"1120 194 OFFCURVE",
"986 64 OFFCURVE",
"710 64 CURVE SMOOTH",
"438 64 OFFCURVE",
"304 192 OFFCURVE",
"304 452 CURVE SMOOTH",
"304 1464 LINE SMOOTH",
"304 1480 OFFCURVE",
"300 1484 OFFCURVE",
"284 1484 CURVE SMOOTH",
"228 1484 LINE SMOOTH",
"216 1484 OFFCURVE",
"212 1478 OFFCURVE",
"212 1462 CURVE SMOOTH",
"212 490 LINE SMOOTH",
"212 142 OFFCURVE",
"370 -20 OFFCURVE",
"706 -20 CURVE SMOOTH",
"1038 -20 OFFCURVE",
"1200 138 OFFCURVE",
"1200 460 CURVE SMOOTH"
);
}
);
};
layerId = "91AB5BCA-6A50-42DA-B2F7-8181BF189245";
paths = (
{
closed = 1;
nodes = (
"1168 1446 LINE",
"1090 1446 LINE",
"1090 444 LINE SMOOTH",
"1090 188 OFFCURVE",
"956 56 OFFCURVE",
"688 56 CURVE SMOOTH",
"422 56 OFFCURVE",
"296 192 OFFCURVE",
"296 444 CURVE SMOOTH",
"296 1446 LINE",
"210 1446 LINE",
"210 478 LINE SMOOTH",
"210 138 OFFCURVE",
"360 -20 OFFCURVE",
"688 -20 CURVE SMOOTH",
"1010 -20 OFFCURVE",
"1168 134 OFFCURVE",
"1168 448 CURVE SMOOTH"
);
}
);
width = 1378;
}
);
leftKerningGroup = U;
rightKerningGroup = U;
unicode = 0055;
},
{
glyphname = V;
lastChange = "2019-04-16 18:49:16 +0000";
layers = (
{
background = {
paths = (
{
closed = 1;
nodes = (
"1082 1484 LINE SMOOTH",
"1058 1484 OFFCURVE",
"1036 1468 OFFCURVE",
"1030 1442 CURVE SMOOTH",
"780 566 LINE SMOOTH",
"774 546 OFFCURVE",
"766 546 OFFCURVE",
"760 564 CURVE SMOOTH",
"492 1442 LINE SMOOTH",
"484 1468 OFFCURVE",
"466 1484 OFFCURVE",
"442 1484 CURVE SMOOTH",
"56 1484 LINE SMOOTH",
"24 1484 OFFCURVE",
"6 1456 OFFCURVE",
"18 1426 CURVE SMOOTH",
"482 50 LINE SMOOTH",
"492 16 OFFCURVE",
"516 0 OFFCURVE",
"556 0 CURVE SMOOTH",
"880 0 LINE SMOOTH",
"920 0 OFFCURVE",
"944 16 OFFCURVE",
"954 50 CURVE SMOOTH",
"1418 1426 LINE SMOOTH",
"1428 1456 OFFCURVE",
"1412 1484 OFFCURVE",
"1380 1484 CURVE SMOOTH"
);
}
);
};
guideLines = (
{
angle = -108.62;
position = "{360, 211}";
}
);
layerId = "258ED206-D907-4350-8EBA-CBDDA1C16BF7";
paths = (
{
closed = 1;
nodes = (
"1056 1446 LINE",
"722 456 LINE",
"386 1446 LINE",
"20 1446 LINE",
"508 0 LINE",
"936 0 LINE",
"1424 1446 LINE"
);
}
);
width = 1444;
},
{
background = {
paths = (
{
closed = 1;
nodes = (
"1144 1484 LINE SMOOTH",
"1132 1484 OFFCURVE",
"1126 1480 OFFCURVE",
"1122 1470 CURVE SMOOTH",
"634 130 LINE SMOOTH",
"624 102 OFFCURVE",
"612 102 OFFCURVE",
"602 128 CURVE SMOOTH",
"128 1468 LINE SMOOTH",
"124 1480 OFFCURVE",
"118 1484 OFFCURVE",
"102 1484 CURVE SMOOTH",
"56 1484 LINE SMOOTH",
"42 1484 OFFCURVE",
"36 1476 OFFCURVE",
"40 1464 CURVE SMOOTH",
"550 20 LINE SMOOTH",
"554 6 OFFCURVE",
"566 0 OFFCURVE",
"588 0 CURVE SMOOTH",
"652 0 LINE SMOOTH",
"670 0 OFFCURVE",
"678 6 OFFCURVE",
"684 22 CURVE SMOOTH",
"1208 1466 LINE SMOOTH",
"1212 1476 OFFCURVE",
"1206 1484 OFFCURVE",
"1194 1484 CURVE SMOOTH"
);
}
);
};
layerId = "91AB5BCA-6A50-42DA-B2F7-8181BF189245";
paths = (
{
closed = 1;
nodes = (
"1098 1446 LINE",
"600 82 LINE",
"116 1446 LINE",
"30 1446 LINE",
"542 0 LINE",
"658 0 LINE",
"1182 1446 LINE"
);
}
);
width = 1212;
}
);
leftKerningGroup = V;
rightKerningGroup = V;
unicode = 0056;
},
{
glyphname = W;
lastChange = "2019-04-16 18:49:16 +0000";
layers = (
{
anchors = (
{
name = top;
position = "{982, 1446}";
}
);
background = {
anchors = (
{
name = top;
position = "{1030, 1484}";
}
);
paths = (
{
closed = 1;
nodes = (
"1790 1484 LINE SMOOTH",
"1748 1484 OFFCURVE",
"1732 1468 OFFCURVE",
"1726 1442 CURVE SMOOTH",
"1522 678 LINE SMOOTH",
"1518 662 OFFCURVE",
"1504 666 OFFCURVE",
"1500 682 CURVE SMOOTH",
"1280 1442 LINE SMOOTH",
"1272 1468 OFFCURVE",
"1258 1484 OFFCURVE",
"1216 1484 CURVE SMOOTH",
"936 1484 LINE SMOOTH",
"894 1484 OFFCURVE",
"878 1468 OFFCURVE",
"872 1442 CURVE SMOOTH",
"662 692 LINE SMOOTH",
"656 670 OFFCURVE",
"646 670 OFFCURVE",
"638 700 CURVE SMOOTH",
"426 1442 LINE SMOOTH",
"418 1468 OFFCURVE",
"404 1484 OFFCURVE",
"362 1484 CURVE SMOOTH",
"32 1484 LINE SMOOTH",
"-20 1484 OFFCURVE",
"-40 1450 OFFCURVE",
"-28 1404 CURVE SMOOTH",
"380 50 LINE SMOOTH",
"392 16 OFFCURVE",
"412 0 OFFCURVE",
"452 0 CURVE SMOOTH",
"738 0 LINE SMOOTH",
"780 0 OFFCURVE",
"800 16 OFFCURVE",
"810 50 CURVE SMOOTH",
"1016 750 LINE SMOOTH",
"1030 790 OFFCURVE",
"1040 786 OFFCURVE",
"1048 754 CURVE SMOOTH",
"1256 50 LINE SMOOTH",
"1266 16 OFFCURVE",
"1288 0 OFFCURVE",
"1328 0 CURVE SMOOTH",
"1604 0 LINE SMOOTH",
"1644 0 OFFCURVE",
"1664 16 OFFCURVE",
"1676 50 CURVE SMOOTH",
"2082 1404 LINE SMOOTH",
"2094 1450 OFFCURVE",
"2074 1484 OFFCURVE",
"2022 1484 CURVE SMOOTH"
);
}
);
};
guideLines = (
{
angle = -73.94;
position = "{214, 670}";
},
{
angle = 74.3834;
position = "{417, 670}";
}
);
layerId = "258ED206-D907-4350-8EBA-CBDDA1C16BF7";
paths = (
{
closed = 1;
nodes = (
"1558 1446 LINE",
"1342 670 LINE",
"1118 1446 LINE",
"846 1446 LINE",
"630 670 LINE",
"406 1446 LINE",
"30 1446 LINE",
"466 0 LINE",
"752 0 LINE",
"982 786 LINE",
"1212 0 LINE",
"1502 0 LINE",
"1934 1446 LINE"
);
}
);
width = 1964;
},
{
anchors = (
{
name = top;
position = "{942, 1446}";
}
);
background = {
anchors = (
{
name = top;
position = "{980, 1484}";
}
);
guideLines = (
{
position = "{24, 125}";
showMeasurement = 1;
}
);
paths = (
{
closed = 1;
nodes = (
"1824 1484 LINE SMOOTH",
"1812 1484 OFFCURVE",
"1802 1480 OFFCURVE",
"1800 1470 CURVE SMOOTH",
"1422 144 LINE SMOOTH",
"1414 116 OFFCURVE",
"1406 116 OFFCURVE",
"1398 142 CURVE SMOOTH",
"1028 1468 LINE SMOOTH",
"1024 1480 OFFCURVE",
"1020 1484 OFFCURVE",
"1004 1484 CURVE SMOOTH",
"954 1484 LINE SMOOTH",
"936 1484 OFFCURVE",
"930 1476 OFFCURVE",
"928 1470 CURVE SMOOTH",
"550 144 LINE SMOOTH",
"542 116 OFFCURVE",
"534 116 OFFCURVE",
"526 142 CURVE SMOOTH",
"156 1468 LINE SMOOTH",
"152 1480 OFFCURVE",
"148 1484 OFFCURVE",
"132 1484 CURVE SMOOTH",
"82 1484 LINE SMOOTH",
"68 1484 OFFCURVE",
"62 1476 OFFCURVE",
"66 1464 CURVE SMOOTH",
"470 20 LINE SMOOTH",
"474 6 OFFCURVE",
"486 0 OFFCURVE",
"506 0 CURVE SMOOTH",
"570 0 LINE SMOOTH",
"590 0 OFFCURVE",
"598 6 OFFCURVE",
"602 22 CURVE SMOOTH",
"972 1316 LINE SMOOTH",
"974 1324 OFFCURVE",
"978 1324 OFFCURVE",
"980 1316 CURVE SMOOTH",
"1342 20 LINE SMOOTH",
"1346 6 OFFCURVE",
"1358 0 OFFCURVE",
"1378 0 CURVE SMOOTH",
"1442 0 LINE SMOOTH",
"1462 0 OFFCURVE",
"1470 6 OFFCURVE",
"1474 22 CURVE SMOOTH",
"1888 1466 LINE SMOOTH",
"1890 1476 OFFCURVE",
"1886 1484 OFFCURVE",
"1874 1484 CURVE SMOOTH"
);
}
);
};
guideLines = (
{
position = "{97, 116}";
showMeasurement = 1;
}
);
layerId = "91AB5BCA-6A50-42DA-B2F7-8181BF189245";
paths = (
{
closed = 1;
nodes = (
"1742 1446 LINE",
"1358 98 LINE",
"980 1446 LINE",
"902 1446 LINE",
"518 98 LINE",
"148 1446 LINE",
"60 1446 LINE",
"466 0 LINE",
"570 0 LINE",
"940 1296 LINE",
"1302 0 LINE",
"1412 0 LINE",
"1828 1446 LINE"
);
}
);
width = 1888;
}
);
leftKerningGroup = W;
rightKerningGroup = W;
unicode = 0057;
},
{
glyphname = X;
lastChange = "2019-04-16 18:49:16 +0000";
layers = (
{
background = {
paths = (
{
closed = 1;
nodes = (
"976 806 LINE",
"1420 1484 LINE",
"986 1484 LINE",
"758 1082 LINE",
"530 1484 LINE",
"20 1484 LINE",
"492 748 LINE",
"74 102 LINE SMOOTH",
"22 22 OFFCURVE",
"44 0 OFFCURVE",
"100 0 CURVE SMOOTH",
"448 0 LINE",
"714 466 LINE",
"986 0 LINE",
"1406 0 LINE SMOOTH",
"1462 0 OFFCURVE",
"1484 24 OFFCURVE",
"1434 102 CURVE SMOOTH"
);
}
);
};
layerId = "258ED206-D907-4350-8EBA-CBDDA1C16BF7";
paths = (
{
closed = 1;
nodes = (
"946 786 LINE",
"1378 1446 LINE",
"970 1446 LINE",
"748 1054 LINE",
"524 1446 LINE",
"42 1446 LINE",
"502 730 LINE",
"30 0 LINE",
"444 0 LINE",
"704 454 LINE",
"970 0 LINE",
"1456 0 LINE"
);
}
);
width = 1486;
},
{
background = {
guideLines = (
{
angle = 90;
position = "{44, 437}";
},
{
angle = 90;
position = "{555, 372}";
},
{
position = "{10, 716}";
showMeasurement = 1;
},
{
position = "{4, 32}";
showMeasurement = 1;
},
{
position = "{74, 454}";
showMeasurement = 1;
},
{
position = "{72, 290}";
showMeasurement = 1;
},
{
angle = 236.602;
position = "{287, 374}";
},
{
angle = 123.344;
position = "{344, 374}";
},
{
angle = 56.5817;
position = "{332, 370}";
},
{
angle = 123.4;
position = "{297, 370}";
}
);
paths = (
{
closed = 1;
nodes = (
"692 748 LINE SMOOTH",
"684 760 OFFCURVE",
"686 768 OFFCURVE",
"694 780 CURVE SMOOTH",
"1162 1472 LINE SMOOTH",
"1166 1478 OFFCURVE",
"1166 1484 OFFCURVE",
"1158 1484 CURVE SMOOTH",
"1076 1484 LINE SMOOTH",
"1068 1484 OFFCURVE",
"1064 1482 OFFCURVE",
"1060 1476 CURVE SMOOTH",
"646 862 LINE SMOOTH",
"632 842 OFFCURVE",
"624 844 OFFCURVE",
"612 860 CURVE SMOOTH",
"198 1476 LINE SMOOTH",
"194 1482 OFFCURVE",
"192 1484 OFFCURVE",
"180 1484 CURVE SMOOTH",
"102 1484 LINE SMOOTH",
"94 1484 OFFCURVE",
"92 1474 OFFCURVE",
"96 1468 CURVE SMOOTH",
"560 782 LINE SMOOTH",
"570 766 OFFCURVE",
"572 754 OFFCURVE",
"562 740 CURVE SMOOTH",
"78 20 LINE SMOOTH",
"68 4 OFFCURVE",
"72 0 OFFCURVE",
"84 0 CURVE SMOOTH",
"156 0 LINE SMOOTH",
"162 0 OFFCURVE",
"168 2 OFFCURVE",
"172 8 CURVE SMOOTH",
"606 648 LINE SMOOTH",
"626 678 OFFCURVE",
"634 676 OFFCURVE",
"648 654 CURVE SMOOTH",
"1088 8 LINE SMOOTH",
"1092 2 OFFCURVE",
"1094 0 OFFCURVE",
"1102 0 CURVE SMOOTH",
"1174 0 LINE SMOOTH",
"1186 0 OFFCURVE",
"1194 4 OFFCURVE",
"1182 20 CURVE SMOOTH"
);
}
);
};
guideLines = (
{
angle = 90;
position = "{115, 405}";
},
{
angle = 90;
position = "{565, 345}";
},
{
position = "{85, 664}";
showMeasurement = 1;
},
{
position = "{80, 29}";
showMeasurement = 1;
},
{
position = "{141, 421}";
showMeasurement = 1;
},
{
position = "{139, 269}";
showMeasurement = 1;
},
{
angle = 236.602;
position = "{329, 347}";
},
{
angle = 123.344;
position = "{378, 347}";
},
{
angle = 56.5817;
position = "{369, 343}";
},
{
angle = 123.4;
position = "{337, 343}";
}
);
layerId = "91AB5BCA-6A50-42DA-B2F7-8181BF189245";
paths = (
{
closed = 1;
nodes = (
"662 742 LINE",
"1138 1446 LINE",
"1038 1446 LINE",
"610 816 LINE",
"186 1446 LINE",
"82 1446 LINE",
"560 742 LINE",
"60 0 LINE",
"160 0 LINE",
"612 664 LINE",
"1064 0 LINE",
"1164 0 LINE"
);
}
);
width = 1224;
}
);
leftKerningGroup = X;
rightKerningGroup = X;
unicode = 0058;
},
{
glyphname = Y;
lastChange = "2019-04-16 18:49:16 +0000";
layers = (
{
anchors = (
{
name = bottom;
position = "{716, 0}";
},
{
name = top;
position = "{766, 1446}";
}
);
background = {
anchors = (
{
name = top;
position = "{764, 1484}";
}
);
paths = (
{
closed = 1;
nodes = (
"1110 1484 LINE SMOOTH",
"1072 1484 OFFCURVE",
"1058 1476 OFFCURVE",
"1042 1442 CURVE SMOOTH",
"800 996 LINE SMOOTH",
"786 972 OFFCURVE",
"778 974 OFFCURVE",
"766 998 CURVE SMOOTH",
"520 1442 LINE SMOOTH",
"502 1474 OFFCURVE",
"492 1484 OFFCURVE",
"452 1484 CURVE SMOOTH",
"50 1484 LINE SMOOTH",
"8 1484 OFFCURVE",
"-6 1460 OFFCURVE",
"14 1428 CURVE SMOOTH",
"482 664 LINE SMOOTH",
"500 634 OFFCURVE",
"510 618 OFFCURVE",
"510 576 CURVE SMOOTH",
"510 50 LINE SMOOTH",
"510 16 OFFCURVE",
"522 0 OFFCURVE",
"562 0 CURVE SMOOTH",
"898 0 LINE SMOOTH",
"944 0 OFFCURVE",
"964 16 OFFCURVE",
"964 58 CURVE SMOOTH",
"964 550 LINE SMOOTH",
"964 634 OFFCURVE",
"966 654 OFFCURVE",
"984 682 CURVE SMOOTH",
"1452 1438 LINE SMOOTH",
"1468 1464 OFFCURVE",
"1458 1484 OFFCURVE",
"1424 1484 CURVE SMOOTH"
);
}
);
};
guideLines = (
{
angle = 58.823;
position = "{488, 670}";
}
);
layerId = "258ED206-D907-4350-8EBA-CBDDA1C16BF7";
paths = (
{
closed = 1;
nodes = (
"1000 1446 LINE",
"716 932 LINE",
"430 1446 LINE",
"10 1446 LINE",
"520 602 LINE",
"520 0 LINE",
"910 0 LINE",
"910 602 LINE",
"1424 1446 LINE"
);
}
);
width = 1434;
},
{
anchors = (
{
name = bottom;
position = "{544, 0}";
},
{
name = top;
position = "{540, 1450}";
}
);
background = {
anchors = (
{
name = top;
position = "{548, 1484}";
}
);
paths = (
{
closed = 1;
nodes = (
"1032 1484 LINE SMOOTH",
"1014 1484 OFFCURVE",
"1010 1482 OFFCURVE",
"1000 1466 CURVE SMOOTH",
"582 748 LINE SMOOTH",
"566 722 OFFCURVE",
"552 720 OFFCURVE",
"534 752 CURVE SMOOTH",
"114 1466 LINE SMOOTH",
"106 1480 OFFCURVE",
"100 1484 OFFCURVE",
"82 1484 CURVE SMOOTH",
"36 1484 LINE SMOOTH",
"16 1484 OFFCURVE",
"12 1474 OFFCURVE",
"20 1460 CURVE SMOOTH",
"508 630 LINE SMOOTH",
"516 616 OFFCURVE",
"518 610 OFFCURVE",
"518 590 CURVE SMOOTH",
"518 22 LINE SMOOTH",
"518 8 OFFCURVE",
"524 0 OFFCURVE",
"542 0 CURVE SMOOTH",
"580 0 LINE SMOOTH",
"602 0 OFFCURVE",
"610 8 OFFCURVE",
"610 26 CURVE SMOOTH",
"610 612 LINE SMOOTH",
"610 632 OFFCURVE",
"610 640 OFFCURVE",
"618 652 CURVE SMOOTH",
"1096 1462 LINE SMOOTH",
"1104 1474 OFFCURVE",
"1098 1484 OFFCURVE",
"1084 1484 CURVE SMOOTH"
);
}
);
};
guideLines = (
{
angle = 239.8907;
position = "{229, 335}";
},
{
angle = -59.5603;
position = "{194, 328}";
}
);
layerId = "91AB5BCA-6A50-42DA-B2F7-8181BF189245";
paths = (
{
closed = 1;
nodes = (
"972 1446 LINE",
"544 702 LINE",
"108 1446 LINE",
"20 1446 LINE",
"504 624 LINE",
"504 0 LINE",
"582 0 LINE",
"582 622 LINE",
"1058 1446 LINE"
);
}
);
width = 1078;
}
);
leftKerningGroup = Y;
rightKerningGroup = Y;
unicode = 0059;
},
{
glyphname = Z;
lastChange = "2019-04-16 18:49:16 +0000";
layers = (
{
anchors = (
{
name = bottom;
position = "{716, 0}";
},
{
name = top;
position = "{762, 1446}";
}
);
background = {
anchors = (
{
name = bottom;
position = "{712, 0}";
},
{
name = top;
position = "{760, 1484}";
}
);
paths = (
{
closed = 1;
nodes = (
"1372 0 LINE",
"1372 332 LINE",
"690 332 LINE",
"1384 1308 LINE",
"1384 1484 LINE",
"136 1484 LINE",
"136 1154 LINE",
"750 1154 LINE",
"70 182 LINE",
"70 0 LINE"
);
}
);
};
layerId = "258ED206-D907-4350-8EBA-CBDDA1C16BF7";
paths = (
{
closed = 1;
nodes = (
"1320 0 LINE",
"1320 324 LINE",
"636 324 LINE",
"1332 1276 LINE",
"1332 1446 LINE",
"154 1446 LINE",
"154 1126 LINE",
"772 1126 LINE",
"90 178 LINE",
"90 0 LINE"
);
}
);
width = 1412;
},
{
anchors = (
{
name = bottom;
position = "{610, 0}";
},
{
name = top;
position = "{596, 1446}";
}
);
background = {
anchors = (
{
name = bottom;
position = "{628, 0}";
},
{
name = top;
position = "{614, 1484}";
}
);
paths = (
{
closed = 1;
nodes = (
"1092 0 LINE",
"1092 80 LINE",
"224 80 LINE",
"1092 1430 LINE",
"1092 1484 LINE",
"134 1484 LINE",
"134 1404 LINE",
"976 1404 LINE",
"114 56 LINE",
"114 0 LINE"
);
}
);
};
guideLines = (
{
angle = 237.1304;
position = "{462, 659}";
}
);
layerId = "91AB5BCA-6A50-42DA-B2F7-8181BF189245";
paths = (
{
closed = 1;
nodes = (
"1062 0 LINE",
"1062 78 LINE",
"208 78 LINE",
"1062 1386 LINE",
"1062 1446 LINE",
"128 1446 LINE",
"128 1368 LINE",
"960 1368 LINE",
"110 62 LINE",
"110 0 LINE"
);
}
);
width = 1172;
}
);
leftKerningGroup = Z;
rightKerningGroup = Z;
unicode = 005A;
},
{
glyphname = a;
lastChange = "2019-04-21 20:23:37 +0000";
layers = (
{
anchors = (
{
name = bottom;
position = "{582, 0}";
},
{
name = ogonek;
position = "{996, 20}";
},
{
name = top;
position = "{584, 1034}";
}
);
background = {
anchors = (
{
name = ogonek;
position = "{984, 20}";
},
{
name = top;
position = "{560, 1060}";
}
);
guideLines = (
{
angle = 90;
position = "{330, 102}";
}
);
paths = (
{
closed = 1;
nodes = (
"646 112 OFFCURVE",
"662 110 OFFCURVE",
"666 84 CURVE SMOOTH",
"668 70 LINE SMOOTH",
"674 32 OFFCURVE",
"684 0 OFFCURVE",
"720 0 CURVE SMOOTH",
"994 0 LINE SMOOTH",
"1032 0 OFFCURVE",
"1040 14 OFFCURVE",
"1040 54 CURVE SMOOTH",
"1040 750 LINE SMOOTH",
"1040 946 OFFCURVE",
"930 1080 OFFCURVE",
"560 1080 CURVE SMOOTH",
"298 1080 OFFCURVE",
"116 1012 OFFCURVE",
"56 842 CURVE SMOOTH",
"38 792 OFFCURVE",
"50 782 OFFCURVE",
"70 778 CURVE SMOOTH",
"332 726 LINE SMOOTH",
"368 720 OFFCURVE",
"376 726 OFFCURVE",
"386 748 CURVE SMOOTH",
"420 822 OFFCURVE",
"486 842 OFFCURVE",
"542 842 CURVE SMOOTH",
"622 842 OFFCURVE",
"660 800 OFFCURVE",
"660 726 CURVE SMOOTH",
"660 692 LINE SMOOTH",
"660 668 OFFCURVE",
"640 664 OFFCURVE",
"630 664 CURVE SMOOTH",
"616 664 LINE SMOOTH",
"238 664 OFFCURVE",
"2 506 OFFCURVE",
"2 272 CURVE SMOOTH",
"2 106 OFFCURVE",
"122 -20 OFFCURVE",
"322 -20 CURVE SMOOTH",
"446 -20 OFFCURVE",
"540 24 OFFCURVE",
"612 84 CURVE SMOOTH"
);
},
{
closed = 1;
nodes = (
"660 342 LINE SMOOTH",
"660 312 OFFCURVE",
"638 290 OFFCURVE",
"614 270 CURVE SMOOTH",
"592 252 OFFCURVE",
"556 232 OFFCURVE",
"504 232 CURVE SMOOTH",
"432 232 OFFCURVE",
"390 270 OFFCURVE",
"390 326 CURVE SMOOTH",
"390 438 OFFCURVE",
"558 484 OFFCURVE",
"622 484 CURVE SMOOTH",
"630 484 LINE SMOOTH",
"654 484 OFFCURVE",
"660 472 OFFCURVE",
"660 448 CURVE SMOOTH"
);
}
);
};
guideLines = (
{
angle = 270;
position = "{327, 93}";
},
{
angle = 270;
position = "{292, 516}";
}
);
layerId = "258ED206-D907-4350-8EBA-CBDDA1C16BF7";
paths = (
{
closed = 1;
nodes = (
"548 -20 OFFCURVE",
"634 24 OFFCURVE",
"696 164 CURVE",
"730 0 LINE",
"1052 0 LINE",
"1052 732 LINE SMOOTH",
"1052 922 OFFCURVE",
"944 1054 OFFCURVE",
"584 1054 CURVE SMOOTH",
"318 1054 OFFCURVE",
"102 956 OFFCURVE",
"90 712 CURVE",
"406 712 LINE",
"438 782 OFFCURVE",
"512 800 OFFCURVE",
"566 802 CURVE SMOOTH",
"644 804 OFFCURVE",
"680 774 OFFCURVE",
"680 708 CURVE SMOOTH",
"680 664 LINE",
"600 664 LINE SMOOTH",
"224 664 OFFCURVE",
"50 534 OFFCURVE",
"50 310 CURVE SMOOTH",
"50 96 OFFCURVE",
"212 -20 OFFCURVE",
"408 -20 CURVE SMOOTH"
);
},
{
closed = 1;
nodes = (
"478 226 OFFCURVE",
"416 272 OFFCURVE",
"416 350 CURVE SMOOTH",
"416 452 OFFCURVE",
"556 480 OFFCURVE",
"618 480 CURVE SMOOTH",
"680 480 LINE",
"680 350 LINE",
"678 284 OFFCURVE",
"620 226 OFFCURVE",
"544 226 CURVE SMOOTH"
);
}
);
width = 1144;
},
{
anchors = (
{
name = bottom;
position = "{536, 0}";
},
{
name = ogonek;
position = "{896, 28}";
},
{
name = top;
position = "{536, 1034}";
}
);
background = {
anchors = (
{
name = ogonek;
position = "{922, 28}";
},
{
name = top;
position = "{552, 1060}";
}
);
paths = (
{
closed = 1;
nodes = (
"846 156 OFFCURVE",
"854 154 OFFCURVE",
"856 140 CURVE SMOOTH",
"860 18 LINE SMOOTH",
"860 4 OFFCURVE",
"866 0 OFFCURVE",
"878 0 CURVE SMOOTH",
"914 0 LINE SMOOTH",
"926 0 OFFCURVE",
"934 4 OFFCURVE",
"934 20 CURVE SMOOTH",
"934 734 LINE SMOOTH",
"934 950 OFFCURVE",
"786 1080 OFFCURVE",
"560 1080 CURVE SMOOTH",
"370 1080 OFFCURVE",
"236 986 OFFCURVE",
"152 862 CURVE SMOOTH",
"144 852 OFFCURVE",
"146 846 OFFCURVE",
"152 842 CURVE SMOOTH",
"200 812 LINE SMOOTH",
"208 806 OFFCURVE",
"212 810 OFFCURVE",
"220 820 CURVE SMOOTH",
"310 940 OFFCURVE",
"418 1004 OFFCURVE",
"556 1004 CURVE SMOOTH",
"736 1004 OFFCURVE",
"854 896 OFFCURVE",
"854 726 CURVE SMOOTH",
"854 664 LINE SMOOTH",
"854 646 OFFCURVE",
"842 636 OFFCURVE",
"820 634 CURVE SMOOTH",
"610 616 LINE SMOOTH",
"282 588 OFFCURVE",
"116 472 OFFCURVE",
"116 270 CURVE SMOOTH",
"116 90 OFFCURVE",
"246 -20 OFFCURVE",
"456 -20 CURVE SMOOTH",
"604 -20 OFFCURVE",
"726 34 OFFCURVE",
"836 144 CURVE SMOOTH"
);
},
{
closed = 1;
nodes = (
"854 342 LINE SMOOTH",
"854 282 OFFCURVE",
"814 214 OFFCURVE",
"740 154 CURVE SMOOTH",
"664 94 OFFCURVE",
"566 56 OFFCURVE",
"468 56 CURVE SMOOTH",
"306 56 OFFCURVE",
"200 138 OFFCURVE",
"200 276 CURVE SMOOTH",
"200 430 OFFCURVE",
"334 522 OFFCURVE",
"648 546 CURVE SMOOTH",
"826 560 LINE SMOOTH",
"844 562 OFFCURVE",
"854 554 OFFCURVE",
"854 532 CURVE SMOOTH"
);
}
);
};
guideLines = (
{
position = "{368, 208}";
showMeasurement = 1;
}
);
hints = (
{
horizontal = 1;
place = "{7662, 362}";
type = Stem;
}
);
layerId = "91AB5BCA-6A50-42DA-B2F7-8181BF189245";
paths = (
{
closed = 1;
nodes = (
"594 -20 OFFCURVE",
"742 28 OFFCURVE",
"832 200 CURVE",
"836 0 LINE",
"908 0 LINE",
"908 716 LINE SMOOTH",
"908 926 OFFCURVE",
"754 1054 OFFCURVE",
"534 1054 CURVE SMOOTH",
"294 1054 OFFCURVE",
"162 904 OFFCURVE",
"152 758 CURVE",
"236 758 LINE",
"258 900 OFFCURVE",
"380 978 OFFCURVE",
"530 978 CURVE SMOOTH",
"706 978 OFFCURVE",
"830 880 OFFCURVE",
"830 714 CURVE SMOOTH",
"830 614 LINE",
"592 606 LINE SMOOTH",
"248 594 OFFCURVE",
"110 496 OFFCURVE",
"110 264 CURVE SMOOTH",
"110 88 OFFCURVE",
"238 -20 OFFCURVE",
"442 -20 CURVE SMOOTH"
);
},
{
closed = 1;
nodes = (
"296 54 OFFCURVE",
"192 134 OFFCURVE",
"192 270 CURVE SMOOTH",
"192 450 OFFCURVE",
"300 526 OFFCURVE",
"630 532 CURVE SMOOTH",
"830 536 LINE",
"830 334 LINE SMOOTH",
"830 194 OFFCURVE",
"626 54 OFFCURVE",
"454 54 CURVE SMOOTH"
);
}
);
width = 1068;
}
);
leftKerningGroup = a;
rightKerningGroup = n;
unicode = 0061;
},
{
glyphname = ae;
lastChange = "2019-04-21 18:54:53 +0000";
layers = (
{
anchors = (
{
name = top;
position = "{904, 1034}";
}
);
background = {
anchors = (
{
name = top;
position = "{890, 1060}";
}
);
paths = (
{
closed = 1;
nodes = (
"1734 458 LINE SMOOTH",
"1768 460 OFFCURVE",
"1770 474 OFFCURVE",
"1770 508 CURVE SMOOTH",
"1770 870 OFFCURVE",
"1540 1080 OFFCURVE",
"1226 1080 CURVE SMOOTH",
"1122 1080 OFFCURVE",
"1022 1052 OFFCURVE",
"936 1000 CURVE",
"860 1050 OFFCURVE",
"742 1078 OFFCURVE",
"564 1080 CURVE SMOOTH",
"258 1080 OFFCURVE",
"144 998 OFFCURVE",
"68 842 CURVE SMOOTH",
"58 820 OFFCURVE",
"64 782 OFFCURVE",
"82 778 CURVE SMOOTH",
"344 726 LINE SMOOTH",
"380 720 OFFCURVE",
"388 722 OFFCURVE",
"398 748 CURVE",
"432 822 OFFCURVE",
"498 842 OFFCURVE",
"554 842 CURVE SMOOTH",
"634 842 OFFCURVE",
"672 800 OFFCURVE",
"672 726 CURVE SMOOTH",
"672 692 LINE SMOOTH",
"672 668 OFFCURVE",
"652 664 OFFCURVE",
"636 664 CURVE",
"590 662 LINE SMOOTH",
"206 644 OFFCURVE",
"14 500 OFFCURVE",
"14 286 CURVE SMOOTH",
"14 104 OFFCURVE",
"134 -20 OFFCURVE",
"360 -20 CURVE SMOOTH",
"544 -20 OFFCURVE",
"674 24 OFFCURVE",
"796 142 CURVE SMOOTH",
"804 150 OFFCURVE",
"810 150 OFFCURVE",
"818 142 CURVE SMOOTH",
"918 40 OFFCURVE",
"1066 -20 OFFCURVE",
"1234 -20 CURVE SMOOTH",
"1458 -20 OFFCURVE",
"1594 34 OFFCURVE",
"1738 236 CURVE",
"1756 258 OFFCURVE",
"1750 276 OFFCURVE",
"1730 284 CURVE SMOOTH",
"1548 358 LINE SMOOTH",
"1522 368 OFFCURVE",
"1516 366 OFFCURVE",
"1506 356 CURVE SMOOTH",
"1418 270 OFFCURVE",
"1356 244 OFFCURVE",
"1288 244 CURVE SMOOTH",
"1172 244 OFFCURVE",
"1082 302 OFFCURVE",
"1082 424 CURVE SMOOTH",
"1082 448 OFFCURVE",
"1092 458 OFFCURVE",
"1112 458 CURVE SMOOTH"
);
},
{
closed = 1;
nodes = (
"1344 846 OFFCURVE",
"1382 744 OFFCURVE",
"1382 692 CURVE SMOOTH",
"1382 668 OFFCURVE",
"1374 664 OFFCURVE",
"1348 664 CURVE SMOOTH",
"1088 666 LINE",
"1086 790 OFFCURVE",
"1162 846 OFFCURVE",
"1244 846 CURVE SMOOTH"
);
},
{
closed = 1;
nodes = (
"672 320 LINE SMOOTH",
"672 254 OFFCURVE",
"598 216 OFFCURVE",
"522 216 CURVE SMOOTH",
"444 216 OFFCURVE",
"402 254 OFFCURVE",
"402 312 CURVE SMOOTH",
"402 410 OFFCURVE",
"532 460 OFFCURVE",
"608 466 CURVE SMOOTH",
"636 468 LINE SMOOTH",
"660 468 OFFCURVE",
"672 456 OFFCURVE",
"672 432 CURVE SMOOTH"
);
}
);
};
layerId = "258ED206-D907-4350-8EBA-CBDDA1C16BF7";
paths = (
{
closed = 1;
nodes = (
"1762 446 LINE",
"1762 830 OFFCURVE",
"1538 1054 OFFCURVE",
"1232 1054 CURVE SMOOTH",
"1132 1054 OFFCURVE",
"1034 1026 OFFCURVE",
"950 976 CURVE",
"876 1024 OFFCURVE",
"760 1052 OFFCURVE",
"586 1054 CURVE SMOOTH",
"274 1054 OFFCURVE",
"154 954 OFFCURVE",
"76 766 CURVE",
"412 700 LINE",
"448 796 OFFCURVE",
"518 820 OFFCURVE",
"578 820 CURVE SMOOTH",
"656 820 OFFCURVE",
"692 780 OFFCURVE",
"692 708 CURVE SMOOTH",
"692 650 LINE",
"612 646 LINE SMOOTH",
"238 628 OFFCURVE",
"50 488 OFFCURVE",
"50 278 CURVE SMOOTH",
"50 102 OFFCURVE",
"168 -20 OFFCURVE",
"388 -20 CURVE SMOOTH",
"568 -20 OFFCURVE",
"694 24 OFFCURVE",
"814 138 CURVE SMOOTH",
"820 146 OFFCURVE",
"826 146 OFFCURVE",
"834 138 CURVE SMOOTH",
"932 40 OFFCURVE",
"1076 -20 OFFCURVE",
"1240 -20 CURVE SMOOTH",
"1468 -20 OFFCURVE",
"1608 40 OFFCURVE",
"1756 264 CURVE",
"1520 360 LINE",
"1428 268 OFFCURVE",
"1364 238 OFFCURVE",
"1292 238 CURVE SMOOTH",
"1180 238 OFFCURVE",
"1092 304 OFFCURVE",
"1092 446 CURVE"
);
},
{
closed = 1;
nodes = (
"1348 824 OFFCURVE",
"1384 708 OFFCURVE",
"1384 648 CURVE",
"1098 650 LINE",
"1096 770 OFFCURVE",
"1170 824 OFFCURVE",
"1250 824 CURVE SMOOTH"
);
},
{
closed = 1;
nodes = (
"692 312 LINE SMOOTH",
"692 248 OFFCURVE",
"620 210 OFFCURVE",
"546 210 CURVE SMOOTH",
"470 210 OFFCURVE",
"430 248 OFFCURVE",
"430 304 CURVE SMOOTH",
"430 400 OFFCURVE",
"556 448 OFFCURVE",
"630 454 CURVE SMOOTH",
"692 458 LINE"
);
}
);
width = 1822;
},
{
anchors = (
{
name = top;
position = "{900, 1034}";
}
);
background = {
anchors = (
{
name = top;
position = "{926, 1060}";
}
);
paths = (
{
closed = 1;
nodes = (
"1746 508 LINE SMOOTH",
"1774 508 OFFCURVE",
"1782 522 OFFCURVE",
"1782 548 CURVE SMOOTH",
"1782 888 OFFCURVE",
"1598 1080 OFFCURVE",
"1324 1080 CURVE SMOOTH",
"1136 1080 OFFCURVE",
"992 1000 OFFCURVE",
"912 842 CURVE",
"872 1002 OFFCURVE",
"760 1080 OFFCURVE",
"562 1080 CURVE SMOOTH",
"392 1080 OFFCURVE",
"238 1000 OFFCURVE",
"152 862 CURVE SMOOTH",
"146 852 OFFCURVE",
"146 846 OFFCURVE",
"152 842 CURVE SMOOTH",
"196 812 LINE SMOOTH",
"204 806 OFFCURVE",
"208 808 OFFCURVE",
"218 820 CURVE SMOOTH",
"310 940 OFFCURVE",
"418 1004 OFFCURVE",
"546 1004 CURVE SMOOTH",
"746 1004 OFFCURVE",
"854 896 OFFCURVE",
"854 726 CURVE SMOOTH",
"854 664 LINE SMOOTH",
"854 646 OFFCURVE",
"842 636 OFFCURVE",
"818 634 CURVE SMOOTH",
"594 616 LINE SMOOTH",
"268 588 OFFCURVE",
"116 468 OFFCURVE",
"116 272 CURVE SMOOTH",
"116 90 OFFCURVE",
"240 -20 OFFCURVE",
"448 -20 CURVE SMOOTH",
"710 -20 OFFCURVE",
"826 124 OFFCURVE",
"898 216 CURVE SMOOTH",
"902 222 OFFCURVE",
"904 222 OFFCURVE",
"908 216 CURVE SMOOTH",
"966 130 OFFCURVE",
"1074 -20 OFFCURVE",
"1318 -20 CURVE SMOOTH",
"1512 -20 OFFCURVE",
"1674 74 OFFCURVE",
"1742 200 CURVE SMOOTH",
"1748 212 OFFCURVE",
"1746 216 OFFCURVE",
"1740 220 CURVE SMOOTH",
"1696 250 LINE SMOOTH",
"1686 256 OFFCURVE",
"1684 254 OFFCURVE",
"1674 242 CURVE SMOOTH",
"1616 162 OFFCURVE",
"1530 56 OFFCURVE",
"1322 56 CURVE SMOOTH",
"1098 56 OFFCURVE",
"922 268 OFFCURVE",
"922 456 CURVE SMOOTH",
"922 498 OFFCURVE",
"928 506 OFFCURVE",
"962 506 CURVE SMOOTH"
);
},
{
closed = 1;
nodes = (
"1538 1004 OFFCURVE",
"1696 828 OFFCURVE",
"1696 612 CURVE SMOOTH",
"1696 588 OFFCURVE",
"1694 580 OFFCURVE",
"1662 580 CURVE SMOOTH",
"926 582 LINE",
"928 836 OFFCURVE",
"1098 1004 OFFCURVE",
"1318 1004 CURVE SMOOTH"
);
},
{
closed = 1;
nodes = (
"854 354 LINE",
"854 198 OFFCURVE",
"682 68 OFFCURVE",
"468 58 CURVE SMOOTH",
"300 50 OFFCURVE",
"202 142 OFFCURVE",
"202 276 CURVE SMOOTH",
"202 430 OFFCURVE",
"334 520 OFFCURVE",
"634 544 CURVE SMOOTH",
"824 558 LINE SMOOTH",
"850 560 OFFCURVE",
"854 550 OFFCURVE",
"854 530 CURVE SMOOTH"
);
}
);
};
hints = (
{
horizontal = 1;
place = "{7662, 362}";
type = Stem;
}
);
layerId = "91AB5BCA-6A50-42DA-B2F7-8181BF189245";
paths = (
{
closed = 1;
nodes = (
"1736 496 LINE",
"1736 852 OFFCURVE",
"1556 1054 OFFCURVE",
"1288 1054 CURVE SMOOTH",
"1106 1054 OFFCURVE",
"966 976 OFFCURVE",
"888 820 CURVE",
"848 976 OFFCURVE",
"738 1054 OFFCURVE",
"546 1054 CURVE SMOOTH",
"376 1054 OFFCURVE",
"224 970 OFFCURVE",
"138 826 CURVE",
"198 784 LINE",
"292 910 OFFCURVE",
"402 978 OFFCURVE",
"530 978 CURVE SMOOTH",
"726 978 OFFCURVE",
"830 874 OFFCURVE",
"830 708 CURVE SMOOTH",
"830 620 LINE",
"576 600 LINE SMOOTH",
"260 574 OFFCURVE",
"110 456 OFFCURVE",
"110 266 CURVE SMOOTH",
"110 88 OFFCURVE",
"232 -20 OFFCURVE",
"434 -20 CURVE SMOOTH",
"690 -20 OFFCURVE",
"804 120 OFFCURVE",
"874 210 CURVE SMOOTH",
"878 216 OFFCURVE",
"880 216 OFFCURVE",
"884 210 CURVE SMOOTH",
"940 126 OFFCURVE",
"1044 -20 OFFCURVE",
"1282 -20 CURVE SMOOTH",
"1476 -20 OFFCURVE",
"1636 78 OFFCURVE",
"1704 208 CURVE",
"1642 252 LINE",
"1584 166 OFFCURVE",
"1496 54 OFFCURVE",
"1286 54 CURVE SMOOTH",
"1068 54 OFFCURVE",
"896 286 OFFCURVE",
"896 494 CURVE"
);
},
{
closed = 1;
nodes = (
"1498 978 OFFCURVE",
"1652 794 OFFCURVE",
"1652 566 CURVE",
"900 568 LINE",
"902 816 OFFCURVE",
"1068 978 OFFCURVE",
"1282 978 CURVE SMOOTH"
);
},
{
closed = 1;
nodes = (
"830 346 LINE",
"830 194 OFFCURVE",
"662 66 OFFCURVE",
"454 56 CURVE SMOOTH",
"290 48 OFFCURVE",
"194 138 OFFCURVE",
"194 270 CURVE SMOOTH",
"194 420 OFFCURVE",
"324 508 OFFCURVE",
"616 530 CURVE SMOOTH",
"830 546 LINE"
);
}
);
width = 1846;
}
);
leftKerningGroup = a;
leftMetricsKey = a;
rightKerningGroup = e;
rightMetricsKey = e;
unicode = 00E6;
},
{
glyphname = b;
lastChange = "2019-04-21 18:54:53 +0000";
layers = (
{
background = {
paths = (
{
closed = 1;
nodes = (
"318 0 OFFCURVE",
"334 14 OFFCURVE",
"344 46 CURVE SMOOTH",
"376 140 LINE SMOOTH",
"382 156 OFFCURVE",
"390 158 OFFCURVE",
"402 146 CURVE SMOOTH",
"480 44 OFFCURVE",
"588 -20 OFFCURVE",
"714 -20 CURVE SMOOTH",
"1006 -20 OFFCURVE",
"1168 198 OFFCURVE",
"1168 538 CURVE SMOOTH",
"1168 872 OFFCURVE",
"1016 1080 OFFCURVE",
"756 1080 CURVE SMOOTH",
"666 1080 OFFCURVE",
"584 1054 OFFCURVE",
"502 976 CURVE SMOOTH",
"482 960 OFFCURVE",
"464 960 OFFCURVE",
"464 992 CURVE SMOOTH",
"464 1442 LINE SMOOTH",
"464 1468 OFFCURVE",
"452 1484 OFFCURVE",
"428 1484 CURVE SMOOTH",
"102 1484 LINE SMOOTH",
"80 1484 OFFCURVE",
"64 1468 OFFCURVE",
"64 1438 CURVE SMOOTH",
"64 50 LINE SMOOTH",
"64 16 OFFCURVE",
"76 0 OFFCURVE",
"118 0 CURVE SMOOTH",
"292 0 LINE SMOOTH"
);
},
{
closed = 1;
nodes = (
"504 806 OFFCURVE",
"550 836 OFFCURVE",
"612 836 CURVE SMOOTH",
"710 836 OFFCURVE",
"764 762 OFFCURVE",
"764 530 CURVE SMOOTH",
"764 296 OFFCURVE",
"710 214 OFFCURVE",
"606 214 CURVE SMOOTH",
"522 214 OFFCURVE",
"464 270 OFFCURVE",
"464 370 CURVE SMOOTH",
"464 756 LINE"
);
}
);
};
layerId = "258ED206-D907-4350-8EBA-CBDDA1C16BF7";
paths = (
{
closed = 1;
nodes = (
"1018 -20 OFFCURVE",
"1176 194 OFFCURVE",
"1176 524 CURVE SMOOTH",
"1176 850 OFFCURVE",
"1028 1054 OFFCURVE",
"774 1054 CURVE SMOOTH",
"672 1054 OFFCURVE",
"560 1004 OFFCURVE",
"490 878 CURVE",
"490 1486 LINE",
"100 1486 LINE",
"100 0 LINE",
"374 0 LINE",
"414 144 LINE",
"470 32 OFFCURVE",
"604 -20 OFFCURVE",
"732 -20 CURVE SMOOTH"
);
},
{
closed = 1;
nodes = (
"542 252 OFFCURVE",
"490 336 OFFCURVE",
"490 528 CURVE",
"490 528 LINE",
"490 706 OFFCURVE",
"546 780 OFFCURVE",
"634 780 CURVE SMOOTH",
"714 780 OFFCURVE",
"782 736 OFFCURVE",
"782 528 CURVE SMOOTH",
"782 320 OFFCURVE",
"720 252 OFFCURVE",
"628 252 CURVE"
);
}
);
width = 1236;
},
{
background = {
paths = (
{
closed = 1;
nodes = (
"254 0 OFFCURVE",
"260 6 OFFCURVE",
"260 26 CURVE SMOOTH",
"264 128 LINE SMOOTH",
"264 146 OFFCURVE",
"274 148 OFFCURVE",
"284 134 CURVE SMOOTH",
"308 100 OFFCURVE",
"408 -20 OFFCURVE",
"614 -20 CURVE SMOOTH",
"902 -20 OFFCURVE",
"1070 192 OFFCURVE",
"1070 534 CURVE SMOOTH",
"1070 832 OFFCURVE",
"942 1080 OFFCURVE",
"636 1080 CURVE SMOOTH",
"424 1080 OFFCURVE",
"312 964 OFFCURVE",
"292 946 CURVE SMOOTH",
"274 930 OFFCURVE",
"266 930 OFFCURVE",
"266 956 CURVE SMOOTH",
"266 1462 LINE SMOOTH",
"266 1478 OFFCURVE",
"262 1484 OFFCURVE",
"250 1484 CURVE SMOOTH",
"204 1484 LINE SMOOTH",
"192 1484 OFFCURVE",
"186 1478 OFFCURVE",
"186 1464 CURVE SMOOTH",
"186 26 LINE SMOOTH",
"186 6 OFFCURVE",
"192 0 OFFCURVE",
"208 0 CURVE SMOOTH",
"230 0 LINE SMOOTH"
);
},
{
closed = 1;
nodes = (
"346 926 OFFCURVE",
"474 1004 OFFCURVE",
"622 1004 CURVE SMOOTH",
"858 1004 OFFCURVE",
"984 818 OFFCURVE",
"984 534 CURVE SMOOTH",
"984 206 OFFCURVE",
"814 56 OFFCURVE",
"606 56 CURVE SMOOTH",
"438 56 OFFCURVE",
"266 192 OFFCURVE",
"266 354 CURVE SMOOTH",
"266 830 LINE"
);
}
);
};
layerId = "91AB5BCA-6A50-42DA-B2F7-8181BF189245";
paths = (
{
closed = 1;
nodes = (
"900 -20 OFFCURVE",
"1042 188 OFFCURVE",
"1042 520 CURVE SMOOTH",
"1042 812 OFFCURVE",
"916 1054 OFFCURVE",
"618 1054 CURVE SMOOTH",
"358 1054 OFFCURVE",
"278 884 OFFCURVE",
"258 840 CURVE",
"258 1486 LINE",
"180 1486 LINE",
"180 0 LINE",
"250 0 LINE",
"256 212 LINE",
"272 164 OFFCURVE",
"342 -20 OFFCURVE",
"618 -20 CURVE SMOOTH"
);
},
{
closed = 1;
nodes = (
"402 54 OFFCURVE",
"262 208 OFFCURVE",
"258 356 CURVE",
"258 678 LINE",
"266 722 OFFCURVE",
"296 978 OFFCURVE",
"610 978 CURVE SMOOTH",
"844 978 OFFCURVE",
"958 798 OFFCURVE",
"958 520 CURVE SMOOTH",
"958 200 OFFCURVE",
"820 54 OFFCURVE",
"616 54 CURVE SMOOTH"
);
}
);
width = 1152;
}
);
leftKerningGroup = h;
leftMetricsKey = n;
rightKerningGroup = o;
rightMetricsKey = o;
unicode = 0062;
},
{
glyphname = c;
lastChange = "2019-04-21 18:54:53 +0000";
layers = (
{
anchors = (
{
name = bottom;
position = "{580, 0}";
},
{
name = top;
position = "{582, 1034}";
}
);
background = {
anchors = (
{
name = bottom;
position = "{556, 0}";
},
{
name = top;
position = "{558, 1060}";
}
);
paths = (
{
closed = 1;
nodes = (
"242 1080 OFFCURVE",
"4 856 OFFCURVE",
"4 526 CURVE SMOOTH",
"4 202 OFFCURVE",
"238 -20 OFFCURVE",
"558 -20 CURVE SMOOTH",
"882 -20 OFFCURVE",
"1014 210 OFFCURVE",
"1034 314 CURVE SMOOTH",
"1042 344 OFFCURVE",
"1038 356 OFFCURVE",
"1016 360 CURVE SMOOTH",
"828 396 LINE SMOOTH",
"802 400 OFFCURVE",
"794 396 OFFCURVE",
"788 386 CURVE SMOOTH",
"738 296 OFFCURVE",
"700 228 OFFCURVE",
"590 228 CURVE SMOOTH",
"476 228 OFFCURVE",
"408 308 OFFCURVE",
"408 530 CURVE SMOOTH",
"408 744 OFFCURVE",
"470 828 OFFCURVE",
"568 828 CURVE SMOOTH",
"664 828 OFFCURVE",
"682 752 OFFCURVE",
"690 702 CURVE SMOOTH",
"694 680 OFFCURVE",
"702 672 OFFCURVE",
"724 674 CURVE SMOOTH",
"998 688 LINE SMOOTH",
"1032 690 OFFCURVE",
"1044 706 OFFCURVE",
"1034 740 CURVE SMOOTH",
"1002 894 OFFCURVE",
"844 1080 OFFCURVE",
"558 1080 CURVE SMOOTH"
);
}
);
};
guideLines = (
{
angle = -0.5577;
position = "{-470, 167}";
},
{
position = "{534, 123}";
},
{
angle = 3.769;
position = "{429, 307}";
}
);
layerId = "258ED206-D907-4350-8EBA-CBDDA1C16BF7";
paths = (
{
closed = 1;
nodes = (
"282 1054 OFFCURVE",
"60 832 OFFCURVE",
"60 512 CURVE SMOOTH",
"60 196 OFFCURVE",
"286 -20 OFFCURVE",
"582 -20 CURVE SMOOTH",
"864 -20 OFFCURVE",
"1030 180 OFFCURVE",
"1030 400 CURVE",
"724 400 LINE",
"718 358 OFFCURVE",
"690 248 OFFCURVE",
"592 248 CURVE SMOOTH",
"492 248 OFFCURVE",
"418 346 OFFCURVE",
"418 516 CURVE SMOOTH",
"418 682 OFFCURVE",
"484 766 OFFCURVE",
"584 766 CURVE SMOOTH",
"684 766 OFFCURVE",
"712 670 OFFCURVE",
"720 612 CURVE",
"1036 612 LINE",
"1030 844 OFFCURVE",
"874 1054 OFFCURVE",
"582 1054 CURVE SMOOTH"
);
}
);
width = 1086;
},
{
anchors = (
{
name = bottom;
position = "{560, 0}";
},
{
name = top;
position = "{556, 1034}";
}
);
background = {
anchors = (
{
name = bottom;
position = "{576, 0}";
},
{
name = top;
position = "{572, 1060}";
}
);
paths = (
{
closed = 1;
nodes = (
"292 1080 OFFCURVE",
"94 850 OFFCURVE",
"94 526 CURVE SMOOTH",
"94 200 OFFCURVE",
"288 -20 OFFCURVE",
"574 -20 CURVE SMOOTH",
"744 -20 OFFCURVE",
"888 58 OFFCURVE",
"984 214 CURVE SMOOTH",
"988 222 OFFCURVE",
"986 230 OFFCURVE",
"980 234 CURVE SMOOTH",
"934 264 LINE SMOOTH",
"926 270 OFFCURVE",
"922 268 OFFCURVE",
"914 256 CURVE SMOOTH",
"826 120 OFFCURVE",
"718 56 OFFCURVE",
"582 56 CURVE SMOOTH",
"338 56 OFFCURVE",
"178 246 OFFCURVE",
"178 530 CURVE SMOOTH",
"178 814 OFFCURVE",
"338 1004 OFFCURVE",
"584 1004 CURVE SMOOTH",
"696 1004 OFFCURVE",
"786 956 OFFCURVE",
"896 822 CURVE SMOOTH",
"904 812 OFFCURVE",
"912 810 OFFCURVE",
"918 814 CURVE SMOOTH",
"966 846 LINE SMOOTH",
"972 850 OFFCURVE",
"974 854 OFFCURVE",
"966 866 CURVE SMOOTH",
"874 998 OFFCURVE",
"752 1080 OFFCURVE",
"574 1080 CURVE SMOOTH"
);
}
);
};
layerId = "91AB5BCA-6A50-42DA-B2F7-8181BF189245";
paths = (
{
closed = 1;
nodes = (
"278 1054 OFFCURVE",
"110 830 OFFCURVE",
"110 512 CURVE SMOOTH",
"110 196 OFFCURVE",
"278 -20 OFFCURVE",
"558 -20 CURVE SMOOTH",
"728 -20 OFFCURVE",
"902 56 OFFCURVE",
"950 276 CURVE",
"866 276 LINE",
"832 122 OFFCURVE",
"706 54 OFFCURVE",
"566 54 CURVE SMOOTH",
"332 54 OFFCURVE",
"192 238 OFFCURVE",
"192 516 CURVE SMOOTH",
"192 792 OFFCURVE",
"336 978 OFFCURVE",
"568 978 CURVE SMOOTH",
"698 978 OFFCURVE",
"820 918 OFFCURVE",
"866 754 CURVE",
"950 758 LINE",
"908 966 OFFCURVE",
"732 1054 OFFCURVE",
"558 1054 CURVE SMOOTH"
);
}
);
width = 1060;
}
);
leftKerningGroup = o;
leftMetricsKey = e;
rightKerningGroup = o;
unicode = 0063;
},
{
glyphname = d;
lastChange = "2019-04-21 20:21:26 +0000";
layers = (
{
anchors = (
{
name = bottom;
position = "{606, 0}";
},
{
name = center;
position = "{606, 516}";
},
{
name = topright;
position = "{1164, 1034}";
}
);
background = {
anchors = (
{
name = bottom;
position = "{584, 0}";
},
{
name = center;
position = "{584, 530}";
},
{
name = topright;
position = "{1156, 1060}";
}
);
paths = (
{
closed = 1;
nodes = (
"1066 0 LINE SMOOTH",
"1108 0 OFFCURVE",
"1120 16 OFFCURVE",
"1120 50 CURVE SMOOTH",
"1120 1438 LINE SMOOTH",
"1120 1468 OFFCURVE",
"1104 1484 OFFCURVE",
"1082 1484 CURVE SMOOTH",
"758 1484 LINE SMOOTH",
"734 1484 OFFCURVE",
"722 1468 OFFCURVE",
"722 1442 CURVE SMOOTH",
"722 992 LINE SMOOTH",
"722 960 OFFCURVE",
"704 960 OFFCURVE",
"684 976 CURVE SMOOTH",
"602 1056 OFFCURVE",
"526 1080 OFFCURVE",
"436 1080 CURVE SMOOTH",
"216 1080 OFFCURVE",
"16 862 OFFCURVE",
"16 526 CURVE SMOOTH",
"16 164 OFFCURVE",
"180 -20 OFFCURVE",
"416 -20 CURVE SMOOTH",
"540 -20 OFFCURVE",
"618 20 OFFCURVE",
"696 92 CURVE SMOOTH",
"710 104 OFFCURVE",
"726 102 OFFCURVE",
"726 84 CURVE SMOOTH",
"726 46 LINE SMOOTH",
"726 12 OFFCURVE",
"750 0 OFFCURVE",
"776 0 CURVE SMOOTH"
);
},
{
closed = 1;
nodes = (
"720 352 LINE SMOOTH",
"720 274 OFFCURVE",
"658 220 OFFCURVE",
"580 220 CURVE SMOOTH",
"478 220 OFFCURVE",
"420 298 OFFCURVE",
"420 528 CURVE SMOOTH",
"420 760 OFFCURVE",
"486 832 OFFCURVE",
"580 832 CURVE SMOOTH",
"642 832 OFFCURVE",
"678 806 OFFCURVE",
"720 756 CURVE"
);
}
);
};
layerId = "258ED206-D907-4350-8EBA-CBDDA1C16BF7";
paths = (
{
closed = 1;
nodes = (
"672 -20 OFFCURVE",
"770 68 OFFCURVE",
"816 212 CURVE",
"862 0 LINE",
"1138 0 LINE",
"1138 1486 LINE",
"748 1486 LINE",
"748 916 LINE",
"684 1022 OFFCURVE",
"564 1054 OFFCURVE",
"462 1054 CURVE SMOOTH",
"208 1054 OFFCURVE",
"60 850 OFFCURVE",
"60 524 CURVE SMOOTH",
"60 194 OFFCURVE",
"218 -20 OFFCURVE",
"504 -20 CURVE SMOOTH"
);
},
{
closed = 1;
nodes = (
"508 252 OFFCURVE",
"436 320 OFFCURVE",
"436 528 CURVE SMOOTH",
"436 736 OFFCURVE",
"514 780 OFFCURVE",
"594 780 CURVE SMOOTH",
"680 780 OFFCURVE",
"748 728 OFFCURVE",
"748 568 CURVE",
"748 478 LINE",
"748 324 OFFCURVE",
"684 252 OFFCURVE",
"598 252 CURVE"
);
}
);
width = 1228;
},
{
anchors = (
{
name = bottom;
position = "{564, 0}";
},
{
name = center;
position = "{588, 516}";
},
{
name = topright;
position = "{1198, 1446}";
}
);
background = {
anchors = (
{
name = bottom;
position = "{580, 0}";
},
{
name = center;
position = "{604, 530}";
},
{
name = topright;
position = "{1230, 1484}";
}
);
paths = (
{
closed = 1;
nodes = (
"954 0 LINE SMOOTH",
"972 0 OFFCURVE",
"978 6 OFFCURVE",
"978 24 CURVE SMOOTH",
"978 1466 LINE SMOOTH",
"978 1478 OFFCURVE",
"972 1484 OFFCURVE",
"962 1484 CURVE SMOOTH",
"916 1484 LINE SMOOTH",
"902 1484 OFFCURVE",
"898 1478 OFFCURVE",
"898 1464 CURVE SMOOTH",
"898 986 LINE SMOOTH",
"898 960 OFFCURVE",
"894 952 OFFCURVE",
"870 972 CURVE SMOOTH",
"808 1020 OFFCURVE",
"722 1080 OFFCURVE",
"576 1080 CURVE SMOOTH",
"282 1080 OFFCURVE",
"90 850 OFFCURVE",
"90 510 CURVE SMOOTH",
"90 156 OFFCURVE",
"296 -20 OFFCURVE",
"552 -20 CURVE SMOOTH",
"744 -20 OFFCURVE",
"846 98 OFFCURVE",
"878 132 CURVE SMOOTH",
"894 148 OFFCURVE",
"902 146 OFFCURVE",
"902 124 CURVE SMOOTH",
"902 22 LINE SMOOTH",
"902 8 OFFCURVE",
"908 0 OFFCURVE",
"922 0 CURVE SMOOTH"
);
},
{
closed = 1;
nodes = (
"898 340 LINE SMOOTH",
"898 220 OFFCURVE",
"754 56 OFFCURVE",
"562 56 CURVE SMOOTH",
"358 56 OFFCURVE",
"174 200 OFFCURVE",
"174 518 CURVE SMOOTH",
"174 822 OFFCURVE",
"344 1004 OFFCURVE",
"578 1004 CURVE SMOOTH",
"700 1004 OFFCURVE",
"800 948 OFFCURVE",
"898 852 CURVE"
);
}
);
};
layerId = "91AB5BCA-6A50-42DA-B2F7-8181BF189245";
paths = (
{
closed = 1;
nodes = (
"810 -20 OFFCURVE",
"880 164 OFFCURVE",
"896 212 CURVE",
"902 0 LINE",
"972 0 LINE",
"972 1486 LINE",
"894 1486 LINE",
"894 856 LINE",
"874 900 OFFCURVE",
"776 1054 OFFCURVE",
"534 1054 CURVE SMOOTH",
"236 1054 OFFCURVE",
"110 812 OFFCURVE",
"110 520 CURVE SMOOTH",
"110 188 OFFCURVE",
"252 -20 OFFCURVE",
"534 -20 CURVE SMOOTH"
);
},
{
closed = 1;
nodes = (
"332 54 OFFCURVE",
"194 200 OFFCURVE",
"194 520 CURVE SMOOTH",
"194 798 OFFCURVE",
"308 978 OFFCURVE",
"542 978 CURVE SMOOTH",
"832 978 OFFCURVE",
"886 722 OFFCURVE",
"894 678 CURVE",
"894 356 LINE",
"890 208 OFFCURVE",
"750 54 OFFCURVE",
"536 54 CURVE SMOOTH"
);
}
);
width = 1152;
}
);
leftKerningGroup = o;
leftMetricsKey = e;
rightKerningGroup = u;
rightMetricsKey = u;
unicode = 0064;
},
{
glyphname = eth;
lastChange = "2019-04-21 18:54:53 +0000";
layers = (
{
background = {
paths = (
{
closed = 1;
nodes = (
"1140 880 OFFCURVE",
"990 1164 OFFCURVE",
"742 1338 CURVE",
"834 1390 LINE SMOOTH",
"846 1398 OFFCURVE",
"848 1408 OFFCURVE",
"842 1418 CURVE SMOOTH",
"800 1494 LINE SMOOTH",
"792 1504 OFFCURVE",
"778 1508 OFFCURVE",
"764 1498 CURVE SMOOTH",
"614 1414 LINE",
"540 1452 OFFCURVE",
"458 1480 OFFCURVE",
"372 1500 CURVE SMOOTH",
"348 1506 OFFCURVE",
"344 1504 OFFCURVE",
"330 1492 CURVE SMOOTH",
"162 1354 LINE SMOOTH",
"148 1342 OFFCURVE",
"154 1330 OFFCURVE",
"166 1326 CURVE SMOOTH",
"226 1306 OFFCURVE",
"280 1282 OFFCURVE",
"330 1256 CURVE",
"188 1178 LINE SMOOTH",
"174 1172 OFFCURVE",
"168 1156 OFFCURVE",
"184 1134 CURVE SMOOTH",
"214 1086 LINE SMOOTH",
"228 1064 OFFCURVE",
"240 1060 OFFCURVE",
"262 1072 CURVE SMOOTH",
"454 1180 LINE",
"510 1138 OFFCURVE",
"548 1102 OFFCURVE",
"586 1050 CURVE SMOOTH",
"590 1044 OFFCURVE",
"590 1040 OFFCURVE",
"582 1040 CURVE SMOOTH",
"266 1040 OFFCURVE",
"24 818 OFFCURVE",
"24 504 CURVE SMOOTH",
"24 206 OFFCURVE",
"252 -20 OFFCURVE",
"580 -20 CURVE SMOOTH",
"914 -20 OFFCURVE",
"1140 204 OFFCURVE",
"1140 564 CURVE SMOOTH"
);
},
{
closed = 1;
nodes = (
"476 236 OFFCURVE",
"428 324 OFFCURVE",
"428 512 CURVE SMOOTH",
"428 702 OFFCURVE",
"476 792 OFFCURVE",
"582 792 CURVE SMOOTH",
"690 792 OFFCURVE",
"736 702 OFFCURVE",
"736 512 CURVE SMOOTH",
"736 326 OFFCURVE",
"690 236 OFFCURVE",
"582 236 CURVE SMOOTH"
);
}
);
};
layerId = "258ED206-D907-4350-8EBA-CBDDA1C16BF7";
paths = (
{
closed = 1;
nodes = (
"1148 858 OFFCURVE",
"1002 1134 OFFCURVE",
"760 1304 CURVE",
"868 1366 LINE",
"808 1474 LINE",
"636 1378 LINE",
"556 1418 OFFCURVE",
"468 1446 OFFCURVE",
"374 1468 CURVE",
"174 1302 LINE",
"240 1280 OFFCURVE",
"302 1254 OFFCURVE",
"360 1224 CURVE",
"198 1136 LINE",
"264 1030 LINE",
"480 1150 LINE",
"534 1110 OFFCURVE",
"572 1074 OFFCURVE",
"608 1024 CURVE SMOOTH",
"612 1018 OFFCURVE",
"612 1014 OFFCURVE",
"604 1014 CURVE SMOOTH",
"296 1014 OFFCURVE",
"60 798 OFFCURVE",
"60 492 CURVE SMOOTH",
"60 200 OFFCURVE",
"284 -20 OFFCURVE",
"602 -20 CURVE SMOOTH",
"928 -20 OFFCURVE",
"1148 198 OFFCURVE",
"1148 550 CURVE SMOOTH"
);
},
{
closed = 1;
nodes = (
"502 230 OFFCURVE",
"454 316 OFFCURVE",
"454 500 CURVE SMOOTH",
"454 684 OFFCURVE",
"502 772 OFFCURVE",
"604 772 CURVE SMOOTH",
"710 772 OFFCURVE",
"754 684 OFFCURVE",
"754 500 CURVE SMOOTH",
"754 318 OFFCURVE",
"710 230 OFFCURVE",
"604 230 CURVE SMOOTH"
);
}
);
width = 1208;
},
{
background = {
paths = (
{
closed = 1;
nodes = (
"1086 844 OFFCURVE",
"976 1126 OFFCURVE",
"664 1338 CURVE",
"844 1438 LINE SMOOTH",
"850 1442 OFFCURVE",
"850 1448 OFFCURVE",
"846 1454 CURVE SMOOTH",
"822 1498 LINE SMOOTH",
"820 1502 OFFCURVE",
"810 1504 OFFCURVE",
"804 1500 CURVE SMOOTH",
"596 1384 LINE",
"526 1426 OFFCURVE",
"452 1462 OFFCURVE",
"364 1498 CURVE SMOOTH",
"346 1506 OFFCURVE",
"340 1502 OFFCURVE",
"328 1494 CURVE SMOOTH",
"292 1470 LINE SMOOTH",
"282 1462 OFFCURVE",
"284 1452 OFFCURVE",
"294 1448 CURVE SMOOTH",
"378 1414 OFFCURVE",
"452 1378 OFFCURVE",
"520 1340 CURVE",
"210 1166 LINE SMOOTH",
"204 1162 OFFCURVE",
"200 1156 OFFCURVE",
"208 1144 CURVE SMOOTH",
"226 1116 LINE SMOOTH",
"234 1104 OFFCURVE",
"240 1100 OFFCURVE",
"252 1106 CURVE SMOOTH",
"588 1296 LINE",
"760 1180 OFFCURVE",
"866 1046 OFFCURVE",
"928 902 CURVE",
"842 988 OFFCURVE",
"724 1040 OFFCURVE",
"582 1040 CURVE SMOOTH",
"310 1040 OFFCURVE",
"114 816 OFFCURVE",
"114 504 CURVE SMOOTH",
"114 196 OFFCURVE",
"308 -20 OFFCURVE",
"596 -20 CURVE SMOOTH",
"904 -20 OFFCURVE",
"1086 202 OFFCURVE",
"1086 510 CURVE SMOOTH"
);
},
{
closed = 1;
nodes = (
"372 56 OFFCURVE",
"198 256 OFFCURVE",
"198 508 CURVE SMOOTH",
"198 760 OFFCURVE",
"372 964 OFFCURVE",
"602 964 CURVE SMOOTH",
"830 964 OFFCURVE",
"1002 762 OFFCURVE",
"1002 508 CURVE SMOOTH",
"1002 254 OFFCURVE",
"834 56 OFFCURVE",
"604 56 CURVE SMOOTH"
);
}
);
};
layerId = "91AB5BCA-6A50-42DA-B2F7-8181BF189245";
paths = (
{
closed = 1;
nodes = (
"1058 822 OFFCURVE",
"950 1098 OFFCURVE",
"646 1304 CURVE",
"828 1406 LINE",
"796 1470 LINE",
"580 1350 LINE",
"506 1392 OFFCURVE",
"428 1432 OFFCURVE",
"336 1468 CURVE",
"264 1420 LINE",
"354 1384 OFFCURVE",
"434 1348 OFFCURVE",
"506 1306 CURVE",
"192 1132 LINE",
"230 1070 LINE",
"572 1264 LINE",
"740 1150 OFFCURVE",
"842 1020 OFFCURVE",
"902 880 CURVE",
"820 964 OFFCURVE",
"704 1014 OFFCURVE",
"566 1014 CURVE SMOOTH",
"300 1014 OFFCURVE",
"110 796 OFFCURVE",
"110 492 CURVE SMOOTH",
"110 192 OFFCURVE",
"298 -20 OFFCURVE",
"580 -20 CURVE SMOOTH",
"880 -20 OFFCURVE",
"1058 196 OFFCURVE",
"1058 498 CURVE SMOOTH"
);
},
{
closed = 1;
nodes = (
"360 54 OFFCURVE",
"192 250 OFFCURVE",
"192 496 CURVE SMOOTH",
"192 742 OFFCURVE",
"360 940 OFFCURVE",
"586 940 CURVE SMOOTH",
"808 940 OFFCURVE",
"976 742 OFFCURVE",
"976 496 CURVE SMOOTH",
"976 248 OFFCURVE",
"812 54 OFFCURVE",
"588 54 CURVE SMOOTH"
);
}
);
width = 1168;
}
);
leftKerningGroup = o;
leftMetricsKey = o;
rightKerningGroup = o;
rightMetricsKey = o;
unicode = 00F0;
},
{
glyphname = dcroat;
lastChange = "2019-04-21 18:54:53 +0000";
layers = (
{
background = {
components = (
{
name = d;
transform = "{1, 0, 0, 1, -38, 0}";
}
);
paths = (
{
closed = 1;
nodes = (
"1150 1360 OFFCURVE",
"1138 1374 OFFCURVE",
"1118 1374 CURVE SMOOTH",
"440 1374 LINE SMOOTH",
"420 1374 OFFCURVE",
"408 1360 OFFCURVE",
"408 1334 CURVE SMOOTH",
"408 1204 LINE SMOOTH",
"408 1174 OFFCURVE",
"418 1160 OFFCURVE",
"452 1160 CURVE SMOOTH",
"1092 1160 LINE SMOOTH",
"1132 1160 OFFCURVE",
"1150 1174 OFFCURVE",
"1150 1208 CURVE SMOOTH",
"1150 1338 LINE SMOOTH"
);
}
);
};
components = (
{
name = d;
}
);
layerId = "258ED206-D907-4350-8EBA-CBDDA1C16BF7";
paths = (
{
closed = 1;
nodes = (
"534 1340 LINE",
"534 1132 LINE",
"1258 1132 LINE",
"1258 1340 LINE"
);
}
);
width = 1338;
},
{
background = {
components = (
{
name = d;
transform = "{1, 0, 0, 1, 4, 0}";
}
);
paths = (
{
closed = 1;
nodes = (
"1162 1320 OFFCURVE",
"1158 1324 OFFCURVE",
"1152 1324 CURVE SMOOTH",
"594 1324 LINE SMOOTH",
"588 1324 OFFCURVE",
"584 1320 OFFCURVE",
"584 1310 CURVE SMOOTH",
"584 1270 LINE SMOOTH",
"584 1258 OFFCURVE",
"586 1254 OFFCURVE",
"598 1254 CURVE SMOOTH",
"1142 1254 LINE SMOOTH",
"1156 1254 OFFCURVE",
"1162 1258 OFFCURVE",
"1162 1270 CURVE SMOOTH",
"1162 1312 LINE SMOOTH"
);
}
);
};
components = (
{
name = d;
}
);
layerId = "91AB5BCA-6A50-42DA-B2F7-8181BF189245";
paths = (
{
closed = 1;
nodes = (
"568 1290 LINE",
"568 1222 LINE",
"1130 1222 LINE",
"1130 1290 LINE"
);
}
);
width = 1230;
}
);
leftKerningGroup = o;
leftMetricsKey = d;
rightMetricsKey = t;
unicode = 0111;
},
{
glyphname = e;
lastChange = "2019-04-21 19:02:58 +0000";
layers = (
{
anchors = (
{
name = bottom;
position = "{594, 0}";
},
{
name = ogonek;
position = "{844, 50}";
},
{
name = top;
position = "{588, 1034}";
}
);
background = {
anchors = (
{
name = bottom;
position = "{570, 0}";
},
{
name = ogonek;
position = "{828, 52}";
},
{
name = top;
position = "{564, 1060}";
}
);
paths = (
{
closed = 1;
nodes = (
"416 448 OFFCURVE",
"426 458 OFFCURVE",
"446 458 CURVE SMOOTH",
"1068 458 LINE SMOOTH",
"1102 460 OFFCURVE",
"1104 474 OFFCURVE",
"1104 508 CURVE SMOOTH",
"1104 870 OFFCURVE",
"874 1080 OFFCURVE",
"560 1080 CURVE SMOOTH",
"264 1080 OFFCURVE",
"4 852 OFFCURVE",
"4 512 CURVE SMOOTH",
"4 198 OFFCURVE",
"248 -20 OFFCURVE",
"568 -20 CURVE SMOOTH",
"792 -20 OFFCURVE",
"928 34 OFFCURVE",
"1072 236 CURVE SMOOTH",
"1090 258 OFFCURVE",
"1084 276 OFFCURVE",
"1064 284 CURVE SMOOTH",
"882 358 LINE SMOOTH",
"856 368 OFFCURVE",
"850 366 OFFCURVE",
"840 356 CURVE SMOOTH",
"752 270 OFFCURVE",
"690 244 OFFCURVE",
"622 244 CURVE SMOOTH",
"506 244 OFFCURVE",
"416 302 OFFCURVE",
"416 424 CURVE SMOOTH"
);
},
{
closed = 1;
nodes = (
"420 790 OFFCURVE",
"496 846 OFFCURVE",
"578 846 CURVE SMOOTH",
"678 846 OFFCURVE",
"716 744 OFFCURVE",
"716 692 CURVE SMOOTH",
"716 668 OFFCURVE",
"708 664 OFFCURVE",
"682 664 CURVE SMOOTH",
"422 666 LINE"
);
}
);
};
layerId = "258ED206-D907-4350-8EBA-CBDDA1C16BF7";
paths = (
{
closed = 1;
nodes = (
"1094 428 LINE",
"1094 518 LINE",
"1094 824 OFFCURVE",
"924 1054 OFFCURVE",
"586 1054 CURVE SMOOTH",
"254 1054 OFFCURVE",
"60 800 OFFCURVE",
"60 504 CURVE SMOOTH",
"60 190 OFFCURVE",
"280 -20 OFFCURVE",
"602 -20 CURVE SMOOTH",
"832 -20 OFFCURVE",
"1066 122 OFFCURVE",
"1098 352 CURVE",
"754 352 LINE",
"722 272 OFFCURVE",
"664 252 OFFCURVE",
"592 252 CURVE SMOOTH",
"508 252 OFFCURVE",
"440 304 OFFCURVE",
"442 428 CURVE"
);
},
{
closed = 1;
nodes = (
"440 724 OFFCURVE",
"506 792 OFFCURVE",
"586 792 CURVE SMOOTH",
"684 792 OFFCURVE",
"736 724 OFFCURVE",
"736 646 CURVE",
"440 646 LINE"
);
}
);
width = 1158;
},
{
anchors = (
{
name = bottom;
position = "{552, 0}";
},
{
name = ogonek;
position = "{740, 36}";
},
{
name = top;
position = "{554, 1034}";
}
);
background = {
anchors = (
{
name = bottom;
position = "{576, 0}";
},
{
name = ogonek;
position = "{762, 36}";
},
{
name = top;
position = "{570, 1060}";
}
);
paths = (
{
closed = 1;
nodes = (
"172 494 OFFCURVE",
"176 508 OFFCURVE",
"184 508 CURVE SMOOTH",
"1006 508 LINE SMOOTH",
"1036 508 OFFCURVE",
"1032 532 OFFCURVE",
"1032 548 CURVE SMOOTH",
"1032 884 OFFCURVE",
"856 1080 OFFCURVE",
"574 1080 CURVE SMOOTH",
"292 1080 OFFCURVE",
"88 872 OFFCURVE",
"88 522 CURVE SMOOTH",
"88 200 OFFCURVE",
"286 -20 OFFCURVE",
"574 -20 CURVE SMOOTH",
"762 -20 OFFCURVE",
"902 54 OFFCURVE",
"994 200 CURVE SMOOTH",
"1000 208 OFFCURVE",
"998 216 OFFCURVE",
"992 220 CURVE SMOOTH",
"946 250 LINE SMOOTH",
"938 256 OFFCURVE",
"932 254 OFFCURVE",
"924 242 CURVE SMOOTH",
"852 122 OFFCURVE",
"734 56 OFFCURVE",
"574 56 CURVE SMOOTH",
"350 56 OFFCURVE",
"172 254 OFFCURVE",
"172 480 CURVE SMOOTH"
);
},
{
closed = 1;
nodes = (
"172 780 OFFCURVE",
"308 1004 OFFCURVE",
"572 1004 CURVE SMOOTH",
"804 1004 OFFCURVE",
"948 828 OFFCURVE",
"948 608 CURVE SMOOTH",
"948 586 OFFCURVE",
"942 580 OFFCURVE",
"914 580 CURVE SMOOTH",
"174 580 LINE"
);
}
);
};
guideLines = (
{
angle = 88.4926;
position = "{227, 483}";
}
);
layerId = "91AB5BCA-6A50-42DA-B2F7-8181BF189245";
paths = (
{
closed = 1;
nodes = (
"974 496 LINE",
"974 554 LINE",
"974 872 OFFCURVE",
"818 1054 OFFCURVE",
"554 1054 CURVE SMOOTH",
"272 1054 OFFCURVE",
"110 850 OFFCURVE",
"110 508 CURVE SMOOTH",
"110 170 OFFCURVE",
"296 -20 OFFCURVE",
"566 -20 CURVE SMOOTH",
"750 -20 OFFCURVE",
"904 66 OFFCURVE",
"962 276 CURVE",
"878 276 LINE",
"834 138 OFFCURVE",
"728 58 OFFCURVE",
"566 58 CURVE SMOOTH",
"306 58 OFFCURVE",
"194 262 OFFCURVE",
"194 496 CURVE"
);
},
{
closed = 1;
nodes = (
"194 768 OFFCURVE",
"300 976 OFFCURVE",
"552 976 CURVE SMOOTH",
"784 976 OFFCURVE",
"892 804 OFFCURVE",
"892 574 CURVE",
"196 574 LINE"
);
}
);
width = 1084;
}
);
leftKerningGroup = o;
rightKerningGroup = o;
unicode = 0065;
},
{
glyphname = f;
lastChange = "2019-04-16 18:49:16 +0000";
layers = (
{
background = {
paths = (
{
closed = 1;
nodes = (
"570 1060 LINE SMOOTH",
"554 1060 OFFCURVE",
"544 1066 OFFCURVE",
"544 1086 CURVE SMOOTH",
"544 1122 LINE SMOOTH",
"544 1178 OFFCURVE",
"588 1224 OFFCURVE",
"634 1224 CURVE SMOOTH",
"720 1224 LINE SMOOTH",
"744 1224 OFFCURVE",
"756 1242 OFFCURVE",
"756 1264 CURVE",
"754 1432 LINE",
"754 1464 OFFCURVE",
"734 1484 OFFCURVE",
"696 1484 CURVE SMOOTH",
"470 1484 LINE SMOOTH",
"276 1484 OFFCURVE",
"154 1376 OFFCURVE",
"154 1202 CURVE SMOOTH",
"154 1096 LINE SMOOTH",
"154 1070 OFFCURVE",
"148 1060 OFFCURVE",
"126 1060 CURVE SMOOTH",
"30 1060 LINE SMOOTH",
"-4 1060 OFFCURVE",
"-18 1040 OFFCURVE",
"-18 1016 CURVE SMOOTH",
"-18 828 LINE SMOOTH",
"-18 800 OFFCURVE",
"-2 790 OFFCURVE",
"26 790 CURVE SMOOTH",
"138 790 LINE SMOOTH",
"150 790 OFFCURVE",
"154 784 OFFCURVE",
"154 770 CURVE SMOOTH",
"154 40 LINE SMOOTH",
"154 14 OFFCURVE",
"168 0 OFFCURVE",
"190 0 CURVE SMOOTH",
"516 0 LINE SMOOTH",
"540 0 OFFCURVE",
"554 14 OFFCURVE",
"554 44 CURVE SMOOTH",
"554 766 LINE SMOOTH",
"554 782 OFFCURVE",
"564 790 OFFCURVE",
"578 790 CURVE SMOOTH",
"702 790 LINE SMOOTH",
"728 790 OFFCURVE",
"746 800 OFFCURVE",
"746 828 CURVE SMOOTH",
"746 1016 LINE SMOOTH",
"746 1040 OFFCURVE",
"730 1060 OFFCURVE",
"696 1060 CURVE SMOOTH"
);
}
);
};
layerId = "258ED206-D907-4350-8EBA-CBDDA1C16BF7";
paths = (
{
closed = 1;
nodes = (
"568 1034 LINE",
"568 1094 LINE SMOOTH",
"568 1170 OFFCURVE",
"590 1194 OFFCURVE",
"654 1194 CURVE SMOOTH",
"774 1194 LINE",
"772 1446 LINE",
"496 1446 LINE SMOOTH",
"306 1446 OFFCURVE",
"186 1342 OFFCURVE",
"186 1172 CURVE SMOOTH",
"186 1034 LINE",
"20 1034 LINE",
"20 770 LINE",
"186 770 LINE",
"186 0 LINE",
"576 0 LINE",
"576 770 LINE",
"764 770 LINE",
"764 1034 LINE"
);
}
);
width = 774;
},
{
background = {
paths = (
{
closed = 1;
nodes = (
"440 1060 LINE SMOOTH",
"430 1060 OFFCURVE",
"426 1064 OFFCURVE",
"426 1074 CURVE SMOOTH",
"426 1254 LINE SMOOTH",
"426 1356 OFFCURVE",
"452 1414 OFFCURVE",
"552 1414 CURVE SMOOTH",
"712 1414 LINE SMOOTH",
"722 1414 OFFCURVE",
"728 1418 OFFCURVE",
"728 1428 CURVE SMOOTH",
"728 1470 LINE SMOOTH",
"728 1480 OFFCURVE",
"724 1484 OFFCURVE",
"716 1484 CURVE SMOOTH",
"572 1484 LINE SMOOTH",
"412 1484 OFFCURVE",
"346 1400 OFFCURVE",
"346 1236 CURVE SMOOTH",
"346 1074 LINE SMOOTH",
"346 1064 OFFCURVE",
"342 1060 OFFCURVE",
"332 1060 CURVE SMOOTH",
"106 1060 LINE SMOOTH",
"98 1060 OFFCURVE",
"94 1056 OFFCURVE",
"94 1048 CURVE SMOOTH",
"94 1002 LINE SMOOTH",
"94 994 OFFCURVE",
"98 990 OFFCURVE",
"106 990 CURVE SMOOTH",
"334 990 LINE SMOOTH",
"342 990 OFFCURVE",
"346 984 OFFCURVE",
"346 976 CURVE SMOOTH",
"346 20 LINE SMOOTH",
"346 6 OFFCURVE",
"350 0 OFFCURVE",
"362 0 CURVE SMOOTH",
"408 0 LINE SMOOTH",
"420 0 OFFCURVE",
"426 6 OFFCURVE",
"426 22 CURVE SMOOTH",
"426 976 LINE SMOOTH",
"426 986 OFFCURVE",
"430 990 OFFCURVE",
"440 990 CURVE SMOOTH",
"706 990 LINE SMOOTH",
"714 990 OFFCURVE",
"718 994 OFFCURVE",
"718 1002 CURVE SMOOTH",
"718 1048 LINE SMOOTH",
"718 1056 OFFCURVE",
"714 1060 OFFCURVE",
"708 1060 CURVE SMOOTH"
);
}
);
};
layerId = "91AB5BCA-6A50-42DA-B2F7-8181BF189245";
paths = (
{
closed = 1;
nodes = (
"414 1034 LINE",
"414 1222 LINE SMOOTH",
"414 1322 OFFCURVE",
"440 1378 OFFCURVE",
"536 1378 CURVE SMOOTH",
"708 1378 LINE",
"708 1446 LINE",
"556 1446 LINE SMOOTH",
"400 1446 OFFCURVE",
"336 1366 OFFCURVE",
"336 1206 CURVE SMOOTH",
"336 1034 LINE",
"90 1034 LINE",
"90 966 LINE",
"336 966 LINE",
"336 0 LINE",
"414 0 LINE",
"414 966 LINE",
"698 966 LINE",
"698 1034 LINE"
);
}
);
width = 798;
}
);
leftKerningGroup = f;
rightKerningGroup = f;
unicode = 0066;
},
{
glyphname = g;
lastChange = "2019-04-21 20:17:31 +0000";
layers = (
{
anchors = (
{
name = top;
position = "{614, 1034}";
}
);
background = {
anchors = (
{
name = top;
position = "{592, 1060}";
}
);
paths = (
{
closed = 1;
nodes = (
"1152 1124 OFFCURVE",
"1040 1068 OFFCURVE",
"986 992 CURVE SMOOTH",
"972 972 OFFCURVE",
"944 970 OFFCURVE",
"924 986 CURVE SMOOTH",
"858 1038 OFFCURVE",
"742 1076 OFFCURVE",
"590 1076 CURVE SMOOTH",
"232 1076 OFFCURVE",
"50 938 OFFCURVE",
"50 746 CURVE SMOOTH",
"50 624 OFFCURVE",
"126 530 OFFCURVE",
"258 474 CURVE SMOOTH",
"278 462 OFFCURVE",
"264 456 OFFCURVE",
"252 450 CURVE SMOOTH",
"144 404 OFFCURVE",
"34 338 OFFCURVE",
"34 244 CURVE SMOOTH",
"34 162 OFFCURVE",
"96 112 OFFCURVE",
"166 78 CURVE SMOOTH",
"182 70 OFFCURVE",
"186 62 OFFCURVE",
"166 56 CURVE SMOOTH",
"60 26 OFFCURVE",
"-28 -16 OFFCURVE",
"-28 -106 CURVE SMOOTH",
"-28 -274 OFFCURVE",
"176 -350 OFFCURVE",
"594 -350 CURVE SMOOTH",
"996 -350 OFFCURVE",
"1200 -198 OFFCURVE",
"1200 6 CURVE SMOOTH",
"1200 170 OFFCURVE",
"1068 286 OFFCURVE",
"772 304 CURVE SMOOTH",
"468 322 LINE SMOOTH",
"410 326 OFFCURVE",
"380 334 OFFCURVE",
"380 364 CURVE SMOOTH",
"380 396 OFFCURVE",
"434 418 OFFCURVE",
"566 418 CURVE SMOOTH",
"902 418 OFFCURVE",
"1080 568 OFFCURVE",
"1080 748 CURVE SMOOTH",
"1080 768 OFFCURVE",
"1076 790 OFFCURVE",
"1070 810 CURVE SMOOTH",
"1062 838 OFFCURVE",
"1072 856 OFFCURVE",
"1110 856 CURVE SMOOTH",
"1134 856 OFFCURVE",
"1172 850 OFFCURVE",
"1198 842 CURVE SMOOTH",
"1228 832 OFFCURVE",
"1250 848 OFFCURVE",
"1250 894 CURVE SMOOTH",
"1250 1074 LINE SMOOTH",
"1250 1110 OFFCURVE",
"1232 1124 OFFCURVE",
"1210 1124 CURVE SMOOTH"
);
},
{
closed = 1;
nodes = (
"462 600 OFFCURVE",
"406 668 OFFCURVE",
"406 740 CURVE SMOOTH",
"406 822 OFFCURVE",
"462 890 OFFCURVE",
"562 890 CURVE SMOOTH",
"674 890 OFFCURVE",
"718 822 OFFCURVE",
"718 740 CURVE SMOOTH",
"718 670 OFFCURVE",
"674 600 OFFCURVE",
"562 600 CURVE SMOOTH"
);
},
{
closed = 1;
nodes = (
"808 0 OFFCURVE",
"854 -32 OFFCURVE",
"854 -70 CURVE SMOOTH",
"854 -128 OFFCURVE",
"770 -172 OFFCURVE",
"614 -172 CURVE SMOOTH",
"364 -172 OFFCURVE",
"294 -128 OFFCURVE",
"294 -54 CURVE SMOOTH",
"294 -12 OFFCURVE",
"346 20 OFFCURVE",
"432 16 CURVE SMOOTH",
"722 4 LINE SMOOTH"
);
}
);
};
layerId = "258ED206-D907-4350-8EBA-CBDDA1C16BF7";
paths = (
{
closed = 1;
nodes = (
"1008 -342 OFFCURVE",
"1206 -194 OFFCURVE",
"1206 6 CURVE SMOOTH",
"1206 166 OFFCURVE",
"1080 296 OFFCURVE",
"794 316 CURVE SMOOTH",
"706 322 OFFCURVE",
"624 326 OFFCURVE",
"588 328 CURVE SMOOTH",
"486 334 OFFCURVE",
"422 334 OFFCURVE",
"422 362 CURVE",
"422 372 OFFCURVE",
"430 376 OFFCURVE",
"450 380 CURVE",
"484 376 OFFCURVE",
"556 374 OFFCURVE",
"588 374 CURVE SMOOTH",
"916 374 OFFCURVE",
"1090 554 OFFCURVE",
"1090 730 CURVE SMOOTH",
"1090 742 OFFCURVE",
"1086 780 OFFCURVE",
"1078 810 CURVE",
"1254 834 LINE",
"1256 1110 LINE",
"1142 1062 OFFCURVE",
"994 1006 OFFCURVE",
"916 976 CURVE",
"840 1016 OFFCURVE",
"760 1050 OFFCURVE",
"612 1050 CURVE SMOOTH",
"330 1050 OFFCURVE",
"86 936 OFFCURVE",
"86 728 CURVE SMOOTH",
"86 618 OFFCURVE",
"158 486 OFFCURVE",
"308 420 CURVE",
"146 398 OFFCURVE",
"70 320 OFFCURVE",
"70 238 CURVE SMOOTH",
"70 124 OFFCURVE",
"186 80 OFFCURVE",
"216 64 CURVE",
"200 60 OFFCURVE",
"10 30 OFFCURVE",
"10 -104 CURVE SMOOTH",
"10 -236 OFFCURVE",
"208 -342 OFFCURVE",
"616 -342 CURVE SMOOTH"
);
},
{
closed = 1;
nodes = (
"478 -138 OFFCURVE",
"388 -124 OFFCURVE",
"388 -58 CURVE SMOOTH",
"388 -24 OFFCURVE",
"414 22 OFFCURVE",
"522 16 CURVE SMOOTH",
"710 4 LINE SMOOTH",
"790 -2 OFFCURVE",
"838 -30 OFFCURVE",
"838 -74 CURVE SMOOTH",
"838 -112 OFFCURVE",
"812 -138 OFFCURVE",
"676 -138 CURVE SMOOTH"
);
},
{
closed = 1;
nodes = (
"526 578 OFFCURVE",
"476 636 OFFCURVE",
"476 714 CURVE SMOOTH",
"476 792 OFFCURVE",
"526 860 OFFCURVE",
"600 860 CURVE SMOOTH",
"674 860 OFFCURVE",
"724 792 OFFCURVE",
"724 714 CURVE SMOOTH",
"724 636 OFFCURVE",
"674 578 OFFCURVE",
"600 578 CURVE SMOOTH"
);
}
);
width = 1266;
},
{
anchors = (
{
name = top;
position = "{574, 1034}";
}
);
background = {
anchors = (
{
name = top;
position = "{590, 1060}";
}
);
guideLines = (
{
angle = 90;
position = "{291, 374}";
showMeasurement = 1;
}
);
paths = (
{
closed = 1;
nodes = (
"1018 1060 OFFCURVE",
"958 1014 OFFCURVE",
"918 984 CURVE SMOOTH",
"904 974 OFFCURVE",
"896 974 OFFCURVE",
"882 986 CURVE SMOOTH",
"814 1044 OFFCURVE",
"728 1076 OFFCURVE",
"596 1076 CURVE SMOOTH",
"332 1076 OFFCURVE",
"176 950 OFFCURVE",
"176 738 CURVE SMOOTH",
"176 614 OFFCURVE",
"224 532 OFFCURVE",
"334 470 CURVE SMOOTH",
"348 462 OFFCURVE",
"352 450 OFFCURVE",
"336 446 CURVE SMOOTH",
"236 414 OFFCURVE",
"202 362 OFFCURVE",
"202 318 CURVE SMOOTH",
"202 274 OFFCURVE",
"224 242 OFFCURVE",
"278 218 CURVE SMOOTH",
"292 212 OFFCURVE",
"292 204 OFFCURVE",
"278 196 CURVE SMOOTH",
"152 126 OFFCURVE",
"94 42 OFFCURVE",
"94 -54 CURVE SMOOTH",
"94 -240 OFFCURVE",
"266 -350 OFFCURVE",
"574 -350 CURVE SMOOTH",
"876 -350 OFFCURVE",
"1052 -238 OFFCURVE",
"1052 -38 CURVE SMOOTH",
"1052 120 OFFCURVE",
"958 220 OFFCURVE",
"744 232 CURVE SMOOTH",
"504 246 LINE SMOOTH",
"350 254 OFFCURVE",
"286 272 OFFCURVE",
"286 320 CURVE SMOOTH",
"286 368 OFFCURVE",
"352 418 OFFCURVE",
"582 418 CURVE SMOOTH",
"864 418 OFFCURVE",
"986 560 OFFCURVE",
"986 738 CURVE SMOOTH",
"986 822 OFFCURVE",
"958 868 OFFCURVE",
"944 902 CURVE SMOOTH",
"938 916 OFFCURVE",
"948 928 OFFCURVE",
"984 948 CURVE SMOOTH",
"1016 966 OFFCURVE",
"1042 974 OFFCURVE",
"1094 976 CURVE SMOOTH",
"1122 978 OFFCURVE",
"1128 990 OFFCURVE",
"1128 1008 CURVE SMOOTH",
"1128 1034 LINE SMOOTH",
"1128 1052 OFFCURVE",
"1120 1060 OFFCURVE",
"1090 1060 CURVE SMOOTH"
);
},
{
closed = 1;
nodes = (
"374 494 OFFCURVE",
"256 580 OFFCURVE",
"256 742 CURVE SMOOTH",
"256 906 OFFCURVE",
"376 1000 OFFCURVE",
"584 1000 CURVE SMOOTH",
"796 1000 OFFCURVE",
"906 908 OFFCURVE",
"906 742 CURVE SMOOTH",
"906 578 OFFCURVE",
"800 494 OFFCURVE",
"584 494 CURVE SMOOTH"
);
},
{
closed = 1;
nodes = (
"910 140 OFFCURVE",
"968 72 OFFCURVE",
"968 -38 CURVE SMOOTH",
"968 -202 OFFCURVE",
"836 -274 OFFCURVE",
"592 -274 CURVE SMOOTH",
"330 -274 OFFCURVE",
"178 -192 OFFCURVE",
"178 -46 CURVE SMOOTH",
"178 86 OFFCURVE",
"326 176 OFFCURVE",
"390 172 CURVE SMOOTH",
"742 150 LINE SMOOTH"
);
}
);
};
guideLines = (
{
angle = 90;
position = "{331, 347}";
showMeasurement = 1;
}
);
layerId = "91AB5BCA-6A50-42DA-B2F7-8181BF189245";
paths = (
{
closed = 1;
nodes = (
"852 -342 OFFCURVE",
"1024 -232 OFFCURVE",
"1024 -38 CURVE SMOOTH",
"1024 118 OFFCURVE",
"932 214 OFFCURVE",
"724 226 CURVE SMOOTH",
"626 232 OFFCURVE",
"550 236 OFFCURVE",
"490 240 CURVE SMOOTH",
"324 252 OFFCURVE",
"276 268 OFFCURVE",
"276 312 CURVE SMOOTH",
"276 356 OFFCURVE",
"338 404 OFFCURVE",
"544 408 CURVE SMOOTH",
"552 408 OFFCURVE",
"558 408 OFFCURVE",
"566 408 CURVE SMOOTH",
"840 408 OFFCURVE",
"960 546 OFFCURVE",
"960 720 CURVE SMOOTH",
"960 772 OFFCURVE",
"936 852 OFFCURVE",
"914 892 CURVE",
"1098 932 LINE",
"1098 1048 LINE",
"1072 1038 OFFCURVE",
"900 964 OFFCURVE",
"874 952 CURVE",
"794 1018 OFFCURVE",
"708 1050 OFFCURVE",
"580 1050 CURVE SMOOTH",
"322 1050 OFFCURVE",
"170 926 OFFCURVE",
"170 720 CURVE SMOOTH",
"170 590 OFFCURVE",
"218 514 OFFCURVE",
"348 444 CURVE",
"248 414 OFFCURVE",
"194 366 OFFCURVE",
"194 310 CURVE SMOOTH",
"194 248 OFFCURVE",
"242 226 OFFCURVE",
"280 202 CURVE",
"250 176 OFFCURVE",
"90 104 OFFCURVE",
"90 -52 CURVE SMOOTH",
"90 -234 OFFCURVE",
"258 -342 OFFCURVE",
"558 -342 CURVE SMOOTH"
);
},
{
closed = 1;
nodes = (
"320 -268 OFFCURVE",
"172 -188 OFFCURVE",
"172 -44 CURVE SMOOTH",
"172 84 OFFCURVE",
"316 172 OFFCURVE",
"378 168 CURVE SMOOTH",
"722 146 LINE SMOOTH",
"886 136 OFFCURVE",
"942 70 OFFCURVE",
"942 -38 CURVE SMOOTH",
"942 -196 OFFCURVE",
"814 -268 OFFCURVE",
"576 -268 CURVE SMOOTH"
);
},
{
closed = 1;
nodes = (
"362 482 OFFCURVE",
"248 566 OFFCURVE",
"248 724 CURVE SMOOTH",
"248 884 OFFCURVE",
"364 976 OFFCURVE",
"568 976 CURVE SMOOTH",
"756 976 OFFCURVE",
"882 896 OFFCURVE",
"882 724 CURVE SMOOTH",
"882 564 OFFCURVE",
"778 482 OFFCURVE",
"568 482 CURVE SMOOTH"
);
}
);
width = 1198;
}
);
leftKerningGroup = g;
rightKerningGroup = g;
unicode = 0067;
},
{
glyphname = gcommaaccent;
lastChange = "2019-04-16 18:49:16 +0000";
layers = (
{
anchors = (
{
name = _top;
position = "{554, 1072}";
}
);
background = {
anchors = (
{
name = _top;
position = "{530, 1100}";
}
);
components = (
{
name = g;
transform = "{1, 0, 0, 1, -38, 0}";
}
);
paths = (
{
closed = 1;
nodes = (
"624 1198 LINE SMOOTH",
"644 1198 OFFCURVE",
"660 1210 OFFCURVE",
"660 1238 CURVE SMOOTH",
"660 1360 LINE SMOOTH",
"660 1392 OFFCURVE",
"648 1404 OFFCURVE",
"614 1404 CURVE SMOOTH",
"596 1404 LINE SMOOTH",
"568 1404 OFFCURVE",
"556 1434 OFFCURVE",
"578 1462 CURVE SMOOTH",
"644 1552 LINE SMOOTH",
"656 1568 OFFCURVE",
"642 1592 OFFCURVE",
"620 1592 CURVE SMOOTH",
"584 1592 LINE SMOOTH",
"548 1592 OFFCURVE",
"534 1586 OFFCURVE",
"518 1564 CURVE SMOOTH",
"410 1430 LINE SMOOTH",
"408 1424 OFFCURVE",
"402 1414 OFFCURVE",
"402 1404 CURVE SMOOTH",
"402 1230 LINE SMOOTH",
"402 1210 OFFCURVE",
"414 1198 OFFCURVE",
"436 1198 CURVE SMOOTH"
);
}
);
};
components = (
{
name = g;
}
);
layerId = "258ED206-D907-4350-8EBA-CBDDA1C16BF7";
paths = (
{
closed = 1;
nodes = (
"680 1168 LINE",
"680 1368 LINE",
"558 1368 LINE",
"694 1552 LINE",
"562 1552 LINE",
"428 1384 LINE",
"428 1168 LINE"
);
}
);
width = 1266;
},
{
anchors = (
{
name = _top;
position = "{558, 1072}";
}
);
background = {
anchors = (
{
name = _top;
position = "{574, 1100}";
}
);
components = (
{
name = g;
transform = "{1, 0, 0, 1, 4, 0}";
}
);
paths = (
{
closed = 1;
nodes = (
"612 1264 LINE SMOOTH",
"620 1264 OFFCURVE",
"626 1268 OFFCURVE",
"626 1280 CURVE SMOOTH",
"626 1412 LINE SMOOTH",
"626 1426 OFFCURVE",
"622 1430 OFFCURVE",
"610 1430 CURVE SMOOTH",
"594 1430 LINE SMOOTH",
"584 1430 OFFCURVE",
"580 1436 OFFCURVE",
"586 1448 CURVE SMOOTH",
"636 1556 LINE SMOOTH",
"640 1564 OFFCURVE",
"636 1572 OFFCURVE",
"628 1572 CURVE SMOOTH",
"602 1572 LINE SMOOTH",
"586 1572 OFFCURVE",
"580 1570 OFFCURVE",
"574 1560 CURVE SMOOTH",
"512 1442 LINE SMOOTH",
"512 1440 OFFCURVE",
"510 1434 OFFCURVE",
"510 1430 CURVE SMOOTH",
"510 1278 LINE SMOOTH",
"510 1268 OFFCURVE",
"514 1264 OFFCURVE",
"522 1264 CURVE SMOOTH"
);
}
);
};
components = (
{
name = g;
}
);
layerId = "91AB5BCA-6A50-42DA-B2F7-8181BF189245";
paths = (
{
closed = 1;
nodes = (
"608 1232 LINE",
"608 1394 LINE",
"562 1394 LINE",
"626 1532 LINE",
"564 1532 LINE",
"496 1402 LINE",
"496 1232 LINE"
);
}
);
width = 1198;
}
);
leftKerningGroup = g;
leftMetricsKey = g;
rightKerningGroup = g;
rightMetricsKey = g;
unicode = 0123;
},
{
glyphname = h;
lastChange = "2019-04-16 18:49:16 +0000";
layers = (
{
anchors = (
{
name = bottom;
position = "{614, 0}";
},
{
name = top;
position = "{886, 1034}";
}
);
background = {
anchors = (
{
name = bottom;
position = "{592, 0}";
},
{
name = top;
position = "{870, 1060}";
}
);
paths = (
{
closed = 1;
nodes = (
"398 0 LINE SMOOTH",
"446 0 OFFCURVE",
"464 16 OFFCURVE",
"464 58 CURVE SMOOTH",
"464 698 LINE",
"502 766 OFFCURVE",
"550 798 OFFCURVE",
"612 798 CURVE SMOOTH",
"676 798 OFFCURVE",
"716 762 OFFCURVE",
"716 702 CURVE SMOOTH",
"716 50 LINE SMOOTH",
"716 12 OFFCURVE",
"728 0 OFFCURVE",
"762 0 CURVE SMOOTH",
"1056 0 LINE SMOOTH",
"1098 0 OFFCURVE",
"1116 20 OFFCURVE",
"1116 60 CURVE SMOOTH",
"1116 750 LINE SMOOTH",
"1116 962 OFFCURVE",
"1002 1080 OFFCURVE",
"804 1080 CURVE SMOOTH",
"698 1080 OFFCURVE",
"598 1046 OFFCURVE",
"484 936 CURVE SMOOTH",
"468 922 OFFCURVE",
"458 928 OFFCURVE",
"458 944 CURVE SMOOTH",
"458 1442 LINE SMOOTH",
"458 1468 OFFCURVE",
"446 1484 OFFCURVE",
"422 1484 CURVE SMOOTH",
"102 1484 LINE SMOOTH",
"78 1484 OFFCURVE",
"64 1466 OFFCURVE",
"64 1438 CURVE SMOOTH",
"64 50 LINE SMOOTH",
"64 14 OFFCURVE",
"78 0 OFFCURVE",
"116 0 CURVE SMOOTH"
);
}
);
};
layerId = "258ED206-D907-4350-8EBA-CBDDA1C16BF7";
paths = (
{
closed = 1;
nodes = (
"490 0 LINE",
"490 642 LINE",
"490 700 OFFCURVE",
"554 740 OFFCURVE",
"612 740 CURVE SMOOTH",
"670 740 OFFCURVE",
"734 704 OFFCURVE",
"734 646 CURVE SMOOTH",
"734 0 LINE",
"1124 0 LINE",
"1124 692 LINE SMOOTH",
"1124 898 OFFCURVE",
"956 1034 OFFCURVE",
"762 1034 CURVE SMOOTH",
"600 1034 OFFCURVE",
"538 966 OFFCURVE",
"490 906 CURVE",
"490 1486 LINE",
"100 1486 LINE",
"100 0 LINE"
);
}
);
width = 1214;
},
{
anchors = (
{
name = bottom;
position = "{592, 0}";
},
{
name = top;
position = "{636, 1034}";
}
);
background = {
anchors = (
{
name = bottom;
position = "{610, 0}";
},
{
name = top;
position = "{654, 1060}";
}
);
paths = (
{
closed = 1;
nodes = (
"248 0 LINE SMOOTH",
"260 0 OFFCURVE",
"266 6 OFFCURVE",
"266 18 CURVE SMOOTH",
"266 820 LINE",
"426 942 OFFCURVE",
"520 1004 OFFCURVE",
"662 1004 CURVE SMOOTH",
"836 1004 OFFCURVE",
"908 910 OFFCURVE",
"908 754 CURVE SMOOTH",
"908 18 LINE SMOOTH",
"908 6 OFFCURVE",
"914 0 OFFCURVE",
"926 0 CURVE SMOOTH",
"970 0 LINE SMOOTH",
"982 0 OFFCURVE",
"988 6 OFFCURVE",
"988 20 CURVE SMOOTH",
"988 786 LINE SMOOTH",
"988 960 OFFCURVE",
"878 1080 OFFCURVE",
"664 1080 CURVE SMOOTH",
"518 1080 OFFCURVE",
"428 1022 OFFCURVE",
"276 914 CURVE SMOOTH",
"264 904 OFFCURVE",
"260 906 OFFCURVE",
"260 920 CURVE SMOOTH",
"260 1468 LINE SMOOTH",
"260 1480 OFFCURVE",
"256 1484 OFFCURVE",
"244 1484 CURVE SMOOTH",
"202 1484 LINE SMOOTH",
"190 1484 OFFCURVE",
"186 1478 OFFCURVE",
"186 1466 CURVE SMOOTH",
"186 18 LINE SMOOTH",
"186 6 OFFCURVE",
"192 0 OFFCURVE",
"204 0 CURVE SMOOTH"
);
}
);
};
layerId = "91AB5BCA-6A50-42DA-B2F7-8181BF189245";
paths = (
{
closed = 1;
nodes = (
"258 0 LINE",
"258 720 LINE",
"258 896 OFFCURVE",
"416 978 OFFCURVE",
"600 978 CURVE SMOOTH",
"776 978 OFFCURVE",
"884 888 OFFCURVE",
"884 736 CURVE SMOOTH",
"884 0 LINE",
"962 0 LINE",
"962 766 LINE SMOOTH",
"962 936 OFFCURVE",
"808 1054 OFFCURVE",
"602 1054 CURVE SMOOTH",
"434 1054 OFFCURVE",
"306 978 OFFCURVE",
"252 880 CURVE",
"252 1486 LINE",
"180 1486 LINE",
"180 0 LINE"
);
}
);
width = 1142;
}
);
leftKerningGroup = h;
leftMetricsKey = n;
rightKerningGroup = n;
rightMetricsKey = n;
unicode = 0068;
},
{
glyphname = hbar;
lastChange = "2019-04-16 18:49:16 +0000";
layers = (
{
background = {
components = (
{
name = h;
transform = "{1, 0, 0, 1, 1, 0}";
}
);
paths = (
{
closed = 1;
nodes = (
"744 1360 OFFCURVE",
"732 1374 OFFCURVE",
"712 1374 CURVE SMOOTH",
"34 1374 LINE SMOOTH",
"14 1374 OFFCURVE",
"2 1360 OFFCURVE",
"2 1334 CURVE SMOOTH",
"2 1204 LINE SMOOTH",
"2 1174 OFFCURVE",
"12 1160 OFFCURVE",
"46 1160 CURVE SMOOTH",
"686 1160 LINE SMOOTH",
"726 1160 OFFCURVE",
"744 1174 OFFCURVE",
"744 1208 CURVE SMOOTH",
"744 1338 LINE SMOOTH"
);
}
);
};
components = (
{
name = h;
transform = "{1, 0, 0, 1, 78, 0}";
}
);
layerId = "258ED206-D907-4350-8EBA-CBDDA1C16BF7";
paths = (
{
closed = 1;
nodes = (
"40 1340 LINE",
"40 1132 LINE",
"762 1132 LINE",
"762 1340 LINE"
);
}
);
width = 1292;
},
{
background = {
components = (
{
name = h;
transform = "{1, 0, 0, 1, 2, 0}";
}
);
paths = (
{
closed = 1;
nodes = (
"622 1320 OFFCURVE",
"618 1324 OFFCURVE",
"612 1324 CURVE SMOOTH",
"54 1324 LINE SMOOTH",
"48 1324 OFFCURVE",
"44 1320 OFFCURVE",
"44 1310 CURVE SMOOTH",
"44 1270 LINE SMOOTH",
"44 1258 OFFCURVE",
"46 1254 OFFCURVE",
"58 1254 CURVE SMOOTH",
"602 1254 LINE SMOOTH",
"616 1254 OFFCURVE",
"622 1258 OFFCURVE",
"622 1270 CURVE SMOOTH",
"622 1312 LINE SMOOTH"
);
}
);
};
components = (
{
name = h;
transform = "{1, 0, 0, 1, -4, 0}";
}
);
layerId = "91AB5BCA-6A50-42DA-B2F7-8181BF189245";
paths = (
{
closed = 1;
nodes = (
"40 1290 LINE",
"40 1222 LINE",
"604 1222 LINE",
"604 1290 LINE"
);
}
);
width = 1138;
}
);
leftKerningGroup = h;
rightKerningGroup = n;
rightMetricsKey = h;
unicode = 0127;
},
{
glyphname = i;
lastChange = "2019-04-16 18:49:16 +0000";
layers = (
{
anchors = (
{
name = bottom;
position = "{296, 0}";
}
);
background = {
paths = (
{
closed = 1;
nodes = (
"464 1044 OFFCURVE",
"450 1060 OFFCURVE",
"428 1060 CURVE SMOOTH",
"102 1060 LINE SMOOTH",
"78 1060 OFFCURVE",
"64 1044 OFFCURVE",
"64 1014 CURVE SMOOTH",
"64 50 LINE SMOOTH",
"64 16 OFFCURVE",
"76 0 OFFCURVE",
"116 0 CURVE SMOOTH",
"398 0 LINE SMOOTH",
"444 0 OFFCURVE",
"464 16 OFFCURVE",
"464 58 CURVE SMOOTH",
"464 1020 LINE SMOOTH"
);
},
{
closed = 1;
nodes = (
"464 1468 OFFCURVE",
"450 1484 OFFCURVE",
"428 1484 CURVE SMOOTH",
"102 1484 LINE SMOOTH",
"78 1484 OFFCURVE",
"64 1468 OFFCURVE",
"64 1438 CURVE SMOOTH",
"64 1200 LINE SMOOTH",
"64 1166 OFFCURVE",
"76 1148 OFFCURVE",
"116 1148 CURVE SMOOTH",
"398 1148 LINE SMOOTH",
"444 1148 OFFCURVE",
"464 1166 OFFCURVE",
"464 1206 CURVE SMOOTH",
"464 1442 LINE SMOOTH"
);
}
);
};
layerId = "258ED206-D907-4350-8EBA-CBDDA1C16BF7";
paths = (
{
closed = 1;
nodes = (
"100 1034 LINE",
"100 0 LINE",
"490 0 LINE",
"490 1034 LINE"
);
},
{
closed = 1;
nodes = (
"100 1486 LINE",
"100 1158 LINE",
"490 1158 LINE",
"490 1486 LINE"
);
}
);
width = 580;
},
{
anchors = (
{
name = bottom;
position = "{248, 0}";
}
);
background = {
paths = (
{
closed = 1;
nodes = (
"296 1056 OFFCURVE",
"292 1060 OFFCURVE",
"278 1060 CURVE SMOOTH",
"234 1060 LINE SMOOTH",
"220 1060 OFFCURVE",
"216 1056 OFFCURVE",
"216 1040 CURVE SMOOTH",
"216 20 LINE SMOOTH",
"216 4 OFFCURVE",
"220 0 OFFCURVE",
"238 0 CURVE SMOOTH",
"272 0 LINE SMOOTH",
"292 0 OFFCURVE",
"296 4 OFFCURVE",
"296 24 CURVE SMOOTH",
"296 1040 LINE SMOOTH"
);
},
{
closed = 1;
nodes = (
"306 1474 OFFCURVE",
"296 1484 OFFCURVE",
"282 1484 CURVE SMOOTH",
"230 1484 LINE SMOOTH",
"216 1484 OFFCURVE",
"206 1474 OFFCURVE",
"206 1458 CURVE SMOOTH",
"206 1316 LINE SMOOTH",
"206 1300 OFFCURVE",
"210 1288 OFFCURVE",
"228 1288 CURVE SMOOTH",
"282 1288 LINE SMOOTH",
"302 1288 OFFCURVE",
"306 1300 OFFCURVE",
"306 1320 CURVE SMOOTH",
"306 1458 LINE SMOOTH"
);
}
);
};
layerId = "91AB5BCA-6A50-42DA-B2F7-8181BF189245";
paths = (
{
closed = 1;
nodes = (
"210 1034 LINE",
"210 0 LINE",
"288 0 LINE",
"288 1034 LINE"
);
},
{
closed = 1;
nodes = (
"200 1414 LINE",
"200 1294 LINE",
"296 1294 LINE",
"296 1414 LINE"
);
}
);
width = 496;
}
);
leftKerningGroup = n;
rightKerningGroup = d;
unicode = 0069;
},
{
glyphname = idotless;
lastChange = "2019-04-16 18:49:16 +0000";
layers = (
{
anchors = (
{
name = ogonek;
position = "{434, 18}";
},
{
name = top;
position = "{302, 1034}";
}
);
background = {
anchors = (
{
name = ogonek;
position = "{408, 18}";
},
{
name = top;
position = "{272, 1060}";
}
);
paths = (
{
closed = 1;
nodes = (
"464 1044 OFFCURVE",
"450 1060 OFFCURVE",
"428 1060 CURVE SMOOTH",
"102 1060 LINE SMOOTH",
"78 1060 OFFCURVE",
"64 1044 OFFCURVE",
"64 1014 CURVE SMOOTH",
"64 50 LINE SMOOTH",
"64 16 OFFCURVE",
"76 0 OFFCURVE",
"116 0 CURVE SMOOTH",
"398 0 LINE SMOOTH",
"444 0 OFFCURVE",
"464 16 OFFCURVE",
"464 58 CURVE SMOOTH",
"464 1020 LINE SMOOTH"
);
}
);
};
layerId = "258ED206-D907-4350-8EBA-CBDDA1C16BF7";
paths = (
{
closed = 1;
nodes = (
"100 1034 LINE",
"100 0 LINE",
"490 0 LINE",
"490 1034 LINE"
);
}
);
width = 580;
},
{
anchors = (
{
name = ogonek;
position = "{262, 26}";
},
{
name = top;
position = "{238, 1034}";
}
);
background = {
anchors = (
{
name = ogonek;
position = "{270, 26}";
},
{
name = top;
position = "{246, 1060}";
}
);
paths = (
{
closed = 1;
nodes = (
"286 1056 OFFCURVE",
"282 1060 OFFCURVE",
"268 1060 CURVE SMOOTH",
"224 1060 LINE SMOOTH",
"210 1060 OFFCURVE",
"206 1056 OFFCURVE",
"206 1040 CURVE SMOOTH",
"206 20 LINE SMOOTH",
"206 4 OFFCURVE",
"210 0 OFFCURVE",
"228 0 CURVE SMOOTH",
"262 0 LINE SMOOTH",
"282 0 OFFCURVE",
"286 4 OFFCURVE",
"286 24 CURVE SMOOTH",
"286 1040 LINE SMOOTH"
);
}
);
};
layerId = "91AB5BCA-6A50-42DA-B2F7-8181BF189245";
paths = (
{
closed = 1;
nodes = (
"200 1034 LINE",
"200 0 LINE",
"278 0 LINE",
"278 1034 LINE"
);
}
);
width = 478;
}
);
leftKerningGroup = n;
leftMetricsKey = i;
rightKerningGroup = d;
rightMetricsKey = i;
unicode = 0131;
},
{
glyphname = j;
lastChange = "2019-04-21 20:38:49 +0000";
layers = (
{
background = {
paths = (
{
closed = 1;
nodes = (
"500 1020 LINE SMOOTH",
"500 1044 OFFCURVE",
"488 1060 OFFCURVE",
"464 1060 CURVE SMOOTH",
"140 1060 LINE SMOOTH",
"116 1060 OFFCURVE",
"100 1044 OFFCURVE",
"100 1014 CURVE SMOOTH",
"100 72 LINE SMOOTH",
"100 4 OFFCURVE",
"78 -12 OFFCURVE",
"52 -20 CURVE SMOOTH",
"-18 -32 LINE SMOOTH",
"-44 -38 OFFCURVE",
"-58 -64 OFFCURVE",
"-58 -86 CURVE SMOOTH",
"-56 -290 LINE SMOOTH",
"-56 -332 OFFCURVE",
"-32 -340 OFFCURVE",
"80 -340 CURVE SMOOTH",
"364 -340 OFFCURVE",
"500 -206 OFFCURVE",
"500 58 CURVE SMOOTH"
);
},
{
closed = 1;
nodes = (
"500 1468 OFFCURVE",
"488 1484 OFFCURVE",
"464 1484 CURVE SMOOTH",
"140 1484 LINE SMOOTH",
"116 1484 OFFCURVE",
"100 1468 OFFCURVE",
"100 1438 CURVE SMOOTH",
"100 1200 LINE SMOOTH",
"100 1166 OFFCURVE",
"114 1148 OFFCURVE",
"154 1148 CURVE SMOOTH",
"436 1148 LINE SMOOTH",
"436 1148 OFFCURVE",
"500 1166 OFFCURVE",
"500 1206 CURVE SMOOTH",
"500 1442 LINE SMOOTH"
);
}
);
};
layerId = "258ED206-D907-4350-8EBA-CBDDA1C16BF7";
paths = (
{
closed = 1;
nodes = (
"524 1034 LINE",
"134 1034 LINE",
"134 56 LINE",
"134 14 OFFCURVE",
"114 -12 OFFCURVE",
"40 -28 CURVE",
"-20 -38 LINE",
"-18 -298 LINE",
"-18 -298 OFFCURVE",
"12 -332 OFFCURVE",
"116 -332 CURVE",
"392 -332 OFFCURVE",
"524 -200 OFFCURVE",
"524 56 CURVE SMOOTH"
);
},
{
closed = 1;
nodes = (
"134 1486 LINE",
"134 1158 LINE",
"524 1158 LINE",
"524 1486 LINE"
);
}
);
width = 634;
},
{
background = {
paths = (
{
closed = 1;
nodes = (
"296 1040 LINE SMOOTH",
"296 1054 OFFCURVE",
"292 1060 OFFCURVE",
"280 1060 CURVE SMOOTH",
"236 1060 LINE SMOOTH",
"222 1060 OFFCURVE",
"216 1054 OFFCURVE",
"216 1040 CURVE SMOOTH",
"216 -92 LINE SMOOTH",
"216 -220 OFFCURVE",
"174 -264 OFFCURVE",
"68 -266 CURVE SMOOTH",
"-48 -268 LINE SMOOTH",
"-56 -268 OFFCURVE",
"-60 -272 OFFCURVE",
"-60 -280 CURVE SMOOTH",
"-60 -322 LINE SMOOTH",
"-60 -338 OFFCURVE",
"-48 -340 OFFCURVE",
"70 -340 CURVE SMOOTH",
"252 -340 OFFCURVE",
"296 -266 OFFCURVE",
"296 -102 CURVE SMOOTH"
);
},
{
closed = 1;
nodes = (
"306 1474 OFFCURVE",
"296 1484 OFFCURVE",
"282 1484 CURVE SMOOTH",
"230 1484 LINE SMOOTH",
"216 1484 OFFCURVE",
"206 1474 OFFCURVE",
"206 1458 CURVE SMOOTH",
"206 1316 LINE SMOOTH",
"206 1300 OFFCURVE",
"210 1288 OFFCURVE",
"228 1288 CURVE SMOOTH",
"282 1288 LINE SMOOTH",
"302 1288 OFFCURVE",
"306 1300 OFFCURVE",
"306 1320 CURVE SMOOTH",
"306 1458 LINE SMOOTH"
);
}
);
};
layerId = "91AB5BCA-6A50-42DA-B2F7-8181BF189245";
paths = (
{
closed = 1;
nodes = (
"286 1034 LINE",
"208 1034 LINE",
"208 -90 LINE SMOOTH",
"208 -214 OFFCURVE",
"168 -258 OFFCURVE",
"64 -260 CURVE SMOOTH",
"-60 -262 LINE",
"-60 -314 LINE SMOOTH",
"-60 -314 OFFCURVE",
"-50 -332 OFFCURVE",
"66 -332 CURVE SMOOTH",
"244 -332 OFFCURVE",
"286 -260 OFFCURVE",
"286 -100 CURVE SMOOTH"
);
},
{
closed = 1;
nodes = (
"200 1414 LINE",
"200 1294 LINE",
"296 1294 LINE",
"296 1414 LINE"
);
}
);
width = 476;
}
);
rightKerningGroup = d;
unicode = 006A;
},
{
glyphname = jdotless;
lastChange = "2019-04-21 20:40:00 +0000";
layers = (
{
anchors = (
{
name = top;
position = "{328, 1034}";
}
);
background = {
anchors = (
{
name = top;
position = "{298, 1060}";
}
);
paths = (
{
closed = 1;
nodes = (
"498 1020 LINE SMOOTH",
"498 1044 OFFCURVE",
"486 1060 OFFCURVE",
"462 1060 CURVE SMOOTH",
"138 1060 LINE SMOOTH",
"114 1060 OFFCURVE",
"98 1044 OFFCURVE",
"98 1014 CURVE SMOOTH",
"98 72 LINE SMOOTH",
"98 4 OFFCURVE",
"76 -12 OFFCURVE",
"50 -20 CURVE SMOOTH",
"-20 -32 LINE SMOOTH",
"-46 -38 OFFCURVE",
"-60 -64 OFFCURVE",
"-60 -86 CURVE SMOOTH",
"-58 -290 LINE SMOOTH",
"-58 -332 OFFCURVE",
"-34 -340 OFFCURVE",
"78 -340 CURVE SMOOTH",
"362 -340 OFFCURVE",
"498 -206 OFFCURVE",
"498 58 CURVE SMOOTH"
);
}
);
};
layerId = "258ED206-D907-4350-8EBA-CBDDA1C16BF7";
paths = (
{
closed = 1;
nodes = (
"524 1034 LINE",
"134 1034 LINE",
"134 56 LINE",
"134 14 OFFCURVE",
"112 -12 OFFCURVE",
"38 -28 CURVE",
"-20 -38 LINE",
"-18 -298 LINE",
"-18 -298 OFFCURVE",
"10 -332 OFFCURVE",
"114 -332 CURVE",
"390 -332 OFFCURVE",
"524 -200 OFFCURVE",
"524 56 CURVE SMOOTH"
);
}
);
width = 634;
},
{
anchors = (
{
name = top;
position = "{248, 1034}";
}
);
background = {
anchors = (
{
name = top;
position = "{256, 1060}";
}
);
paths = (
{
closed = 1;
nodes = (
"296 1040 LINE SMOOTH",
"296 1054 OFFCURVE",
"292 1060 OFFCURVE",
"280 1060 CURVE SMOOTH",
"236 1060 LINE SMOOTH",
"222 1060 OFFCURVE",
"216 1054 OFFCURVE",
"216 1040 CURVE SMOOTH",
"216 -92 LINE SMOOTH",
"216 -220 OFFCURVE",
"174 -264 OFFCURVE",
"68 -266 CURVE SMOOTH",
"-48 -268 LINE SMOOTH",
"-56 -268 OFFCURVE",
"-60 -272 OFFCURVE",
"-60 -280 CURVE SMOOTH",
"-60 -322 LINE SMOOTH",
"-60 -338 OFFCURVE",
"-48 -340 OFFCURVE",
"70 -340 CURVE SMOOTH",
"252 -340 OFFCURVE",
"296 -266 OFFCURVE",
"296 -102 CURVE SMOOTH"
);
}
);
};
layerId = "91AB5BCA-6A50-42DA-B2F7-8181BF189245";
paths = (
{
closed = 1;
nodes = (
"288 1034 LINE",
"210 1034 LINE",
"210 -90 LINE SMOOTH",
"210 -214 OFFCURVE",
"168 -258 OFFCURVE",
"66 -260 CURVE SMOOTH",
"-60 -262 LINE",
"-60 -314 LINE SMOOTH",
"-60 -330 OFFCURVE",
"-48 -332 OFFCURVE",
"68 -332 CURVE SMOOTH",
"244 -332 OFFCURVE",
"288 -260 OFFCURVE",
"288 -100 CURVE SMOOTH"
);
}
);
width = 468;
}
);
leftKerningGroup = j;
leftMetricsKey = j;
rightKerningGroup = d;
rightMetricsKey = j;
unicode = 0237;
},
{
glyphname = k;
lastChange = "2019-04-21 18:59:00 +0000";
layers = (
{
anchors = (
{
name = bottom;
position = "{606, 0}";
}
);
background = {
anchors = (
{
name = bottom;
position = "{584, 0}";
}
);
paths = (
{
closed = 1;
nodes = (
"890 674 LINE SMOOTH",
"872 710 OFFCURVE",
"876 722 OFFCURVE",
"894 744 CURVE SMOOTH",
"1152 1002 LINE SMOOTH",
"1178 1030 OFFCURVE",
"1170 1060 OFFCURVE",
"1124 1060 CURVE SMOOTH",
"850 1060 LINE SMOOTH",
"830 1060 OFFCURVE",
"808 1046 OFFCURVE",
"788 1026 CURVE SMOOTH",
"488 688 LINE SMOOTH",
"472 670 OFFCURVE",
"464 680 OFFCURVE",
"464 692 CURVE SMOOTH",
"464 1442 LINE SMOOTH",
"464 1468 OFFCURVE",
"452 1484 OFFCURVE",
"428 1484 CURVE SMOOTH",
"102 1484 LINE SMOOTH",
"80 1484 OFFCURVE",
"64 1468 OFFCURVE",
"64 1438 CURVE SMOOTH",
"64 50 LINE SMOOTH",
"64 16 OFFCURVE",
"76 0 OFFCURVE",
"118 0 CURVE SMOOTH",
"400 0 LINE SMOOTH",
"446 0 OFFCURVE",
"464 16 OFFCURVE",
"464 58 CURVE SMOOTH",
"464 260 LINE SMOOTH",
"464 292 OFFCURVE",
"470 306 OFFCURVE",
"482 316 CURVE SMOOTH",
"578 406 LINE SMOOTH",
"598 426 OFFCURVE",
"608 422 OFFCURVE",
"620 396 CURVE SMOOTH",
"764 52 LINE SMOOTH",
"778 20 OFFCURVE",
"796 0 OFFCURVE",
"830 0 CURVE SMOOTH",
"1172 0 LINE SMOOTH",
"1208 0 OFFCURVE",
"1222 34 OFFCURVE",
"1210 56 CURVE SMOOTH"
);
}
);
};
guideLines = (
{
angle = 50.4927;
position = "{245, 343}";
},
{
angle = 122;
position = "{386, 0}";
}
);
layerId = "258ED206-D907-4350-8EBA-CBDDA1C16BF7";
paths = (
{
closed = 1;
nodes = (
"802 606 LINE",
"1180 1034 LINE",
"774 1034 LINE",
"490 686 LINE",
"490 1486 LINE",
"100 1486 LINE",
"100 0 LINE",
"490 0 LINE",
"490 292 LINE",
"566 380 LINE",
"804 0 LINE",
"1182 0 LINE"
);
}
);
width = 1202;
},
{
anchors = (
{
name = bottom;
position = "{534, 0}";
}
);
background = {
anchors = (
{
name = bottom;
position = "{550, 0}";
}
);
paths = (
{
closed = 1;
nodes = (
"616 662 LINE SMOOTH",
"610 672 OFFCURVE",
"612 678 OFFCURVE",
"618 684 CURVE SMOOTH",
"956 1030 LINE SMOOTH",
"974 1048 OFFCURVE",
"972 1060 OFFCURVE",
"952 1060 CURVE SMOOTH",
"888 1060 LINE SMOOTH",
"874 1060 OFFCURVE",
"868 1056 OFFCURVE",
"854 1040 CURVE",
"286 458 LINE SMOOTH",
"270 442 OFFCURVE",
"266 444 OFFCURVE",
"266 468 CURVE SMOOTH",
"266 1464 LINE SMOOTH",
"266 1480 OFFCURVE",
"262 1484 OFFCURVE",
"248 1484 CURVE SMOOTH",
"204 1484 LINE SMOOTH",
"190 1484 OFFCURVE",
"186 1480 OFFCURVE",
"186 1464 CURVE SMOOTH",
"186 20 LINE SMOOTH",
"186 4 OFFCURVE",
"190 0 OFFCURVE",
"208 0 CURVE SMOOTH",
"242 0 LINE SMOOTH",
"262 0 OFFCURVE",
"266 4 OFFCURVE",
"266 24 CURVE SMOOTH",
"266 304 LINE SMOOTH",
"266 318 OFFCURVE",
"270 328 OFFCURVE",
"280 338 CURVE SMOOTH",
"536 598 LINE SMOOTH",
"546 608 OFFCURVE",
"548 604 OFFCURVE",
"552 598 CURVE SMOOTH",
"916 14 LINE SMOOTH",
"922 4 OFFCURVE",
"928 0 OFFCURVE",
"940 0 CURVE SMOOTH",
"1002 0 LINE SMOOTH",
"1020 0 OFFCURVE",
"1022 8 OFFCURVE",
"1012 24 CURVE SMOOTH"
);
}
);
};
guideLines = (
{
angle = 121.8697;
position = "{298, 140}";
}
);
layerId = "91AB5BCA-6A50-42DA-B2F7-8181BF189245";
paths = (
{
closed = 1;
nodes = (
"590 658 LINE",
"960 1034 LINE",
"850 1034 LINE",
"258 428 LINE",
"258 1486 LINE",
"180 1486 LINE",
"180 0 LINE",
"258 0 LINE",
"258 316 LINE",
"530 592 LINE",
"898 0 LINE",
"998 0 LINE"
);
}
);
width = 1088;
}
);
leftKerningGroup = h;
leftMetricsKey = n;
rightKerningGroup = k;
unicode = 006B;
},
{
glyphname = kgreenlandic;
lastChange = "2019-04-16 18:49:16 +0000";
layers = (
{
background = {
paths = (
{
closed = 1;
nodes = (
"890 674 LINE SMOOTH",
"872 710 OFFCURVE",
"876 722 OFFCURVE",
"894 744 CURVE SMOOTH",
"1152 1002 LINE SMOOTH",
"1178 1030 OFFCURVE",
"1170 1060 OFFCURVE",
"1124 1060 CURVE SMOOTH",
"850 1060 LINE SMOOTH",
"830 1060 OFFCURVE",
"808 1046 OFFCURVE",
"788 1026 CURVE SMOOTH",
"488 688 LINE SMOOTH",
"472 670 OFFCURVE",
"464 680 OFFCURVE",
"464 692 CURVE SMOOTH",
"464 1018 LINE SMOOTH",
"464 1044 OFFCURVE",
"452 1060 OFFCURVE",
"428 1060 CURVE SMOOTH",
"102 1060 LINE SMOOTH",
"80 1060 OFFCURVE",
"64 1044 OFFCURVE",
"64 1014 CURVE SMOOTH",
"64 50 LINE SMOOTH",
"64 16 OFFCURVE",
"76 0 OFFCURVE",
"118 0 CURVE SMOOTH",
"400 0 LINE SMOOTH",
"446 0 OFFCURVE",
"464 16 OFFCURVE",
"464 58 CURVE SMOOTH",
"464 260 LINE SMOOTH",
"464 292 OFFCURVE",
"470 306 OFFCURVE",
"482 316 CURVE SMOOTH",
"578 406 LINE SMOOTH",
"598 426 OFFCURVE",
"608 422 OFFCURVE",
"620 396 CURVE SMOOTH",
"764 52 LINE SMOOTH",
"778 20 OFFCURVE",
"796 0 OFFCURVE",
"830 0 CURVE SMOOTH",
"1172 0 LINE SMOOTH",
"1208 0 OFFCURVE",
"1222 34 OFFCURVE",
"1210 56 CURVE SMOOTH"
);
}
);
};
layerId = "258ED206-D907-4350-8EBA-CBDDA1C16BF7";
paths = (
{
closed = 1;
nodes = (
"884 700 LINE",
"1216 1034 LINE",
"834 1034 LINE",
"490 644 LINE",
"490 1034 LINE",
"100 1034 LINE",
"100 0 LINE",
"490 0 LINE",
"490 292 LINE",
"628 422 LINE",
"804 0 LINE",
"1244 0 LINE"
);
}
);
width = 1264;
},
{
background = {
paths = (
{
closed = 1;
nodes = (
"616 662 LINE SMOOTH",
"610 672 OFFCURVE",
"612 678 OFFCURVE",
"618 684 CURVE SMOOTH",
"956 1030 LINE SMOOTH",
"974 1048 OFFCURVE",
"972 1060 OFFCURVE",
"952 1060 CURVE SMOOTH",
"888 1060 LINE SMOOTH",
"874 1060 OFFCURVE",
"868 1056 OFFCURVE",
"854 1040 CURVE",
"286 458 LINE SMOOTH",
"270 442 OFFCURVE",
"266 444 OFFCURVE",
"266 468 CURVE SMOOTH",
"266 1040 LINE SMOOTH",
"266 1056 OFFCURVE",
"262 1060 OFFCURVE",
"248 1060 CURVE SMOOTH",
"204 1060 LINE SMOOTH",
"190 1060 OFFCURVE",
"186 1056 OFFCURVE",
"186 1040 CURVE SMOOTH",
"186 20 LINE SMOOTH",
"186 4 OFFCURVE",
"190 0 OFFCURVE",
"208 0 CURVE SMOOTH",
"242 0 LINE SMOOTH",
"262 0 OFFCURVE",
"266 4 OFFCURVE",
"266 24 CURVE SMOOTH",
"266 304 LINE SMOOTH",
"266 318 OFFCURVE",
"270 328 OFFCURVE",
"280 338 CURVE SMOOTH",
"536 598 LINE SMOOTH",
"546 608 OFFCURVE",
"548 604 OFFCURVE",
"552 598 CURVE SMOOTH",
"916 14 LINE SMOOTH",
"922 4 OFFCURVE",
"928 0 OFFCURVE",
"940 0 CURVE SMOOTH",
"1002 0 LINE SMOOTH",
"1020 0 OFFCURVE",
"1022 8 OFFCURVE",
"1012 24 CURVE SMOOTH"
);
}
);
};
layerId = "91AB5BCA-6A50-42DA-B2F7-8181BF189245";
paths = (
{
closed = 1;
nodes = (
"590 658 LINE",
"960 1034 LINE",
"850 1034 LINE",
"258 428 LINE",
"258 1034 LINE",
"180 1034 LINE",
"180 0 LINE",
"258 0 LINE",
"258 316 LINE",
"530 592 LINE",
"898 0 LINE",
"998 0 LINE"
);
}
);
width = 1088;
}
);
leftKerningGroup = h;
leftMetricsKey = k;
rightKerningGroup = k;
rightMetricsKey = k;
unicode = 0138;
},
{
glyphname = l;
lastChange = "2019-04-21 20:12:08 +0000";
layers = (
{
anchors = (
{
name = bottom;
position = "{266, 0}";
},
{
name = top;
position = "{294, 1530}";
},
{
name = topright;
position = "{780, 1530}";
}
);
background = {
anchors = (
{
name = bottom;
position = "{152, 0}";
},
{
name = top;
position = "{264, 1484}";
},
{
name = topright;
position = "{638, 1060}";
}
);
paths = (
{
closed = 1;
nodes = (
"618 258 LINE",
"618 258 OFFCURVE",
"566 262 OFFCURVE",
"548 266 CURVE SMOOTH",
"470 284 OFFCURVE",
"456 326 OFFCURVE",
"456 380 CURVE SMOOTH",
"456 1484 LINE",
"62 1484 LINE",
"56 346 LINE",
"56 190 OFFCURVE",
"78 -2 OFFCURVE",
"468 4 CURVE SMOOTH",
"520 6 OFFCURVE",
"552 10 OFFCURVE",
"618 18 CURVE"
);
}
);
};
layerId = "258ED206-D907-4350-8EBA-CBDDA1C16BF7";
paths = (
{
closed = 1;
nodes = (
"544 -22 OFFCURVE",
"594 -8 OFFCURVE",
"640 10 CURVE",
"640 246 LINE",
"598 250 LINE",
"494 264 OFFCURVE",
"482 314 OFFCURVE",
"482 364 CURVE SMOOTH",
"482 1486 LINE",
"100 1486 LINE",
"100 312 LINE",
"100 160 OFFCURVE",
"112 -22 OFFCURVE",
"494 -22 CURVE SMOOTH"
);
}
);
width = 680;
},
{
anchors = (
{
name = bottom;
position = "{270, 2}";
},
{
name = top;
position = "{222, 1524}";
},
{
name = topright;
position = "{506, 1446}";
}
);
background = {
anchors = (
{
name = bottom;
position = "{230, 0}";
},
{
name = top;
position = "{230, 1484}";
},
{
name = topright;
position = "{520, 1484}";
}
);
paths = (
{
closed = 1;
nodes = (
"490 72 LINE",
"470 72 OFFCURVE",
"444 72 OFFCURVE",
"412 72 CURVE SMOOTH",
"284 72 OFFCURVE",
"270 174 OFFCURVE",
"270 260 CURVE",
"270 1484 LINE",
"190 1484 LINE",
"190 260 LINE",
"190 114 OFFCURVE",
"246 4 OFFCURVE",
"388 4 CURVE SMOOTH",
"436 4 OFFCURVE",
"464 6 OFFCURVE",
"490 12 CURVE"
);
}
);
};
layerId = "91AB5BCA-6A50-42DA-B2F7-8181BF189245";
paths = (
{
closed = 1;
nodes = (
"396 -8 OFFCURVE",
"424 -6 OFFCURVE",
"448 0 CURVE",
"448 58 LINE",
"384 58 LINE",
"328 58 OFFCURVE",
"268 108 OFFCURVE",
"268 242 CURVE",
"268 1486 LINE",
"190 1486 LINE",
"190 242 LINE",
"190 100 OFFCURVE",
"244 -8 OFFCURVE",
"382 -8 CURVE SMOOTH"
);
}
);
width = 538;
}
);
leftKerningGroup = h;
rightKerningGroup = l;
unicode = 006C;
},
{
glyphname = lslash;
lastChange = "2019-04-16 18:49:16 +0000";
layers = (
{
background = {
components = (
{
name = l;
transform = "{1, 0, 0, 1, 42, 0}";
}
);
paths = (
{
closed = 1;
nodes = (
"692 1014 OFFCURVE",
"678 1022 OFFCURVE",
"644 1000 CURVE SMOOTH",
"82 648 LINE SMOOTH",
"58 632 OFFCURVE",
"44 610 OFFCURVE",
"44 580 CURVE SMOOTH",
"44 340 LINE SMOOTH",
"44 306 OFFCURVE",
"56 300 OFFCURVE",
"96 326 CURVE SMOOTH",
"652 690 LINE SMOOTH",
"678 708 OFFCURVE",
"692 732 OFFCURVE",
"692 756 CURVE SMOOTH",
"692 982 LINE SMOOTH"
);
}
);
};
components = (
{
name = l;
transform = "{1, 0, 0, 1, 160, 0}";
}
);
layerId = "258ED206-D907-4350-8EBA-CBDDA1C16BF7";
paths = (
{
closed = 1;
nodes = (
"80 608 LINE",
"80 284 LINE",
"712 698 LINE",
"712 1004 LINE"
);
}
);
width = 810;
},
{
background = {
components = (
{
name = l;
transform = "{1, 0, 0, 1, 8, 0}";
}
);
paths = (
{
closed = 1;
nodes = (
"476 874 OFFCURVE",
"472 878 OFFCURVE",
"462 870 CURVE SMOOTH",
"12 450 LINE SMOOTH",
"6 444 OFFCURVE",
"2 438 OFFCURVE",
"2 430 CURVE SMOOTH",
"2 372 LINE SMOOTH",
"2 362 OFFCURVE",
"6 354 OFFCURVE",
"16 362 CURVE SMOOTH",
"464 784 LINE SMOOTH",
"472 792 OFFCURVE",
"476 798 OFFCURVE",
"476 806 CURVE SMOOTH",
"476 866 LINE SMOOTH"
);
}
);
};
components = (
{
name = l;
transform = "{1, 0, 0, 1, 8, 0}";
}
);
layerId = "91AB5BCA-6A50-42DA-B2F7-8181BF189245";
paths = (
{
closed = 1;
nodes = (
"0 430 LINE",
"0 340 LINE",
"462 776 LINE",
"462 862 LINE"
);
}
);
width = 432;
}
);
leftKerningGroup = h;
rightKerningGroup = l;
unicode = 0142;
},
